<?xml version="1.0" encoding="UTF-8" standalone="no"?>
<!-- Created with Inkscape (http://www.inkscape.org/) -->

<svg
   width="180"
   height="180"
   viewBox="0 0 180 180"
   version="1.1"
   id="svg5"
   inkscape:version="1.2-alpha (0bd5040e63, 2022-02-05)"
   sodipodi:docname="倣.svg"
   xmlns:inkscape="http://www.inkscape.org/namespaces/inkscape"
   xmlns:sodipodi="http://sodipodi.sourceforge.net/DTD/sodipodi-0.dtd"
   xmlns="http://www.w3.org/2000/svg"
   xmlns:svg="http://www.w3.org/2000/svg">
  <sodipodi:namedview
     id="namedview7"
     pagecolor="#505050"
     bordercolor="#ffffff"
     borderopacity="1"
     inkscape:pageshadow="0"
     inkscape:pageopacity="0"
     inkscape:pagecheckerboard="1"
     inkscape:blackoutopacity="0.0"
     inkscape:document-units="px"
     showgrid="false"
     inkscape:zoom="2.8284271"
     inkscape:cx="78.488853"
     inkscape:cy="122.50625"
     inkscape:window-width="1920"
     inkscape:window-height="1011"
     inkscape:window-x="-9"
     inkscape:window-y="30"
     inkscape:window-maximized="1"
     inkscape:current-layer="layer2" />
  <defs
     id="defs2" />
  <g
     inkscape:label="图层 1"
     inkscape:groupmode="layer"
     id="layer1"
     style="display:inline"
     sodipodi:insensitive="true">
    <text
       xml:space="preserve"
       style="font-style:normal;font-weight:normal;font-size:175.536px;line-height:1.25;font-family:sans-serif;fill:#000000;fill-opacity:1;stroke:none;stroke-width:4.38838"
       x="2.3197703"
       y="156.70367"
       id="text2280"><tspan
         sodipodi:role="line"
         id="tspan2278"
         x="2.3197703"
         y="156.70367"
         style="font-style:normal;font-variant:normal;font-weight:normal;font-stretch:normal;font-size:175.536px;font-family:'WenYue Juzhen';-inkscape-font-specification:'WenYue Juzhen';font-variant-ligatures:normal;font-variant-caps:normal;font-variant-numeric:normal;font-variant-east-asian:normal;stroke-width:4.38838">倣</tspan></text>
  </g>
  <g
     inkscape:groupmode="layer"
     id="layer2"
     inkscape:label="图层 2"
     style="display:inline">
    <path
       style="font-variation-settings:normal;opacity:1;vector-effect:none;fill:#ffd42a;fill-opacity:0.609231;stroke:none;stroke-width:2.1;stroke-linecap:butt;stroke-linejoin:miter;stroke-miterlimit:4;stroke-dasharray:2.1, 4.2;stroke-dashoffset:0;stroke-opacity:1;-inkscape-stroke:none;stop-color:#000000;stop-opacity:1"
       d="M 5.0907109,86.33101 C 28.543683,72.402281 52.387842,39.002791 59.084503,31.855468 65.781164,24.708145 68.656124,24.640593 68.871721,23.364755 69.059158,22.255561 68.265171,21.229326 67.03484,19.701326 59.260869,9.9534666 58.015322,6.1318282 54.279704,6.7527841 l 0.04301,1.2417504 C 56.200371,7.9242119 59.000299,9.8436735 52.86506,21.70413 46.55688,33.898911 22.419748,69.734278 4.2331919,85.04177 Z"
       id="path7023"
       sodipodi:nodetypes="czscccscc" />
    <path
       style="font-variation-settings:normal;opacity:1;vector-effect:none;fill:#ffd42a;fill-opacity:0.609231;stroke:none;stroke-width:2.1;stroke-linecap:butt;stroke-linejoin:miter;stroke-miterlimit:4;stroke-dasharray:2.1, 4.2;stroke-dashoffset:0;stroke-opacity:1;-inkscape-stroke:none;stop-color:#000000;stop-opacity:1"
       d="m 35.152939,53.75648 c 6.51124,5.503547 10.890823,9.185498 10.890823,10.852065 0,1.666567 -3.499037,2.334217 -3.576552,5.551079 -0.07752,3.216862 0.02538,42.970906 -0.564093,81.141176 -0.07866,5.0934 1.173104,20.47471 -1.075622,20.82694 -2.157218,0.33789 -11.668024,-11.13015 -11.729598,-15.37611 -0.0274,-1.88941 2.530883,-3.33082 3.220038,-7.26308 2.308248,-13.17067 2.253642,-32.44128 1.943583,-49.649551 -0.310059,-17.208275 0.310059,-34.649094 -3.643193,-40.152641 z"
       id="path10647"
       sodipodi:nodetypes="cssssssscc" />
    <path
       style="font-variation-settings:normal;opacity:1;vector-effect:none;fill:#ffd42a;fill-opacity:0.609231;stroke:none;stroke-width:2.1;stroke-linecap:butt;stroke-linejoin:miter;stroke-miterlimit:4;stroke-dasharray:2.1, 4.2;stroke-dashoffset:0;stroke-opacity:1;-inkscape-stroke:none;stop-color:#000000;stop-opacity:1"
       d="m 102.99674,111.21978 c 24.28188,-33.754598 31.7242,-76.724727 34.22607,-84.200712 1.60007,-4.781277 5.72643,-6.056099 5.9205,-7.718862 0.14516,-1.24382 -2.93265,-3.564785 -6.46629,-6.629748 -4.7736,-4.1404642 -8.96769,-7.5163686 -13.23952,-6.076708 l 0.041,1.3722498 c 3.89426,0.992891 4.46467,7.0483272 2.39648,21.2215002 -2.125,14.5625 -7.00179,46.121732 -23.91525,81.37462 z"
       id="path16860"
       sodipodi:nodetypes="csssccscc" />
    <path
       style="font-variation-settings:normal;opacity:1;vector-effect:none;fill:#ffd42a;fill-opacity:0.609231;stroke:none;stroke-width:2.1;stroke-linecap:butt;stroke-linejoin:miter;stroke-miterlimit:4;stroke-dasharray:2.1, 4.2;stroke-dashoffset:0;stroke-opacity:1;-inkscape-stroke:none;stop-color:#000000;stop-opacity:1"
       d="m 121.18042,72.390057 c 36.68117,-9.192389 36.20278,-15.393268 38.51587,-15.629573 2.31373,-0.23637 11.92463,8.136415 11.76638,10.082553 -0.0903,1.110639 -2.61505,0.538042 -17.79573,4.057135 -11.05289,2.562214 -24.68555,6.013136 -34.51317,8.463681 z"
       id="path27792"
       sodipodi:nodetypes="cssscc" />
    <path
       style="font-variation-settings:normal;opacity:1;vector-effect:none;fill:#ffd42a;fill-opacity:0.609231;stroke:none;stroke-width:2.1;stroke-linecap:butt;stroke-linejoin:miter;stroke-miterlimit:4;stroke-dasharray:2.1, 4.2;stroke-dashoffset:0;stroke-opacity:1;-inkscape-stroke:none;stop-color:#000000;stop-opacity:1"
       d="m 90.509668,58.247921 3.480616,-25.604893 c 0.640944,-4.715057 4.658693,-7.883107 4.747083,-9.297321 0.08839,-1.414214 -1.907932,-2.707028 -7.432204,-6.286756 C 85.780891,13.479223 81.781318,11.38 81.781318,11.38 l -0.834672,0.89047 C 84.399039,17.481476 84.875,28.145574 84.75,37.25 84.625,46.354426 84.1875,58.836677 84.1875,58.836677 Z"
       id="path30226"
       sodipodi:nodetypes="csssccscc" />
    <path
       style="font-variation-settings:normal;opacity:1;vector-effect:none;fill:#ffd42a;fill-opacity:0.609231;stroke:none;stroke-width:2.1;stroke-linecap:butt;stroke-linejoin:miter;stroke-miterlimit:4;stroke-dasharray:2.1, 4.2;stroke-dashoffset:0;stroke-opacity:1;-inkscape-stroke:none;stop-color:#000000;stop-opacity:1"
       d="m 48.105358,64.85495 c 0,0 7.137359,5.502175 10.385631,5.303301 3.248272,-0.198874 6.564128,-3.59391 28.478703,-8.307854 23.918628,-5.145026 31.793808,-4.565012 32.184078,-5.840294 0.25431,-0.831015 -6.89508,-8.525436 -8.91964,-8.280395 -2.66649,0.322736 -2.3318,2.730775 -29.099909,8.900869 -18.140558,4.181429 -24.388902,5.042393 -32.962572,6.986936 z"
       id="path35158"
       sodipodi:nodetypes="cssssscc" />
    <path
       style="font-variation-settings:normal;opacity:1;vector-effect:none;fill:#ffd42a;fill-opacity:0.609231;stroke:none;stroke-width:2.1;stroke-linecap:butt;stroke-linejoin:miter;stroke-miterlimit:4;stroke-dasharray:2.1, 4.2;stroke-dashoffset:0;stroke-opacity:1;-inkscape-stroke:none;stop-color:#000000;stop-opacity:1"
       d="M 44.349801,156.02851 C 69.224801,131.60719 74.591529,77.553617 74.529029,71.428617 74.485589,67.171492 74.625,65.96875 72.6875,63.65625 l 10.768596,-2.535708 c 0,0 4.606404,5.473208 4.262654,6.941958 -0.34375,1.46875 -2.674846,0.6875 -3.46875,4.75 -0.793904,4.0625 -6.921875,58.8125 -38.640625,84.53125 z"
       id="path38721"
       sodipodi:nodetypes="csccsscc" />
    <path
       style="font-variation-settings:normal;opacity:1;vector-effect:none;fill:#ffd42a;fill-opacity:0.609231;stroke:none;stroke-width:2.1;stroke-linecap:butt;stroke-linejoin:miter;stroke-miterlimit:4;stroke-dasharray:2.1, 4.2;stroke-dashoffset:0;stroke-opacity:1;-inkscape-stroke:none;stop-color:#000000;stop-opacity:1"
       d="m 77.15625,94.75 c 0,0 3.83803,2.269761 6.331906,2.422265 2.832282,0.173198 7.527145,-2.103569 9.142832,-1.281631 1.515691,0.771067 -1.069604,12.325286 -6.010408,28.118216 -4.949747,15.82152 -9.659722,25.18128 -10.91596,25.8094 -2.12132,1.06066 -11.667262,-6.31977 -11.667262,-6.31977 l -0.752872,0.62787 c 1.151,2.94282 4.921545,7.60028 6.83076,12.57732 1.528677,3.98503 1.436365,7.34783 3.553301,7.48083 1.891746,0.11885 10.838519,-8.44728 19.79715,-37.55065 6.547823,-21.27152 8.471523,-28.247717 9.875443,-30.622658 1.59099,-2.691403 3.30476,-1.947684 3.7467,-3.538675 0.44195,-1.59099 -6.55368,-10.746767 -8.365638,-10.56999 C 96.91024,82.079304 95.048678,88.62948 85.037633,91.365902 81.600669,92.305363 78.16877,91.03125 78.16877,91.03125 Z"
       id="path40681"
       sodipodi:nodetypes="cssssccssssssscc" />
    <path
       style="font-variation-settings:normal;opacity:1;vector-effect:none;fill:#ffd42a;fill-opacity:0.609231;stroke:none;stroke-width:2.1;stroke-linecap:butt;stroke-linejoin:miter;stroke-miterlimit:4;stroke-dasharray:2.1, 4.2;stroke-dashoffset:0;stroke-opacity:1;-inkscape-stroke:none;stop-color:#000000;stop-opacity:1"
       d="m 71.3125,174.4375 c 58.97056,-14.93166 72.69311,-71.92457 75.50184,-78.898286 3.3606,-8.343938 5.77608,-6.326935 6.10355,-8.056219 0.41161,-2.173636 -7.98109,-12.924806 -11.27211,-16.745321 l -3.95818,1.673829 c 2.0481,3.654252 1.98115,8.052223 1.27405,12.294864 -0.70711,4.242641 -9.4339,65.084123 -68.123751,88.288573 z"
       id="path47827"
       sodipodi:nodetypes="cssccscc" />
    <path
       style="font-variation-settings:normal;opacity:1;vector-effect:none;fill:#ffd42a;fill-opacity:0.609231;stroke:none;stroke-width:2.1;stroke-linecap:butt;stroke-linejoin:miter;stroke-miterlimit:4;stroke-dasharray:2.1, 4.2;stroke-dashoffset:0;stroke-opacity:1;-inkscape-stroke:none;stop-color:#000000;stop-opacity:1"
       d="m 175.39826,163.43005 v 3.49134 c 0,0 -23.3226,4.72255 -25.1684,3.10118 -1.74543,-1.5332 -12.89842,-18.59709 -23.56936,-38.32394 C 117.20361,114.21615 109.625,98.0625 109.625,98.0625 l 2.33833,-3.744091 c 0,0 20.27789,41.040931 39.55812,56.319151 10.31044,8.17029 23.87681,12.79249 23.87681,12.79249 z"
       id="path48531"
       sodipodi:nodetypes="ccssccsc" />
  </g>
</svg>
