<?xml version="1.0" encoding="UTF-8" standalone="no"?>
<!-- Created with Inkscape (http://www.inkscape.org/) -->

<svg
   width="180"
   height="180"
   viewBox="0 0 180 180"
   version="1.1"
   id="svg5"
   inkscape:version="1.2-alpha (0bd5040e63, 2022-02-05)"
   sodipodi:docname="发.svg"
   xmlns:inkscape="http://www.inkscape.org/namespaces/inkscape"
   xmlns:sodipodi="http://sodipodi.sourceforge.net/DTD/sodipodi-0.dtd"
   xmlns="http://www.w3.org/2000/svg"
   xmlns:svg="http://www.w3.org/2000/svg">
  <sodipodi:namedview
     id="namedview7"
     pagecolor="#505050"
     bordercolor="#ffffff"
     borderopacity="1"
     inkscape:pageshadow="0"
     inkscape:pageopacity="0"
     inkscape:pagecheckerboard="1"
     inkscape:blackoutopacity="0.0"
     inkscape:document-units="px"
     showgrid="false"
     inkscape:zoom="2.828427"
     inkscape:cx="29.344933"
     inkscape:cy="113.66742"
     inkscape:window-width="1920"
     inkscape:window-height="1011"
     inkscape:window-x="-9"
     inkscape:window-y="30"
     inkscape:window-maximized="1"
     inkscape:current-layer="layer2" />
  <defs
     id="defs2" />
  <g
     inkscape:label="图层 1"
     inkscape:groupmode="layer"
     id="layer1"
     style="display:inline"
     sodipodi:insensitive="true">
    <text
       xml:space="preserve"
       style="font-style:normal;font-weight:normal;font-size:175.536px;line-height:1.25;font-family:sans-serif;fill:#000000;fill-opacity:1;stroke:none;stroke-width:4.38838"
       x="2.3197703"
       y="156.70367"
       id="text2280"><tspan
         sodipodi:role="line"
         id="tspan2278"
         x="2.3197703"
         y="156.70367"
         style="font-style:normal;font-variant:normal;font-weight:normal;font-stretch:normal;font-size:175.536px;font-family:'WenYue Juzhen';-inkscape-font-specification:'WenYue Juzhen';font-variant-ligatures:normal;font-variant-caps:normal;font-variant-numeric:normal;font-variant-east-asian:normal;stroke-width:4.38838">发</tspan></text>
  </g>
  <g
     inkscape:groupmode="layer"
     id="layer2"
     inkscape:label="图层 2"
     style="display:inline"
     transform="translate(-161.22035)">
    <path
       style="font-variation-settings:normal;opacity:1;vector-effect:none;fill:#ffd42a;fill-opacity:0.609231;stroke:none;stroke-width:2.17126;stroke-linecap:butt;stroke-linejoin:miter;stroke-miterlimit:4;stroke-dasharray:2.17126, 4.34253;stroke-dashoffset:0;stroke-opacity:1;-inkscape-stroke:none;stop-color:#000000;stop-opacity:1"
       d="m 208.56781,14.413871 c 7.03643,8.26915 8.52826,15.77323 7.77506,18.455326 -0.7532,2.682095 -5.43226,22.459491 -7.09024,27.454173 -1.65798,4.99468 -6.07695,10.972598 -8.35221,10.935892 -2.27529,-0.03671 -4.07818,-9.01049 -3.53598,-12.528197 0.51989,-3.372918 2.49542,-2.263273 5.14433,-8.456574 2.03692,-4.76245 5.54466,-14.842044 6.00145,-19.242959 0.98591,-9.498381 -1.23019,-15.877397 -1.23019,-15.877397 z"
       id="path6282"
       sodipodi:nodetypes="csssssscc" />
    <path
       style="font-variation-settings:normal;opacity:1;vector-effect:none;fill:#ffd42a;fill-opacity:0.609231;stroke:none;stroke-width:2.1;stroke-linecap:butt;stroke-linejoin:miter;stroke-miterlimit:4;stroke-dasharray:2.1, 4.2;stroke-dashoffset:0;stroke-opacity:1;-inkscape-stroke:none;stop-color:#000000;stop-opacity:1"
       d="m 174.15934,68.180629 c 21.42968,-2.400249 27.88936,-1.669354 107.06225,-10.799356 38.48029,-4.437444 34.81134,-9.151484 38.81053,-9.279544 3.9992,-0.12806 13.25433,12.364609 12.4766,14.365167 -0.77774,2.000557 -7.17869,-1.699801 -64.72126,4.304198 -67.41603,7.034193 -81.73777,11.380616 -84.53607,11.023202 -3.52287,-0.449958 -9.75452,-7.58077 -9.75452,-7.58077 z"
       id="path7941"
       sodipodi:nodetypes="cssssscc"
       inkscape:transform-center-x="-79.11217"
       inkscape:transform-center-y="-15.399229" />
    <path
       style="font-variation-settings:normal;opacity:1;vector-effect:none;fill:#ffd42a;fill-opacity:0.609231;stroke:none;stroke-width:2.1;stroke-linecap:butt;stroke-linejoin:miter;stroke-miterlimit:4;stroke-dasharray:2.1, 4.2;stroke-dashoffset:0;stroke-opacity:1;-inkscape-stroke:none;stop-color:#000000;stop-opacity:1"
       d="m 170.61409,172.00953 c 74.88252,-54.04038 81.1979,-112.995073 89.73398,-147.694821 1.21325,-4.931933 4.37811,-6.876525 4.76113,-9.351399 0.383,-2.474873 -4.7418,-3.093592 -8.29417,-4.596193 -3.55237,-1.5026024 -12.42601,-4.5569811 -12.42601,-4.5569811 l -1.08465,1.9663459 c 0,0 6.8137,3.5373042 5.25136,15.7709522 -2.2901,17.932237 -8.4035,88.172346 -79.15116,146.804076 z"
       id="path10451"
       sodipodi:nodetypes="csssccscc" />
    <path
       style="font-variation-settings:normal;opacity:1;vector-effect:none;fill:#ffd42a;fill-opacity:0.609231;stroke:none;stroke-width:2.05374;stroke-linecap:butt;stroke-linejoin:miter;stroke-miterlimit:4;stroke-dasharray:2.05374, 4.10747;stroke-dashoffset:0;stroke-opacity:1;-inkscape-stroke:none;stop-color:#000000;stop-opacity:1"
       d="m 201.79294,175.11071 c 60.96729,-20.40239 80.76891,-64.93352 86.99196,-76.51792 6.22305,-11.584405 12.18682,-6.722957 12.53254,-10.546996 0.34572,-3.824039 -12.53254,-10.8928 -15.29835,-10.546996 -2.76579,0.345803 -1.11638,5.532525 -21.17566,9.85539 -13.43856,2.896069 -24.9132,4.802118 -33.46989,4.954814 l -1.6422,5.187048 c 9.38267,1.708039 18.69014,-0.372923 28.45687,-1.929037 9.76675,-1.556115 19.10132,-4.8063 20.57066,-2.924587 1.46933,1.881712 -12.63371,50.726844 -77.64244,80.674784 z"
       id="path15501"
       sodipodi:nodetypes="cssssccsscc" />
    <path
       style="font-variation-settings:normal;opacity:1;vector-effect:none;fill:#ffd42a;fill-opacity:0.609231;stroke:none;stroke-width:2.07686;stroke-linecap:butt;stroke-linejoin:miter;stroke-miterlimit:4;stroke-dasharray:2.07686, 4.15371;stroke-dashoffset:0;stroke-opacity:1;-inkscape-stroke:none;stop-color:#000000;stop-opacity:1"
       d="m 195.49674,98.636701 c 0,0 10.35167,-9.602083 12.76089,-9.968703 3.33504,-0.50751 8.08647,2.151797 31.31289,18.890562 27.79332,20.03005 52.32685,40.61686 64.97879,46.57589 12.65194,5.95902 26.77785,8.51899 26.77785,8.51899 l 0.57573,3.50114 c 0,0 -23.79662,6.99241 -28.53161,6.05713 -4.735,-0.93529 -65.16397,-62.59459 -88.49932,-72.644432 -8.67041,-3.734095 -18.50878,0.454962 -18.50878,0.454962 z"
       id="path18863"
       sodipodi:nodetypes="csssccsscc"
       inkscape:transform-center-x="67.834023"
       inkscape:transform-center-y="-42.259428" />
    <path
       style="font-variation-settings:normal;opacity:1;vector-effect:none;fill:#ffd42a;fill-opacity:0.609231;stroke:none;stroke-width:2.1;stroke-linecap:butt;stroke-linejoin:miter;stroke-miterlimit:4;stroke-dasharray:2.1, 4.2;stroke-dashoffset:0;stroke-opacity:1;-inkscape-stroke:none;stop-color:#000000;stop-opacity:1"
       d="m 275.95992,17.126924 c 0,0 27.10029,9.32551 29.25654,12.020816 1.76777,2.209708 -0.0884,17.235728 -0.0884,17.235728 l -2.09922,0.795496 c 0,0 -11.3715,-15.359047 -28.25368,-28.352135 z"
       id="path32721"
       sodipodi:nodetypes="cscccc" />
  </g>
</svg>
