<?xml version="1.0" encoding="UTF-8" standalone="no"?>
<!-- Created with Inkscape (http://www.inkscape.org/) -->

<svg
   width="180"
   height="180"
   viewBox="0 0 180 180"
   version="1.1"
   id="svg5"
   inkscape:version="1.2-alpha (0bd5040e63, 2022-02-05)"
   sodipodi:docname="古.svg"
   xmlns:inkscape="http://www.inkscape.org/namespaces/inkscape"
   xmlns:sodipodi="http://sodipodi.sourceforge.net/DTD/sodipodi-0.dtd"
   xmlns="http://www.w3.org/2000/svg"
   xmlns:svg="http://www.w3.org/2000/svg">
  <sodipodi:namedview
     id="namedview7"
     pagecolor="#505050"
     bordercolor="#ffffff"
     borderopacity="1"
     inkscape:pageshadow="0"
     inkscape:pageopacity="0"
     inkscape:pagecheckerboard="1"
     inkscape:blackoutopacity="0.0"
     inkscape:document-units="px"
     showgrid="false"
     inkscape:zoom="4"
     inkscape:cx="63.75"
     inkscape:cy="82.125"
     inkscape:window-width="1920"
     inkscape:window-height="1011"
     inkscape:window-x="-9"
     inkscape:window-y="30"
     inkscape:window-maximized="1"
     inkscape:current-layer="layer2" />
  <defs
     id="defs2" />
  <g
     inkscape:label="图层 1"
     inkscape:groupmode="layer"
     id="layer1"
     style="display:inline"
     sodipodi:insensitive="true">
    <text
       xml:space="preserve"
       style="font-style:normal;font-weight:normal;font-size:175.536px;line-height:1.25;font-family:sans-serif;fill:#000000;fill-opacity:1;stroke:none;stroke-width:4.38838"
       x="2.3197703"
       y="156.70367"
       id="text2280"><tspan
         sodipodi:role="line"
         id="tspan2278"
         x="2.3197703"
         y="156.70367"
         style="font-style:normal;font-variant:normal;font-weight:normal;font-stretch:normal;font-size:175.536px;font-family:'WenYue Juzhen';-inkscape-font-specification:'WenYue Juzhen';font-variant-ligatures:normal;font-variant-caps:normal;font-variant-numeric:normal;font-variant-east-asian:normal;stroke-width:4.38838">古</tspan></text>
  </g>
  <g
     inkscape:groupmode="layer"
     id="layer2"
     inkscape:label="图层 2"
     style="display:inline">
    <path
       style="font-variation-settings:normal;opacity:1;vector-effect:none;fill:#ffd42a;fill-opacity:0.609231;stroke:none;stroke-width:2.1;stroke-linecap:butt;stroke-linejoin:miter;stroke-miterlimit:4;stroke-dasharray:2.1, 4.2;stroke-dashoffset:0;stroke-opacity:1;-inkscape-stroke:none;stop-color:#000000;stop-opacity:1"
       d="m 35.170723,105.26039 c 3.084605,6.56483 4.244034,9.43228 6.320392,18.59636 2.139198,9.44143 2.618025,15.56817 3.003443,24.40255 0.331419,7.59662 -3.491117,11.02016 -2.991117,13.75399 0.5,2.73383 8.607233,13.87868 10.732233,13.26363 2.125,-0.61504 2.037645,-4.00397 2.024049,-12.46077 -0.01505,-9.3626 -2.140384,-26.9589 -3.402268,-36.46461 -0.454134,-3.42098 1.602331,-5.43812 1.602331,-5.43812 0,0 -9.6875,-10.85225 -16.28125,-16.321 z"
       id="path10152"
       sodipodi:nodetypes="cssssssccc" />
    <path
       style="font-variation-settings:normal;opacity:1;vector-effect:none;fill:#ffd42a;fill-opacity:0.609231;stroke:none;stroke-width:2.1;stroke-linecap:butt;stroke-linejoin:miter;stroke-miterlimit:4;stroke-dasharray:2.1, 4.2;stroke-dashoffset:0;stroke-opacity:1;-inkscape-stroke:none;stop-color:#000000;stop-opacity:1"
       d="M 43.840621,115.51913 C 47.210864,115.68962 69.260052,112.19163 100.75,106 c 32.08211,-6.308057 30.8125,-14.999999 33.4375,-15.124999 2.625,-0.125 14.875,16.999999 14.5,18.687499 -0.375,1.6875 -6.9375,0.3125 -9.4375,6.9375 -2.5,6.625 -10.44029,30.51629 -11.90533,35.01386 -0.94195,2.89171 -3.98614,5.54337 -5.66161,5.18981 -2.20152,-0.46455 -2.80806,-5.79758 -1.80806,-11.79758 1,-6 1.625,-3.03109 4.625,-13.15609 3,-10.125 4.9375,-20.6875 3.75,-21.875 -1.1875,-1.1875 -14.5,1.625 -38.25,6 -23.749999,4.375 -43.5,7.875 -43.5,7.875 z"
       id="path15206"
       sodipodi:nodetypes="csssssssssscc" />
    <path
       style="font-variation-settings:normal;opacity:1;vector-effect:none;fill:#ffd42a;fill-opacity:0.609231;stroke:none;stroke-width:2.1;stroke-linecap:butt;stroke-linejoin:miter;stroke-miterlimit:4;stroke-dasharray:2.1, 4.2;stroke-dashoffset:0;stroke-opacity:1;-inkscape-stroke:none;stop-color:#000000;stop-opacity:1"
       d="m 50.506359,158.43546 c 9.744165,-0.4375 25.781528,-2.14309 48.655254,-4.90368 26.662367,-3.21783 25.414057,-6.73654 29.678117,-6.78714 4.26406,-0.0506 12.12884,7.64044 11.75678,9.99081 -0.24816,1.56769 -2.47567,-0.64099 -40.37799,3.58546 -35.795888,3.99157 -49.39522,5.93757 -49.39522,5.93757 z"
       id="path19692"
       sodipodi:nodetypes="csssscc" />
    <path
       style="font-variation-settings:normal;opacity:1;vector-effect:none;fill:#ffd42a;fill-opacity:0.609231;stroke:none;stroke-width:2.1;stroke-linecap:butt;stroke-linejoin:miter;stroke-miterlimit:4;stroke-dasharray:2.1, 4.2;stroke-dashoffset:0;stroke-opacity:1;-inkscape-stroke:none;stop-color:#000000;stop-opacity:1"
       d="m 8.2187501,73.562501 c 0,0 13.1562499,8.3125 15.9687499,8.3125 2.8125,0 23.125762,-5 82.12576,-12.375 59,-7.375 64.31174,-5.375 65.81174,-7.25 1.5,-1.875 -9.375,-14.375001 -12.875,-14.000001 -3.5,0.375 -2.96963,6.493148 -49.18306,13.609836 -64.124997,9.875 -76.147421,7.825904 -101.5997488,10.43704 z"
       id="path36792"
       sodipodi:nodetypes="cssssscc" />
    <path
       style="font-variation-settings:normal;opacity:1;vector-effect:none;fill:#ffd42a;fill-opacity:0.609231;stroke:none;stroke-width:2.1;stroke-linecap:butt;stroke-linejoin:miter;stroke-miterlimit:4;stroke-dasharray:2.1, 4.2;stroke-dashoffset:0;stroke-opacity:1;-inkscape-stroke:none;stop-color:#000000;stop-opacity:1"
       d="m 87.725436,112.87192 c 0,0 5.665961,-45.968799 13.058724,-78.609411 2.02942,-8.96034 4.9725,-11.856063 5.41444,-13.62383 0.44195,-1.767767 -0.97227,-3.623922 -6.850096,-7.292038 C 93.579056,9.7461579 88.211572,5.2591068 82.510523,5.3916462 l -0.397747,1.8561984 c 0,0 6.225613,2.1075487 6.762225,7.0646554 0.462314,4.27076 3.008567,14.361111 -10.339848,99.27085"
       id="path39393"
       sodipodi:nodetypes="csssccsc" />
  </g>
</svg>
