<?xml version="1.0" encoding="UTF-8" standalone="no"?>
<!-- Created with Inkscape (http://www.inkscape.org/) -->

<svg
   width="180"
   height="180"
   viewBox="0 0 180 180"
   version="1.1"
   id="svg5"
   inkscape:version="1.2-alpha (0bd5040e63, 2022-02-05)"
   sodipodi:docname="國.svg"
   xmlns:inkscape="http://www.inkscape.org/namespaces/inkscape"
   xmlns:sodipodi="http://sodipodi.sourceforge.net/DTD/sodipodi-0.dtd"
   xmlns="http://www.w3.org/2000/svg"
   xmlns:svg="http://www.w3.org/2000/svg">
  <sodipodi:namedview
     id="namedview7"
     pagecolor="#505050"
     bordercolor="#ffffff"
     borderopacity="1"
     inkscape:pageshadow="0"
     inkscape:pageopacity="0"
     inkscape:pagecheckerboard="1"
     inkscape:blackoutopacity="0.0"
     inkscape:document-units="px"
     showgrid="false"
     inkscape:zoom="2.8284271"
     inkscape:cx="-5.6568543"
     inkscape:cy="72.655222"
     inkscape:window-width="1920"
     inkscape:window-height="1011"
     inkscape:window-x="-9"
     inkscape:window-y="30"
     inkscape:window-maximized="1"
     inkscape:current-layer="layer2" />
  <defs
     id="defs2" />
  <g
     inkscape:label="图层 1"
     inkscape:groupmode="layer"
     id="layer1"
     style="display:inline"
     sodipodi:insensitive="true">
    <text
       xml:space="preserve"
       style="font-style:normal;font-weight:normal;font-size:175.536px;line-height:1.25;font-family:sans-serif;fill:#000000;fill-opacity:1;stroke:none;stroke-width:4.38838"
       x="2.3197703"
       y="156.70367"
       id="text2280"><tspan
         sodipodi:role="line"
         id="tspan2278"
         x="2.3197703"
         y="156.70367"
         style="font-style:normal;font-variant:normal;font-weight:normal;font-stretch:normal;font-size:175.536px;font-family:'WenYue Juzhen';-inkscape-font-specification:'WenYue Juzhen';font-variant-ligatures:normal;font-variant-caps:normal;font-variant-numeric:normal;font-variant-east-asian:normal;stroke-width:4.38838">國</tspan></text>
  </g>
  <g
     inkscape:groupmode="layer"
     id="layer2"
     inkscape:label="图层 2"
     style="display:inline">
    <path
       style="font-variation-settings:normal;opacity:1;vector-effect:none;fill:#ffd42a;fill-opacity:0.609231;stroke:none;stroke-width:2.1;stroke-linecap:butt;stroke-linejoin:miter;stroke-miterlimit:4;stroke-dasharray:2.1, 4.2;stroke-dashoffset:0;stroke-opacity:1;-inkscape-stroke:none;stop-color:#000000;stop-opacity:1"
       d="m 14.244254,8.2279289 c 3.76189,11.4403261 6.277008,22.2213181 7.451945,29.4235301 0.96899,5.939783 1.892767,52.478761 -0.316942,105.158221 -0.303956,7.24631 -4.983218,6.38986 -4.983218,11.16283 0,4.77297 9.148194,18.03122 11.092737,18.03122 1.944544,0 4.021672,-2.2981 3.933282,-14.09795 -0.08839,-11.79984 -1.635189,-117.070363 -1.679379,-118.882324 -0.04419,-1.811961 1.281631,-5.201049 1.281631,-5.201049 0,0 -4.034451,-11.301684 -15.613325,-26.1509265 z"
       id="path4688"
       sodipodi:nodetypes="cssssssccc" />
    <path
       style="font-variation-settings:normal;opacity:1;vector-effect:none;fill:#ffd42a;fill-opacity:0.609231;stroke:none;stroke-width:2.1;stroke-linecap:butt;stroke-linejoin:miter;stroke-miterlimit:4;stroke-dasharray:2.1, 4.2;stroke-dashoffset:0;stroke-opacity:1;-inkscape-stroke:none;stop-color:#000000;stop-opacity:1"
       d="m 24.125,26.5 c 11.5,0.25 41.222969,-2.062646 87.625,-9.125 C 154.93424,10.802391 149.22805,5.4182841 153.46875,5.1476627 155.77948,5.000203 166.0461,15.813329 166.25,19.6875 c 0.125,2.375 -3.86821,0.691955 -4.15625,9.5625 -0.29105,8.963388 -0.0357,118.65735 -0.66069,127.45367 -0.625,8.79633 -4.43306,18.34422 -7.05806,18.34422 -2.625,0 -13.8125,-20.11039 -13.8125,-20.11039 l 1.9375,-2.25 c 0,0 4.86509,2.16806 6.8125,1.1875 2.60041,-1.30936 3.1875,-5.9758 3.4375,-63.777223 C 152.96884,39.499856 152.875,21.6875 151.1875,20.25 149.5,18.8125 136.25,21 95.750001,26.75 55.250001,32.5 26.25,35.125 26.25,35.125 Z"
       id="path8644"
       sodipodi:nodetypes="cssssssccsssscc" />
    <path
       style="font-variation-settings:normal;opacity:1;vector-effect:none;fill:#ffd42a;fill-opacity:0.609231;stroke:none;stroke-width:2.1;stroke-linecap:butt;stroke-linejoin:miter;stroke-miterlimit:4;stroke-dasharray:2.1, 4.2;stroke-dashoffset:0;stroke-opacity:1;-inkscape-stroke:none;stop-color:#000000;stop-opacity:1"
       d="m 27.625,156.70367 c 12.326587,0.36067 41.600952,-2.24656 74,-4.95367 31.2052,-2.60735 31.40625,-4.03125 34.09375,-3.78125 2.6875,0.25 12.34375,6.1261 11.28125,8.73492 C 145.9375,159.3125 145.02731,156.23242 93.375001,160 40.25,163.875 27.625,165.75 27.625,165.75 Z"
       id="path14204"
       sodipodi:nodetypes="csssscc" />
    <path
       style="font-variation-settings:normal;opacity:1;vector-effect:none;fill:#ffd42a;fill-opacity:0.609231;stroke:none;stroke-width:2.1;stroke-linecap:butt;stroke-linejoin:miter;stroke-miterlimit:4;stroke-dasharray:2.1, 4.2;stroke-dashoffset:0;stroke-opacity:1;-inkscape-stroke:none;stop-color:#000000;stop-opacity:1"
       d="m 41.78125,60.156251 c 0,0 8.74778,4.659391 13.31028,4.534391 4.5625,-0.125 11.078656,-3.35761 37.158471,-7.065641 26.374999,-3.75 32.661609,-2.890165 33.224109,-4.015165 0.5625,-1.125 -4.97411,-8.359836 -7.03661,-8.297336 -2.0625,0.0625 -1.125,1.875 -24.624999,5.687501 C 71.162203,54.674652 42,58.750001 42,58.750001 Z"
       id="path19042"
       sodipodi:nodetypes="cssssscc" />
    <path
       style="font-variation-settings:normal;opacity:1;vector-effect:none;fill:#ffd42a;fill-opacity:0.609231;stroke:none;stroke-width:2.1;stroke-linecap:butt;stroke-linejoin:miter;stroke-miterlimit:4;stroke-dasharray:2.1, 4.2;stroke-dashoffset:0;stroke-opacity:1;-inkscape-stroke:none;stop-color:#000000;stop-opacity:1"
       d="m 43.586179,71.121371 c 3.712311,6.459388 4.673859,15.455017 5.115801,22.349308 0.441941,6.894291 -1.944544,4.154252 -1.414214,7.336231 0.530331,3.18198 4.684583,13.47922 6.275573,13.12567 1.59099,-0.35355 2.032934,-5.83363 2.032932,-13.21406 -1e-6,-7.425144 -1.767767,-17.279919 -1.502602,-18.959298 0,0 -1.674477,-4.200667 -9.187486,-11.625288 z"
       id="path19607"
       sodipodi:nodetypes="cssssccc" />
    <path
       style="font-variation-settings:normal;opacity:1;vector-effect:none;fill:#ffd42a;fill-opacity:0.609231;stroke:none;stroke-width:2.1;stroke-linecap:butt;stroke-linejoin:miter;stroke-miterlimit:4;stroke-dasharray:2.1, 4.2;stroke-dashoffset:0;stroke-opacity:1;-inkscape-stroke:none;stop-color:#000000;stop-opacity:1"
       d="m 80.610174,97.801708 c 0,0 2.298097,-9.501748 3.977476,-14.71666 1.679378,-5.214913 4.728776,-2.519069 4.861359,-4.596195 0.132582,-2.077126 -6.629126,-10.120461 -8.662058,-10.076271 -2.032932,0.04419 -3.293163,4.481868 -11.00435,7.026874 -7.92265,2.614798 -13.788582,4.331029 -18.694136,4.596194 l 0.176777,3.579728 c 5.214913,1.237437 10.474019,0.839689 15.55635,-0.883884 5.08233,-1.723573 8.441087,-3.137786 9.987883,-2.695844 1.546796,0.441941 -0.618719,18.075417 -0.618719,18.075417 z"
       id="path21453"
       sodipodi:nodetypes="cssssccsscc" />
    <path
       style="font-variation-settings:normal;opacity:1;vector-effect:none;fill:#ffd42a;fill-opacity:0.609231;stroke:none;stroke-width:2.1;stroke-linecap:butt;stroke-linejoin:miter;stroke-miterlimit:4;stroke-dasharray:2.1, 4.2;stroke-dashoffset:0;stroke-opacity:1;-inkscape-stroke:none;stop-color:#000000;stop-opacity:1"
       d="m 53.687501,100.75 c 0,0 9.683543,-2.057998 17,-3.874999 9.4375,-2.34375 7.704202,-3.783829 11.140182,-3.928403 2.62806,-0.11058 8.810446,5.774841 8.593598,6.711265 -0.190207,0.821377 -3.55108,0.459327 -18.403083,3.140007 -13.264885,2.39422 -18.012917,3.31234 -18.012917,3.31234 z"
       id="path23325"
       sodipodi:nodetypes="csssscc" />
    <path
       style="font-variation-settings:normal;opacity:1;vector-effect:none;fill:#ffd42a;fill-opacity:0.609231;stroke:none;stroke-width:2.1;stroke-linecap:butt;stroke-linejoin:miter;stroke-miterlimit:4;stroke-dasharray:2.1, 4.2;stroke-dashoffset:0;stroke-opacity:1;-inkscape-stroke:none;stop-color:#000000;stop-opacity:1"
       d="m 92.387921,110.0214 c -36.366063,10.09144 -38.915109,9.71474 -56.50225,14.95972 l -0.08839,1.45841 c 0,0 9.766913,5.52427 13.037282,4.72877 3.270368,-0.79549 3.389777,-3.49548 44.136805,-19.22625 z"
       id="path30459"
       sodipodi:nodetypes="cccscc" />
    <path
       style="font-variation-settings:normal;opacity:1;vector-effect:none;fill:#ffd42a;fill-opacity:0.609231;stroke:none;stroke-width:2.1;stroke-linecap:butt;stroke-linejoin:miter;stroke-miterlimit:4;stroke-dasharray:2.1, 4.2;stroke-dashoffset:0;stroke-opacity:1;-inkscape-stroke:none;stop-color:#000000;stop-opacity:1"
       d="m 91.702912,25.809398 c 0,0 5.877825,5.61266 9.413358,6.938485 3.53553,1.325825 4.59619,3.181981 4.552,4.110058 -0.0442,0.928078 -1.90035,2.695845 -1.67938,7.026874 0.22097,4.331029 1.95334,41.221527 9.05445,60.590215 6.68072,18.22206 18.87627,28.68202 20.59984,27.22361 1.72358,-1.45841 -0.64215,-21.79041 -0.64215,-21.79041 l 1.43765,-0.35087 c 0,0 5.38202,17.15706 6.26929,23.78573 1.07138,8.00412 -0.12566,11.84642 -2.22932,12.92354 -2.7137,1.38948 -22.55446,-13.40911 -31.97958,-39.07366 C 99.435045,87.957679 98.436065,57.375001 96.812501,46.6875 95.188937,36 90.337768,26.640625 90.337768,26.640625 Z"
       id="path36259"
       sodipodi:nodetypes="csssssccsssscc" />
    <path
       style="font-variation-settings:normal;opacity:1;vector-effect:none;fill:#ffd42a;fill-opacity:0.609231;stroke:none;stroke-width:2.1;stroke-linecap:butt;stroke-linejoin:miter;stroke-miterlimit:4;stroke-dasharray:2.1, 4.2;stroke-dashoffset:0;stroke-opacity:1;-inkscape-stroke:none;stop-color:#000000;stop-opacity:1"
       d="M 70.269698,140.75 C 107.13959,121.85432 121.875,96.687501 127.75,89.312501 c 5.875,-7.375 8.5,-4.375 9.6875,-5.4375 1.1875,-1.0625 -2.375,-5.5 -4,-8.3125 -1.625,-2.8125 -5.9375,-8.6875 -5.9375,-8.6875 l -1.63951,0.602443 c 0,0 0.66095,5.532451 -3.00069,13.928225 -3.55558,8.152589 -12.38717,28.616401 -53.629626,57.739691 z"
       id="path55311"
       sodipodi:nodetypes="csssccscc" />
    <path
       style="font-variation-settings:normal;opacity:1;vector-effect:none;fill:#ffd42a;fill-opacity:0.609231;stroke:none;stroke-width:2.1;stroke-linecap:butt;stroke-linejoin:miter;stroke-miterlimit:4;stroke-dasharray:2.1, 4.2;stroke-dashoffset:0;stroke-opacity:1;-inkscape-stroke:none;stop-color:#000000;stop-opacity:1"
       d="m 121.10937,28.890625 c 0,0 23.72797,14.957166 24.31296,20.149127 0.38243,3.394089 -3.50046,10.147749 -3.50046,10.147749 l -1.54687,-0.125 c 0,0 -3.65625,-8.890625 -20.28125,-29.078126 z"
       id="path61171"
       sodipodi:nodetypes="cscccc" />
  </g>
</svg>
