<?xml version="1.0" encoding="UTF-8" standalone="no"?>
<!-- Created with Inkscape (http://www.inkscape.org/) -->

<svg
   width="180"
   height="180"
   viewBox="0 0 180 180"
   version="1.1"
   id="svg5"
   inkscape:version="1.2-alpha (0bd5040e63, 2022-02-05)"
   sodipodi:docname="字.svg"
   xmlns:inkscape="http://www.inkscape.org/namespaces/inkscape"
   xmlns:sodipodi="http://sodipodi.sourceforge.net/DTD/sodipodi-0.dtd"
   xmlns="http://www.w3.org/2000/svg"
   xmlns:svg="http://www.w3.org/2000/svg">
  <sodipodi:namedview
     id="namedview7"
     pagecolor="#505050"
     bordercolor="#ffffff"
     borderopacity="1"
     inkscape:pageshadow="0"
     inkscape:pageopacity="0"
     inkscape:pagecheckerboard="1"
     inkscape:blackoutopacity="0.0"
     inkscape:document-units="px"
     showgrid="false"
     inkscape:zoom="11.313708"
     inkscape:cx="138.94648"
     inkscape:cy="66.954174"
     inkscape:window-width="1920"
     inkscape:window-height="1011"
     inkscape:window-x="-9"
     inkscape:window-y="30"
     inkscape:window-maximized="1"
     inkscape:current-layer="layer2" />
  <defs
     id="defs2" />
  <g
     inkscape:label="图层 1"
     inkscape:groupmode="layer"
     id="layer1"
     style="display:inline"
     sodipodi:insensitive="true">
    <text
       xml:space="preserve"
       style="font-style:normal;font-weight:normal;font-size:175.536px;line-height:1.25;font-family:sans-serif;fill:#000000;fill-opacity:1;stroke:none;stroke-width:4.38838"
       x="2.3197703"
       y="156.70367"
       id="text2280"><tspan
         sodipodi:role="line"
         id="tspan2278"
         x="2.3197703"
         y="156.70367"
         style="font-style:normal;font-variant:normal;font-weight:normal;font-stretch:normal;font-size:175.536px;font-family:'WenYue Juzhen';-inkscape-font-specification:'WenYue Juzhen';font-variant-ligatures:normal;font-variant-caps:normal;font-variant-numeric:normal;font-variant-east-asian:normal;stroke-width:4.38838">字</tspan></text>
  </g>
  <g
     inkscape:groupmode="layer"
     id="layer2"
     inkscape:label="图层 2"
     style="display:inline">
    <path
       style="font-variation-settings:normal;opacity:1;vector-effect:none;fill:#ffd42a;fill-opacity:0.609231;stroke:none;stroke-width:2.1;stroke-linecap:butt;stroke-linejoin:miter;stroke-miterlimit:4;stroke-dasharray:2.1, 4.2;stroke-dashoffset:0;stroke-opacity:1;-inkscape-stroke:none;stop-color:#000000;stop-opacity:1"
       d="m 101.46982,38.183767 c 0,0 0.92808,-12.374369 1.28164,-15.998291 0.35355,-3.623923 4.64037,-3.977476 4.72877,-5.656855 0.0884,-1.679378 -1.94454,-3.358757 -6.93848,-6.231378 C 95.547805,7.4246213 89.758368,3.5797281 83.615378,4.5606418 l -0.05288,1.0558559 c 0,0 7.919197,2.763483 8.750003,12.6335023 0.716731,8.514806 -0.25,21.0625 -0.25,21.0625 z"
       id="path3048"
       sodipodi:nodetypes="csssccscc" />
    <path
       style="font-variation-settings:normal;opacity:1;vector-effect:none;fill:#ffd42a;fill-opacity:0.609231;stroke:none;stroke-width:2.1;stroke-linecap:butt;stroke-linejoin:miter;stroke-miterlimit:4;stroke-dasharray:2.1, 4.2;stroke-dashoffset:0;stroke-opacity:1;-inkscape-stroke:none;stop-color:#000000;stop-opacity:1"
       d="M 26.808709,13.873699 C 32.280981,38.553078 30,50.875 23.875,59.000001 c -6.125,8.125 -10.3125,7.125 -11.6875,9.675299 -1.375,2.5503 1.083038,14.096438 3.3125,15.316947 1.8125,0.992245 6,-1.617246 12,-10.492246 C 33.5,64.625001 37.875,46 37.875,46 c 0,0 0.971161,-11.285882 -9.943052,-32.468941 z"
       id="path3753"
       sodipodi:nodetypes="cssssccc" />
    <path
       style="font-variation-settings:normal;opacity:1;vector-effect:none;fill:#ffd42a;fill-opacity:0.609231;stroke:none;stroke-width:2.1;stroke-linecap:butt;stroke-linejoin:miter;stroke-miterlimit:4;stroke-dasharray:2.1, 4.2;stroke-dashoffset:0;stroke-opacity:1;-inkscape-stroke:none;stop-color:#000000;stop-opacity:1"
       d="M 147,61.375001 C 166.625,44 172.92613,43.918544 173.30113,41.168544 c 0.375,-2.75 -13.56748,-20.880407 -16.55113,-20.543544 -3.875,0.4375 2.30565,9.150808 -35.875,13.125 -73.793127,7.681065 -86.25,8.5 -86.25,8.5 l -1.15533,6.556234 c 11.078058,1.221571 25.525567,-2.208978 72.41957,-6.556603 40.98314,-3.799618 46.76262,-5.848984 47.79826,-3.374631 1.91663,4.579217 -7.54603,15.636263 -8.25,21.687501 z"
       id="path4267"
       sodipodi:nodetypes="csssccsscc" />
    <path
       style="font-variation-settings:normal;opacity:1;vector-effect:none;fill:#ffd42a;fill-opacity:0.609231;stroke:none;stroke-width:2.1;stroke-linecap:butt;stroke-linejoin:miter;stroke-miterlimit:4;stroke-dasharray:2.1, 4.2;stroke-dashoffset:0;stroke-opacity:1;-inkscape-stroke:none;stop-color:#000000;stop-opacity:1"
       d="m 132.8606,55.090229 0.5625,3.1875 c 0,0 -78.887489,20.653066 -82.688188,20.741455 -3.800699,0.08839 -14.103304,-7.536678 -14.103304,-7.536678 l 0.288467,-1.510845 C 48.990848,67.83839 60.581929,68.160459 132.8606,55.090229 Z"
       id="path7541"
       sodipodi:nodetypes="ccsccc" />
    <path
       style="font-variation-settings:normal;opacity:1;vector-effect:none;fill:#ffd42a;fill-opacity:0.609231;stroke:none;stroke-width:2.1;stroke-linecap:butt;stroke-linejoin:miter;stroke-miterlimit:4;stroke-dasharray:2.1, 4.2;stroke-dashoffset:0;stroke-opacity:1;-inkscape-stroke:none;stop-color:#000000;stop-opacity:1"
       d="m 98.818174,91.039999 c 0,0 27.699016,-17.212981 33.090706,-19.953019 5.39169,-2.740039 10.13119,-1.525349 11.36863,-2.541816 0.60417,-0.496287 -0.61818,-3.668675 -4.81716,-9.457553 -4.55201,-6.275572 -8.61787,-9.435456 -8.61787,-9.435456 -3.78297,6.660547 -5.21241,11.806186 -8.14873,15.65167 -3.3252,4.354769 -9.83494,13.047242 -24.424212,23.253718 z"
       id="path9133"
       sodipodi:nodetypes="cssscscc" />
    <path
       style="font-variation-settings:normal;opacity:1;vector-effect:none;fill:#ffd42a;fill-opacity:0.609231;stroke:none;stroke-width:2.1;stroke-linecap:butt;stroke-linejoin:miter;stroke-miterlimit:4;stroke-dasharray:2.1, 4.2;stroke-dashoffset:0;stroke-opacity:1;-inkscape-stroke:none;stop-color:#000000;stop-opacity:1"
       d="m 85.293836,74.85957 c 0,0 13.110038,7.470607 16.625964,12.56065 8.91616,15.72725 8.03531,68.02221 3.08556,78.21955 -4.94975,10.19733 -10.076274,11.45781 -11.932429,10.96016 -1.856155,-0.49766 -5.745242,-6.0988 -9.015612,-8.66207 -3.222667,-2.52587 -31.201087,-19.7106 -31.201087,-19.7106 l 0.748161,-1.40035 c 22.185475,10.68612 37.461494,12.20333 41.173805,11.40784 3.71231,-0.7955 7.031982,-30.70052 3.216752,-54.07038 C 94.667409,83.781834 84.250001,76.343751 84.250001,76.343751 Z"
       id="path10322"
       sodipodi:nodetypes="ccsssccsscc" />
    <path
       style="font-variation-settings:normal;opacity:1;vector-effect:none;fill:#ffd42a;fill-opacity:0.609231;stroke:none;stroke-width:2.1;stroke-linecap:butt;stroke-linejoin:miter;stroke-miterlimit:4;stroke-dasharray:2.1, 4.2;stroke-dashoffset:0;stroke-opacity:1;-inkscape-stroke:none;stop-color:#000000;stop-opacity:1"
       d="m 3.6616117,120.06694 c 0,0 10.0896893,7.53217 13.4646893,7.90717 3.375,0.375 37.518936,-7.19958 92.822919,-13.47928 58.71777,-6.66733 64.8176,-3.5889 66.28815,-5.44505 1.47055,-1.85616 -8.21107,-16.367286 -12.47965,-16.121456 -4.86764,0.28033 2.53417,6.905574 -47.2101,13.116246 C 39.634695,115.64729 16.007558,116.89359 4.0751303,118.3078 Z"
       id="path13909"
       sodipodi:nodetypes="cssssscc" />
  </g>
</svg>
