<?xml version="1.0" encoding="UTF-8" standalone="no"?>
<!-- Created with Inkscape (http://www.inkscape.org/) -->

<svg
   width="180"
   height="180"
   viewBox="0 0 180 180"
   version="1.1"
   id="svg5"
   inkscape:version="1.2-alpha (0bd5040e63, 2022-02-05)"
   sodipodi:docname="山.svg"
   xmlns:inkscape="http://www.inkscape.org/namespaces/inkscape"
   xmlns:sodipodi="http://sodipodi.sourceforge.net/DTD/sodipodi-0.dtd"
   xmlns="http://www.w3.org/2000/svg"
   xmlns:svg="http://www.w3.org/2000/svg">
  <sodipodi:namedview
     id="namedview7"
     pagecolor="#505050"
     bordercolor="#ffffff"
     borderopacity="1"
     inkscape:pageshadow="0"
     inkscape:pageopacity="0"
     inkscape:pagecheckerboard="1"
     inkscape:blackoutopacity="0.0"
     inkscape:document-units="px"
     showgrid="false"
     inkscape:zoom="2.828427"
     inkscape:cx="42.779962"
     inkscape:cy="104.47503"
     inkscape:window-width="1920"
     inkscape:window-height="1011"
     inkscape:window-x="-9"
     inkscape:window-y="30"
     inkscape:window-maximized="1"
     inkscape:current-layer="layer2" />
  <defs
     id="defs2" />
  <g
     inkscape:label="图层 1"
     inkscape:groupmode="layer"
     id="layer1"
     style="display:inline"
     sodipodi:insensitive="true">
    <text
       xml:space="preserve"
       style="font-style:normal;font-weight:normal;font-size:175.536px;line-height:1.25;font-family:sans-serif;fill:#000000;fill-opacity:1;stroke:none;stroke-width:4.38838"
       x="2.3197703"
       y="156.70367"
       id="text2280"><tspan
         sodipodi:role="line"
         id="tspan2278"
         x="2.3197703"
         y="156.70367"
         style="font-style:normal;font-variant:normal;font-weight:normal;font-stretch:normal;font-size:175.536px;font-family:'WenYue Juzhen';-inkscape-font-specification:'WenYue Juzhen';font-variant-ligatures:normal;font-variant-caps:normal;font-variant-numeric:normal;font-variant-east-asian:normal;stroke-width:4.38838">山</tspan></text>
  </g>
  <g
     inkscape:groupmode="layer"
     id="layer2"
     inkscape:label="图层 2"
     style="display:inline">
    <path
       style="font-variation-settings:normal;opacity:1;vector-effect:none;fill:#ffd42a;fill-opacity:0.609231;stroke:none;stroke-width:2.1;stroke-linecap:butt;stroke-linejoin:miter;stroke-miterlimit:4;stroke-dasharray:2.1, 4.2;stroke-dashoffset:0;stroke-opacity:1;-inkscape-stroke:none;stop-color:#000000;stop-opacity:1"
       d="m 24.50502,53.222732 c 0,0 10.806126,7.146512 16.109428,10.19591 5.303301,3.049398 8.529475,5.435884 8.529475,7.733981 0,2.298097 -3.06733,4.157715 -2.740038,15.114408 1.051776,35.210159 2.563262,45.112069 2.740038,54.746399 0.176777,9.63433 -0.292893,15.72202 -3.115038,15.72202 -3.447146,0 -12.883253,-16.55153 -12.883253,-20.79417 0,-4.24264 5.214912,-5.3033 5.214912,-14.58408 0,-9.28077 -1.172504,-39.678469 -3.977476,-48.171645 -3.005204,-9.099459 -11.027097,-18.583 -11.027097,-18.583 z"
       id="path3161"
       sodipodi:nodetypes="csssssssscc" />
    <path
       style="font-variation-settings:normal;opacity:1;vector-effect:none;fill:#ffd42a;fill-opacity:0.609231;stroke:none;stroke-width:2.1;stroke-linecap:butt;stroke-linejoin:miter;stroke-miterlimit:4;stroke-dasharray:2.1, 4.2;stroke-dashoffset:0;stroke-opacity:1;-inkscape-stroke:none;stop-color:#000000;stop-opacity:1"
       d="m 79.461128,6.0937902 c 0,0 8.895514,1.6150428 15.766059,8.2687778 7.441623,7.206792 11.192393,11.270054 11.104003,13.391374 -0.0884,2.121321 -4.73482,2.119653 -4.81717,9.457554 -0.88388,78.754014 0.6683,88.121684 0.7513,96.254914 0.0884,8.66206 -3.270366,15.02602 -5.21491,15.37957 -1.944544,0.35356 -9.104001,-10.87176 -8.927224,-15.1144 0.176777,-4.24264 3.07678,-3.22782 3.126818,-11.23157 0.07322,-11.71231 -0.388163,-83.397489 -2.1875,-97.687509 C 87.690421,13.915656 78.625003,7.5000003 78.625003,7.5000003 Z"
       id="path10690"
       sodipodi:nodetypes="csssssssscc" />
    <path
       style="font-variation-settings:normal;opacity:1;vector-effect:none;fill:#ffd42a;fill-opacity:0.609231;stroke:none;stroke-width:2.1;stroke-linecap:butt;stroke-linejoin:miter;stroke-miterlimit:4;stroke-dasharray:2.1, 4.2;stroke-dashoffset:0;stroke-opacity:1;-inkscape-stroke:none;stop-color:#000000;stop-opacity:1"
       d="m 144.75001,54.375002 c 0,0 8.25,5.750001 13.875,10.875001 5.625,5.125 8.87413,7.526036 8.87413,9.875 0,2.348964 -4.24913,0.625 -5.99913,12.000001 -1.75,11.375 -6.625,48.875006 -8.75,62.750006 -2.125,13.875 -4.125,24.20673 -6.75,24.20673 -2.625,0 -8.25,-27.83173 -7,-32.83173 1.25,-5 4.74245,-0.50141 6.5,-9.875 3,-16 5.22615,-43.995796 5,-54.625007 -0.25,-11.75 -7.125,-21.000001 -7.125,-21.000001 z"
       id="path11598"
       sodipodi:nodetypes="csssssssscc" />
    <path
       style="font-variation-settings:normal;opacity:1;vector-effect:none;fill:#ffd42a;fill-opacity:0.609231;stroke:none;stroke-width:2.1;stroke-linecap:butt;stroke-linejoin:miter;stroke-miterlimit:4;stroke-dasharray:2.1, 4.2;stroke-dashoffset:0;stroke-opacity:1;-inkscape-stroke:none;stop-color:#000000;stop-opacity:1"
       d="m 145.13367,141.24459 c -79.144815,13.67982 -112.341592,25.27905 -115.700349,25.36745 -3.358757,0.0884 -16.756927,-9.87659 -16.756927,-9.87659 l 0.537665,-1.79067 c 54.12099,-6.04334 84.8604,-13.54042 132.120441,-17.67951 z"
       id="path14394"
       sodipodi:nodetypes="cscccc" />
  </g>
</svg>
