<?xml version="1.0" encoding="UTF-8" standalone="no"?>
<!-- Created with Inkscape (http://www.inkscape.org/) -->

<svg
   width="180"
   height="180"
   viewBox="0 0 180 180"
   version="1.1"
   id="svg5"
   inkscape:version="1.2-alpha (0bd5040e63, 2022-02-05)"
   sodipodi:docname="巘.svg"
   xmlns:inkscape="http://www.inkscape.org/namespaces/inkscape"
   xmlns:sodipodi="http://sodipodi.sourceforge.net/DTD/sodipodi-0.dtd"
   xmlns="http://www.w3.org/2000/svg"
   xmlns:svg="http://www.w3.org/2000/svg">
  <sodipodi:namedview
     id="namedview7"
     pagecolor="#505050"
     bordercolor="#ffffff"
     borderopacity="1"
     inkscape:pageshadow="0"
     inkscape:pageopacity="0"
     inkscape:pagecheckerboard="1"
     inkscape:blackoutopacity="0.0"
     inkscape:document-units="px"
     showgrid="false"
     inkscape:zoom="2.0000001"
     inkscape:cx="52.999998"
     inkscape:cy="126.24999"
     inkscape:window-width="1920"
     inkscape:window-height="1011"
     inkscape:window-x="-9"
     inkscape:window-y="30"
     inkscape:window-maximized="1"
     inkscape:current-layer="layer1" />
  <defs
     id="defs2" />
  <g
     inkscape:label="图层 1"
     inkscape:groupmode="layer"
     id="layer1"
     style="display:inline"
     sodipodi:insensitive="true">
    <text
       xml:space="preserve"
       style="font-style:normal;font-weight:normal;font-size:175.536px;line-height:1.25;font-family:sans-serif;fill:#000000;fill-opacity:1;stroke:none;stroke-width:4.38838"
       x="2.3197703"
       y="156.70367"
       id="text2280"><tspan
         sodipodi:role="line"
         id="tspan2278"
         x="2.3197703"
         y="156.70367"
         style="font-style:normal;font-variant:normal;font-weight:normal;font-stretch:normal;font-size:175.536px;font-family:'WenYue Juzhen';-inkscape-font-specification:'WenYue Juzhen';font-variant-ligatures:normal;font-variant-caps:normal;font-variant-numeric:normal;font-variant-east-asian:normal;stroke-width:4.38838">巘</tspan></text>
  </g>
  <g
     inkscape:groupmode="layer"
     id="layer2"
     inkscape:label="图层 2"
     style="display:inline">
    <path
       style="font-variation-settings:normal;opacity:1;vector-effect:none;fill:#ffd42a;fill-opacity:0.609231;stroke:none;stroke-width:2.1;stroke-linecap:butt;stroke-linejoin:miter;stroke-miterlimit:4;stroke-dasharray:2.1, 4.2;stroke-dashoffset:0;stroke-opacity:1;-inkscape-stroke:none;stop-color:#000000;stop-opacity:1"
       d="M 22.125,115.60936 C 22.125,115.60936 21.75,88 21.75,76 c 0,-12 3.0625,-12.625 3,-14.1875 -0.0625,-1.5625 -3.054917,-3.52968 -4.867417,-4.46718 -1.8125,-0.9375 -9.080806,-6.6875 -9.080806,-6.6875 L 9.7890095,51.397824 C 11.25,55.625 15.556349,57.629203 16.351844,70.533901 17.147339,83.4386 17.500893,115.60936 17.500893,115.60936 Z"
       id="path6481"
       sodipodi:nodetypes="csssccscc" />
    <path
       style="font-variation-settings:normal;opacity:1;vector-effect:none;fill:#ffd42a;fill-opacity:0.609231;stroke:none;stroke-width:2.1;stroke-linecap:butt;stroke-linejoin:miter;stroke-miterlimit:4;stroke-dasharray:2.1, 4.2;stroke-dashoffset:0;stroke-opacity:1;-inkscape-stroke:none;stop-color:#000000;stop-opacity:1"
       d="m 37,111.83331 c 0,0 3.120558,-64.535975 3.820083,-70.043558 C 41.49751,36.456147 45.375,36 45.3125,34.9375 45.25,33.875 43.625,32.1875 41.1875,30.625 38.75,29.0625 31.5,22 31.5,22 l -1.00602,0.627417 c 0,0 2.838127,10.399303 3.088127,19.286797 C 33.832107,50.801708 32.625,112.625 32.625,112.625 Z"
       id="path8823"
       sodipodi:nodetypes="csssccscc" />
    <path
       style="font-variation-settings:normal;opacity:1;vector-effect:none;fill:#ffd42a;fill-opacity:0.609231;stroke:none;stroke-width:2.1;stroke-linecap:butt;stroke-linejoin:miter;stroke-miterlimit:4;stroke-dasharray:2.1, 4.2;stroke-dashoffset:0;stroke-opacity:1;-inkscape-stroke:none;stop-color:#000000;stop-opacity:1"
       d="m 46.5625,56.6875 c 0,0 7.5,6.1875 8.875,7.125 1.375,0.9375 3.125,2.375 3,3.5 -0.125,1.125 -3.49081,2.600692 -3.728553,5.420495 C 53.68934,84.826272 52.191942,110.6823 51,117.75 c -0.687002,4.07363 -2,7.46875 -3.5625,7.46875 -1.5625,0 -3.5,-11.90625 -3.4375,-14.15625 0.0625,-2.25 2.8125,-3.4375 3.1875,-7.9375 0.375,-4.5 2.40533,-22.559136 1.463388,-32.672335 C 48.063643,64.147683 45.422622,57.28125 45.422622,57.28125 Z"
       id="path9127"
       sodipodi:nodetypes="csssssssscc" />
    <path
       style="font-variation-settings:normal;opacity:1;vector-effect:none;fill:#ffd42a;fill-opacity:0.609231;stroke:none;stroke-width:2.1;stroke-linecap:butt;stroke-linejoin:miter;stroke-miterlimit:4;stroke-dasharray:2.1, 4.2;stroke-dashoffset:0;stroke-opacity:1;-inkscape-stroke:none;stop-color:#000000;stop-opacity:1"
       d="m 49.369638,106.95358 0.8125,2.375 c 0,0 -31.758502,12.49778 -35.696002,13.12278 -3.9375,0.625 -10.6143581,-5.39017 -10.6143581,-5.39017 l 0.1550303,-1.142 c 7.3944108,-1.09753 8.0673498,0.1047 45.3428298,-8.96561 z"
       id="path9549"
       sodipodi:nodetypes="ccsccc" />
    <path
       style="font-variation-settings:normal;opacity:1;vector-effect:none;fill:#ffd42a;fill-opacity:0.609231;stroke:none;stroke-width:2.1;stroke-linecap:butt;stroke-linejoin:miter;stroke-miterlimit:4;stroke-dasharray:2.1, 4.2;stroke-dashoffset:0;stroke-opacity:1;-inkscape-stroke:none;stop-color:#000000;stop-opacity:1"
       d="m 95.640634,40.529198 c 0,0 -0.02589,-17.065232 0.327665,-22.280145 0.353553,-5.214912 3.247622,-4.416277 3.247622,-5.432743 0,-1.016466 -0.928078,-2.298096 -4.198448,-4.2205432 C 92.986396,7.4018227 88.543028,4.6624854 84.455066,4.6895022 l -0.309359,1.0557404 c 0,0 4.822057,3.106236 5.391689,7.4688154 C 90.125,17.714281 90,41.18897 90,41.18897 Z"
       id="path11778"
       sodipodi:nodetypes="csssccscc" />
    <path
       style="font-variation-settings:normal;opacity:1;vector-effect:none;fill:#ffd42a;fill-opacity:0.609231;stroke:none;stroke-width:2.1;stroke-linecap:butt;stroke-linejoin:miter;stroke-miterlimit:4;stroke-dasharray:2.1, 4.2;stroke-dashoffset:0;stroke-opacity:1;-inkscape-stroke:none;stop-color:#000000;stop-opacity:1"
       d="m 94.523667,25.674556 c 21.978393,-5.241498 20.236673,-7.815641 22.685283,-8.018306 1.34062,-0.11096 6.47855,5.125 6.3223,6.125 -0.15625,1 -2.22523,0.638043 -15.1875,3.09375 C 97.447811,28.93924 94.875,29.46875 94.875,29.46875 Z"
       id="path21470"
       sodipodi:nodetypes="cssscc" />
    <path
       style="font-variation-settings:normal;opacity:1;vector-effect:none;fill:#ffd42a;fill-opacity:0.609231;stroke:none;stroke-width:2.1;stroke-linecap:butt;stroke-linejoin:miter;stroke-miterlimit:4;stroke-dasharray:2.1, 4.2;stroke-dashoffset:0;stroke-opacity:1;-inkscape-stroke:none;stop-color:#000000;stop-opacity:1"
       d="M 27.709748,172.9955 C 71.550368,131.09683 64.916205,59.762345 64.346717,52.325902 63.57711,42.276281 61.236136,38.768306 58.40625,29.9375 l 1.15625,-0.46875 c 0,0 7.395797,9.865169 9.120558,11.72022 C 71.625492,44.353679 73.625,45.5625 73.5625,46.4375 73.5,47.3125 70.875,47.25 71.25,52.875 71.625,58.5 77.994892,136.0533 28.659922,174.10355 Z"
       id="path23630"
       sodipodi:nodetypes="csccssscc" />
    <path
       style="font-variation-settings:normal;opacity:1;vector-effect:none;fill:#ffd42a;fill-opacity:0.609231;stroke:none;stroke-width:2.1;stroke-linecap:butt;stroke-linejoin:miter;stroke-miterlimit:4;stroke-dasharray:2.1, 4.2;stroke-dashoffset:0;stroke-opacity:1;-inkscape-stroke:none;stop-color:#000000;stop-opacity:1"
       d="m 117.15875,49.099727 c 0,0 2.75038,-1.768724 5.93405,-3.844892 3.59175,-2.342292 5.24707,-2.253904 5.33547,-3.844894 0.0884,-1.590991 -5.31151,-9.524735 -6.62913,-9.678524 -1.76332,-0.20581 -0.28082,2.267778 -24.107491,6.258568 C 69.925101,42.640675 66.983202,42.0943 66.983202,42.0943 L 67.9375,48.125 c 0,0 11.766868,-2.115487 27.625,-5 15.79538,-2.873098 21.54512,-5.114441 22.5,-3.5625 1.42364,2.313801 -0.56204,4.77987 -1.47365,9.142846 z"
       id="path29212"
       sodipodi:nodetypes="cssssccsscc" />
    <path
       style="font-variation-settings:normal;opacity:1;vector-effect:none;fill:#ffd42a;fill-opacity:0.609231;stroke:none;stroke-width:2.1;stroke-linecap:butt;stroke-linejoin:miter;stroke-miterlimit:4;stroke-dasharray:2.1, 4.2;stroke-dashoffset:0;stroke-opacity:1;-inkscape-stroke:none;stop-color:#000000;stop-opacity:1"
       d="m 76.257047,56.082407 c 0,0 1.237437,2.452776 3.027301,3.248271 2.38281,1.059027 3.574451,-0.763348 18.421924,-3.204077 16.668248,-2.74004 17.905688,-2.209708 18.303438,-3.226174 0.39775,-1.016466 -7.15946,-5.833632 -9.54594,-5.39169 -2.38649,0.441942 -1.05624,2.435987 -12.02082,4.949747 -15.555768,3.566345 -17.263837,2.751413 -17.263837,2.751413 z"
       id="path35615"
       sodipodi:nodetypes="cssssscc" />
    <path
       style="font-variation-settings:normal;opacity:1;vector-effect:none;fill:#ffd42a;fill-opacity:0.609231;stroke:none;stroke-width:2.1;stroke-linecap:butt;stroke-linejoin:miter;stroke-miterlimit:4;stroke-dasharray:2.1, 4.2;stroke-dashoffset:0;stroke-opacity:1;-inkscape-stroke:none;stop-color:#000000;stop-opacity:1"
       d="m 77.586818,79.739928 c 0,0 3.663182,2.885072 6.788182,3.072572 3.125,0.1875 9.606475,-2.439621 18.2125,-3.815641 12.09803,-1.934359 16.05894,-1.489276 16.37144,-2.364276 0.3125,-0.875 -3.39364,-5.634509 -8.45986,-5.242418 -2.60713,0.201774 -1.37367,2.050405 -14.80008,4.708947 -11.085917,2.195105 -15.525364,1.953125 -17.712864,2.421875 z"
       id="path40722"
       sodipodi:nodetypes="cssssscc" />
    <path
       style="font-variation-settings:normal;opacity:1;vector-effect:none;fill:#ffd42a;fill-opacity:0.609231;stroke:none;stroke-width:2.1;stroke-linecap:butt;stroke-linejoin:miter;stroke-miterlimit:4;stroke-dasharray:2.1, 4.2;stroke-dashoffset:0;stroke-opacity:1;-inkscape-stroke:none;stop-color:#000000;stop-opacity:1"
       d="m 85.957668,43.266096 c 0,0 1.761988,2.563963 2.032932,4.772971 0.577665,4.709709 1.411344,14.71666 2.0094,16.484427 0.598056,1.767767 2.314812,3.156092 5.091998,3.200286 2.777187,0.04419 6.775572,-0.371859 12.962762,-0.769607 6.18718,-0.397747 10.76595,-0.298636 11.14116,-1.242798 0.34454,-0.866996 -3.54827,-5.578269 -5.97895,-5.534075 -2.43068,0.04419 -3.49013,2.883572 -9.22808,3.594893 -6.06045,0.751301 -8.329904,0.6779 -9.175651,0.12879 -1.290703,-0.838001 -1.298367,-11.720599 -1.386755,-16.420811 -0.05453,-2.899885 0.486136,-5.407318 0.486136,-5.407318 z"
       id="path43783"
       sodipodi:nodetypes="cssssssssscc" />
    <path
       style="font-variation-settings:normal;opacity:1;vector-effect:none;fill:#ffd42a;fill-opacity:0.609231;stroke:none;stroke-width:2.1;stroke-linecap:butt;stroke-linejoin:miter;stroke-miterlimit:4;stroke-dasharray:2.1, 4.2;stroke-dashoffset:0;stroke-opacity:1;-inkscape-stroke:none;stop-color:#000000;stop-opacity:1"
       d="m 77.493068,83.243518 c 0,0 1.080999,2.772824 1.463616,13.419863 0.384404,10.696789 -1.369866,8.274279 -1.369866,10.283919 0,2.00964 3.836697,6.15941 5.851782,5.88043 0.837084,-0.11589 1.029447,-4.70928 0.891466,-7.63488 -0.156206,-3.31202 -0.545085,-6.975217 -1.455204,-12.044911 0,0 -2.712254,-7.11096 -4.165038,-10.326064 z"
       id="path44591"
       sodipodi:nodetypes="cssssscc" />
    <path
       style="font-variation-settings:normal;opacity:1;vector-effect:none;fill:#ffd42a;fill-opacity:0.609231;stroke:none;stroke-width:2.1;stroke-linecap:butt;stroke-linejoin:miter;stroke-miterlimit:4;stroke-dasharray:2.1, 4.2;stroke-dashoffset:0;stroke-opacity:1;-inkscape-stroke:none;stop-color:#000000;stop-opacity:1"
       d="m 109.33104,99.291365 c 0,0 -0.47321,-4.194005 0.1925,-7.383568 0.68139,-3.262979 4.93901,-3.298478 5.02741,-4.933663 0.0884,-1.635184 -5.52427,-5.391691 -7.46882,-5.303301 -1.94454,0.08839 -1.02201,2.560518 -11.585152,6.047019 C 86.114211,90.814754 81.46875,91.5625 81.46875,91.5625 l 0.511442,3.057227 c 3.476556,-0.559685 7.799553,-1.183815 13.143976,-2.503903 5.528922,-1.365658 7.583102,-2.611394 8.997312,-2.125258 C 104.99416,90.29055 105,99.93153 105,99.93153 Z"
       id="path45914"
       sodipodi:nodetypes="cssssccsscc" />
    <path
       style="font-variation-settings:normal;opacity:1;vector-effect:none;fill:#ffd42a;fill-opacity:0.609231;stroke:none;stroke-width:2.1;stroke-linecap:butt;stroke-linejoin:miter;stroke-miterlimit:4;stroke-dasharray:2.1, 4.2;stroke-dashoffset:0;stroke-opacity:1;-inkscape-stroke:none;stop-color:#000000;stop-opacity:1"
       d="m 83.03125,102.03439 c 0,0 4.707933,-0.27789 12.25,-1.84689 9.80489,-2.039743 8.6875,-3.612056 10.84375,-3.893306 2.15625,-0.28125 10.55753,3.572926 10.4375,4.893306 -0.0937,1.03125 -3.56694,0.28033 -15.90089,1.94508 C 87.923074,104.85194 83.0625,105.5 83.0625,105.5 Z"
       id="path48376"
       sodipodi:nodetypes="csssscc" />
    <path
       style="font-variation-settings:normal;opacity:1;vector-effect:none;fill:#ffd42a;fill-opacity:0.609231;stroke:none;stroke-width:2.1;stroke-linecap:butt;stroke-linejoin:miter;stroke-miterlimit:4;stroke-dasharray:2.1, 4.2;stroke-dashoffset:0;stroke-opacity:1;-inkscape-stroke:none;stop-color:#000000;stop-opacity:1"
       d="m 72.75,120.3125 c 0,0 -0.375,-3.9375 -8.875,-8.6875 l -0.705806,0.73026 c 0,0 4.48269,3.88307 5.06661,11.03487 0.834173,10.21688 0.972272,20.98042 0.972272,28.94718 0,5.02927 -3.348034,6.21622 -3.171257,9.57498 0.176777,3.35876 6.5386,12.00187 7.527106,11.56626 1.345731,-0.59303 1.121959,-3.10699 0.859063,-11.19755 C 73.62307,137.66371 72.75,120.3125 72.75,120.3125 Z"
       id="path50417"
       sodipodi:nodetypes="cccsssssc" />
    <path
       style="font-variation-settings:normal;opacity:1;vector-effect:none;fill:#ffd42a;fill-opacity:0.609231;stroke:none;stroke-width:2.1;stroke-linecap:butt;stroke-linejoin:miter;stroke-miterlimit:4;stroke-dasharray:2.1, 4.2;stroke-dashoffset:0;stroke-opacity:1;-inkscape-stroke:none;stop-color:#000000;stop-opacity:1"
       d="m 98.221552,159.38629 c 0,0 5.621698,5.35665 8.153828,9.08504 1.45526,2.14277 2.16551,6.8203 3.84489,6.8203 1.67938,0 2.65019,-5.94895 3.42126,-10.97769 2.03293,-13.25826 4.90333,-36.92672 5.43366,-43.2023 0.53033,-6.27557 4.06051,-5.77557 3.97211,-7.63172 -0.0884,-1.85616 -6.94958,-7.62762 -8.49532,-7.59382 -2.85861,0.0625 -0.0235,3.17818 -21.023783,8.0389 -18.248579,4.22381 -22.640742,4.64797 -22.640742,4.64797 l 0.01879,2.74803 c 4.149323,1.66832 10.531255,-0.008 23.781255,-2.8835 13.25,-2.875 17.1875,-3.9375 17.9375,-3.3125 0.75,0.625 0.60047,7.7348 -1.60924,26.29636 -2.2097,18.56155 -2.85794,19.61194 -3.92439,19.77532 -2.50935,0.38443 -3.39779,-1.03081 -8.303337,-2.63067 z"
       id="path52247"
       sodipodi:nodetypes="csssssssccsssscc" />
    <path
       style="font-variation-settings:normal;opacity:1;vector-effect:none;fill:#ffd42a;fill-opacity:0.609231;stroke:none;stroke-width:2.1;stroke-linecap:butt;stroke-linejoin:miter;stroke-miterlimit:4;stroke-dasharray:2.1, 4.2;stroke-dashoffset:0;stroke-opacity:1;-inkscape-stroke:none;stop-color:#000000;stop-opacity:1"
       d="m 85.536253,134.3048 c 0,0 -0.526862,-5.00444 -3.433632,-14.80375 l 0.959879,-0.44194 c 5.95641,6.54889 6.934052,9.04686 6.9375,9.84235 0.0035,0.80141 -3.668252,5.49172 -3.668252,5.49172 z"
       id="path56190"
       sodipodi:nodetypes="cccscc" />
    <path
       style="font-variation-settings:normal;opacity:1;vector-effect:none;fill:#ffd42a;fill-opacity:0.609231;stroke:none;stroke-width:2.1;stroke-linecap:butt;stroke-linejoin:miter;stroke-miterlimit:4;stroke-dasharray:2.1, 4.2;stroke-dashoffset:0;stroke-opacity:1;-inkscape-stroke:none;stop-color:#000000;stop-opacity:1"
       d="m 96.874423,133.62722 c 2.78125,-5.1875 5.926127,-8.65321 5.638857,-10.2663 -0.28726,-1.61309 -4.901944,-6.60305 -4.901944,-6.60305 l -0.908211,0.53901 c 0,0 1.197694,3.13355 -1.376292,16.08114 z"
       id="path61646"
       sodipodi:nodetypes="cscccc" />
    <path
       style="font-variation-settings:normal;opacity:1;vector-effect:none;fill:#ffd42a;fill-opacity:0.609231;stroke:none;stroke-width:2.1;stroke-linecap:butt;stroke-linejoin:miter;stroke-miterlimit:4;stroke-dasharray:2.1, 4.2;stroke-dashoffset:0;stroke-opacity:1;-inkscape-stroke:none;stop-color:#000000;stop-opacity:1"
       d="m 74.98933,136.47713 c 0,0 5.012279,2.55774 6.062785,2.51355 1.050506,-0.0442 4.266516,-1.53758 14.274718,-2.91681 12.506947,-1.72358 13.330557,-1.34414 13.772497,-1.87447 0.44194,-0.53033 -3.17819,-4.53748 -4.68079,-4.4049 -1.5026,0.13258 0.49843,0.6667 -10.240755,2.61124 -10.739185,1.94455 -18.959301,2.96102 -18.959301,2.96102 z"
       id="path64037"
       sodipodi:nodetypes="cssssscc" />
    <path
       style="font-variation-settings:normal;opacity:1;vector-effect:none;fill:#ffd42a;fill-opacity:0.609231;stroke:none;stroke-width:2.1;stroke-linecap:butt;stroke-linejoin:miter;stroke-miterlimit:4;stroke-dasharray:2.1, 4.2;stroke-dashoffset:0;stroke-opacity:1;-inkscape-stroke:none;stop-color:#000000;stop-opacity:1"
       d="m 73.563925,149.15625 c 0,0 1.994784,2.60447 4.901034,2.97947 2.90625,0.375 3.121455,-0.58549 14.285041,-2.19822 13.92754,-2.01202 15.53125,-0.96875 15.90625,-1.73438 0.375,-0.76562 -4.5,-5.67465 -5.28125,-5.6434 -0.78125,0.0312 -2.3561,2.06097 -10.536176,3.53006 -13.419946,2.41015 -18.910161,2.10111 -18.910161,2.10111 z"
       id="path67218"
       sodipodi:nodetypes="cssscscc" />
    <path
       style="font-variation-settings:normal;opacity:1;vector-effect:none;fill:#ffd42a;fill-opacity:0.609231;stroke:none;stroke-width:2.1;stroke-linecap:butt;stroke-linejoin:miter;stroke-miterlimit:4;stroke-dasharray:2.1, 4.2;stroke-dashoffset:0;stroke-opacity:1;-inkscape-stroke:none;stop-color:#000000;stop-opacity:1"
       d="m 88.125,135.625 c 0,0 0.480905,16.81257 0.132583,21.78577 -0.345971,4.93964 -2.942862,3.67762 -2.880362,5.74012 0.0625,2.0625 3.858209,8.73481 4.985142,8.7058 1.214103,-0.0312 2.608273,-2.96953 2.697916,-7.70266 0.07426,-3.92101 -0.4375,-4.87163 -0.122779,-29.40345 z"
       id="path68176"
       sodipodi:nodetypes="csssscc" />
    <path
       style="font-variation-settings:normal;opacity:1;vector-effect:none;fill:#ffd42a;fill-opacity:0.609231;stroke:none;stroke-width:2.1;stroke-linecap:butt;stroke-linejoin:miter;stroke-miterlimit:4;stroke-dasharray:2.1, 4.2;stroke-dashoffset:0;stroke-opacity:1;-inkscape-stroke:none;stop-color:#000000;stop-opacity:1"
       d="m 112.54046,88.101085 c 0,0 5.43232,2.961415 10.32093,3.211415 4.88861,0.25 9.90694,-1.820878 27.76361,-4.6875 18.6875,-3 24.41224,-1.544194 25.29987,-2.606694 0.88763,-1.0625 -6.23737,-10.595971 -8.36237,-10.330806 -2.10865,0.263124 -0.45335,3.280932 -17.8125,6.6875 -19.16649,3.761241 -33.56674,7.544876 -36.75,6.53125 z"
       id="path71278"
       sodipodi:nodetypes="cssssscc" />
    <path
       style="font-variation-settings:normal;opacity:1;vector-effect:none;fill:#ffd42a;fill-opacity:0.609231;stroke:none;stroke-width:2.1;stroke-linecap:butt;stroke-linejoin:miter;stroke-miterlimit:4;stroke-dasharray:2.1, 4.2;stroke-dashoffset:0;stroke-opacity:1;-inkscape-stroke:none;stop-color:#000000;stop-opacity:1"
       d="m 115.25841,168.73336 c 33.80724,-28.6049 30.37158,-129.399468 33.49918,-140.272312 1.52455,-5.29998 5.87782,-6.496544 5.92202,-7.689786 0.0442,-1.193243 -1.60172,-2.794957 -5.66758,-5.181442 C 144.94617,13.203335 138.26259,6.176921 134.10834,5.160455 L 133.375,6.375 c 1.93776,1.3441964 7.42678,5.951195 6.875,20.25 -0.59585,15.440913 -0.83039,108.25631 -26.14065,140.74939 z"
       id="path73785"
       sodipodi:nodetypes="csssccscc" />
    <path
       style="font-variation-settings:normal;opacity:1;vector-effect:none;fill:#ffd42a;fill-opacity:0.609231;stroke:none;stroke-width:2.1;stroke-linecap:butt;stroke-linejoin:miter;stroke-miterlimit:4;stroke-dasharray:2.1, 4.2;stroke-dashoffset:0;stroke-opacity:1;-inkscape-stroke:none;stop-color:#000000;stop-opacity:1"
       d="m 137.5625,102 c 12.125,51.20367 16.84219,63.80734 17.625,65 0.95698,1.45802 19.45201,0.006 19.45201,0.006 l 0.13194,-2.6029 c 0,0 -5.90158,-2.16417 -8.83839,-5.27145 -6.88909,-7.28897 -14.46431,-24.47671 -25.58931,-58.36649 z"
       id="path78751"
       sodipodi:nodetypes="csccscc" />
    <path
       style="font-variation-settings:normal;opacity:1;vector-effect:none;fill:#ffd42a;fill-opacity:0.609231;stroke:none;stroke-width:2.1;stroke-linecap:butt;stroke-linejoin:miter;stroke-miterlimit:4;stroke-dasharray:2.1, 4.2;stroke-dashoffset:0;stroke-opacity:1;-inkscape-stroke:none;stop-color:#000000;stop-opacity:1"
       d="m 152.67012,37.107481 c 10.51821,14.003417 15.80834,29.368368 15.80834,29.368368 l 1.31443,0.05201 c 0,0 4.75265,-10.651255 3.98304,-12.906053 -0.86018,-2.52014 -19.99315,-17.53569 -19.99315,-17.53569 z"
       id="path79482"
       sodipodi:nodetypes="cccscc" />
  </g>
</svg>
