<?xml version="1.0" encoding="UTF-8" standalone="no"?>
<!-- Created with Inkscape (http://www.inkscape.org/) -->

<svg
   width="180"
   height="180"
   viewBox="0 0 180 180"
   version="1.1"
   id="svg5"
   inkscape:version="1.2-alpha (0bd5040e63, 2022-02-05)"
   sodipodi:docname="攷.svg"
   xmlns:inkscape="http://www.inkscape.org/namespaces/inkscape"
   xmlns:sodipodi="http://sodipodi.sourceforge.net/DTD/sodipodi-0.dtd"
   xmlns="http://www.w3.org/2000/svg"
   xmlns:svg="http://www.w3.org/2000/svg">
  <sodipodi:namedview
     id="namedview7"
     pagecolor="#505050"
     bordercolor="#ffffff"
     borderopacity="1"
     inkscape:pageshadow="0"
     inkscape:pageopacity="0"
     inkscape:pagecheckerboard="1"
     inkscape:blackoutopacity="0.0"
     inkscape:document-units="px"
     showgrid="false"
     inkscape:zoom="7.9999996"
     inkscape:cx="62.375003"
     inkscape:cy="152.81251"
     inkscape:window-width="1920"
     inkscape:window-height="1011"
     inkscape:window-x="-9"
     inkscape:window-y="30"
     inkscape:window-maximized="1"
     inkscape:current-layer="layer2" />
  <defs
     id="defs2" />
  <g
     inkscape:label="图层 1"
     inkscape:groupmode="layer"
     id="layer1"
     style="display:inline"
     sodipodi:insensitive="true">
    <text
       xml:space="preserve"
       style="font-style:normal;font-weight:normal;font-size:175.536px;line-height:1.25;font-family:sans-serif;fill:#000000;fill-opacity:1;stroke:none;stroke-width:4.38838"
       x="2.3197703"
       y="156.70367"
       id="text2280"><tspan
         sodipodi:role="line"
         id="tspan2278"
         x="2.3197703"
         y="156.70367"
         style="font-style:normal;font-variant:normal;font-weight:normal;font-stretch:normal;font-size:175.536px;font-family:'WenYue Juzhen';-inkscape-font-specification:'WenYue Juzhen';font-variant-ligatures:normal;font-variant-caps:normal;font-variant-numeric:normal;font-variant-east-asian:normal;stroke-width:4.38838">攷</tspan></text>
  </g>
  <g
     inkscape:groupmode="layer"
     id="layer2"
     inkscape:label="图层 2"
     style="display:inline"
     transform="translate(-183.75001)">
    <path
       style="font-variation-settings:normal;opacity:1;vector-effect:none;fill:#ffd42a;fill-opacity:0.609231;stroke:none;stroke-width:2.1;stroke-linecap:butt;stroke-linejoin:miter;stroke-miterlimit:4;stroke-dasharray:2.1, 4.2;stroke-dashoffset:0;stroke-opacity:1;-inkscape-stroke:none;stop-color:#000000;stop-opacity:1"
       d="m 186.27969,47.672662 c 0,0 8.84532,6.92109 12.34532,6.98359 3.5,0.0625 5.625,-3.53125 34.625,-9.65625 29,-6.125 38.75,-5.875 39.40625,-7.4375 0.65625,-1.5625 -10.78125,-11.093751 -13.46875,-10.750001 -2.6875,0.34375 1.81082,3.365195 -27.3125,10.625001 -23.79419,5.93137 -24.54975,5.17708 -45.05714,8.570542 z"
       id="path6072"
       sodipodi:nodetypes="cssssscc" />
    <path
       style="font-variation-settings:normal;opacity:1;vector-effect:none;fill:#ffd42a;fill-opacity:0.609231;stroke:none;stroke-width:2.1;stroke-linecap:butt;stroke-linejoin:miter;stroke-miterlimit:4;stroke-dasharray:2.1, 4.2;stroke-dashoffset:0;stroke-opacity:1;-inkscape-stroke:none;stop-color:#000000;stop-opacity:1"
       d="m 220.51956,44.989671 c 0,0 1.95073,3.019595 1.76777,9.667383 -0.26517,9.63433 -3.71231,28.734478 -5.12652,35.342946 -1.41422,6.608468 -6.36396,6.387497 -7.07107,10.01142 -0.7071,3.62392 4.59619,14.09794 6.71751,14.53988 2.12132,0.44195 4.86136,-8.3085 6.62913,-15.998288 1.72055,-7.484402 5.92202,-32.792078 7.33623,-38.006991 1.41422,-5.214913 4.81403,-5.848796 5.25597,-8.235282 0.44194,-2.386485 -8.10584,-9.836995 -8.10584,-9.836995 z"
       id="path7624"
       sodipodi:nodetypes="cssssssscc" />
    <path
       style="font-variation-settings:normal;opacity:1;vector-effect:none;fill:#ffd42a;fill-opacity:0.609231;stroke:none;stroke-width:2.1;stroke-linecap:butt;stroke-linejoin:miter;stroke-miterlimit:4;stroke-dasharray:2.1, 4.2;stroke-dashoffset:0;stroke-opacity:1;-inkscape-stroke:none;stop-color:#000000;stop-opacity:1"
       d="m 208.40848,151.09154 c 0,0 9.80901,7.61243 15.2487,14.35983 3.41287,4.23333 5.04907,8.6644 7.41735,9.21339 2.09153,0.48484 3.72196,-1.09532 7.80048,-11.41475 12.02951,-30.43695 14.31098,-41.37627 20.4375,-72.062506 1.17886,-5.904592 6.5,-4.125 6.4375,-5.9375 -0.0625,-1.8125 -8.6875,-12.500001 -10.25,-12.500001 -1.5625,0 -2.875,4.0625 -15.125,8.937501 -11.51673,4.583188 -17.33977,6.4375 -17.33977,6.4375 l -0.26177,6.185367 c 4.552,0.795495 5.56846,0.04419 14.00955,-3.049398 8.44109,-3.093592 10.03208,-3.712311 11.71146,-2.563262 1.67937,1.149048 2.25553,10.677293 -4.61947,33.677299 -6.875,23 -12.5,37.75 -15.5,37.5625 -3,-0.1875 -7.03125,-3.53125 -19.09375,-10.03125 z"
       id="path8534"
       sodipodi:nodetypes="csssssssccsssscc" />
    <path
       style="font-variation-settings:normal;opacity:1;vector-effect:none;fill:#ffd42a;fill-opacity:0.609231;stroke:none;stroke-width:2.1;stroke-linecap:butt;stroke-linejoin:miter;stroke-miterlimit:4;stroke-dasharray:2.1, 4.2;stroke-dashoffset:0;stroke-opacity:1;-inkscape-stroke:none;stop-color:#000000;stop-opacity:1"
       d="m 266.37306,115.53965 c 20.47272,-32.688781 31.64793,-80.403979 34.65313,-87.033106 2.04271,-4.505983 5.19791,-4.431441 5.59565,-5.934043 0.39775,-1.502602 -1.42623,-3.082869 -4.78499,-6.353238 -3.35876,-3.270369 -9.98183,-12.1743855 -9.98183,-12.1743855 l -1.41752,0.4690887 c 0,0 1.09631,7.7061658 -1.43749,24.8610348 -2.3081,15.626796 -10.31131,51.654255 -23.8971,85.304379 z"
       id="path10216"
       sodipodi:nodetypes="csssccscc" />
    <path
       style="font-variation-settings:normal;opacity:1;vector-effect:none;fill:#ffd42a;fill-opacity:0.609231;stroke:none;stroke-width:2.1;stroke-linecap:butt;stroke-linejoin:miter;stroke-miterlimit:4;stroke-dasharray:2.1, 4.2;stroke-dashoffset:0;stroke-opacity:1;-inkscape-stroke:none;stop-color:#000000;stop-opacity:1"
       d="m 282.87501,75.187503 c 8.625,4.875001 16.32633,-0.02475 36.08526,-4.422335 25.23826,-5.617076 33.14958,-4.68658 33.39958,-6.43658 0.25,-1.75 -10.73483,-11.516086 -13.98483,-11.203586 -3.25,0.3125 -1,3.437501 -23.3125,9.687501 -19.94001,5.585437 -25.37501,7.125 -30.37501,7.25 z"
       id="path11594"
       sodipodi:nodetypes="csssscc" />
    <path
       style="font-variation-settings:normal;opacity:1;vector-effect:none;fill:#ffd42a;fill-opacity:0.609231;stroke:none;stroke-width:2.1;stroke-linecap:butt;stroke-linejoin:miter;stroke-miterlimit:4;stroke-dasharray:2.1, 4.2;stroke-dashoffset:0;stroke-opacity:1;-inkscape-stroke:none;stop-color:#000000;stop-opacity:1"
       d="m 246.87002,175.48603 c 65.99836,-24.97876 71.849,-83.29698 73.88193,-89.660941 1.47709,-4.62393 6.43557,-3.887585 6.93557,-6.012585 0.5,-2.125001 -8.72043,-12.439341 -8.72043,-12.439341 l -6.43525,1.746528 c 0,0 0.70711,6.69686 -0.35354,13.788583 -1.06066,7.091722 -8.59327,63.827116 -66.01537,90.822176 z"
       id="path12699"
       sodipodi:nodetypes="cssccscc" />
    <path
       style="font-variation-settings:normal;opacity:1;vector-effect:none;fill:#ffd42a;fill-opacity:0.609231;stroke:none;stroke-width:2.1;stroke-linecap:butt;stroke-linejoin:miter;stroke-miterlimit:4;stroke-dasharray:2.1, 4.2;stroke-dashoffset:0;stroke-opacity:1;-inkscape-stroke:none;stop-color:#000000;stop-opacity:1"
       d="m 275.67365,92.660315 c 17.25,19.187495 51.26387,72.839695 55.01387,74.464695 3.75,1.625 29.70094,-4.23641 29.70094,-4.23641 l -0.36791,-3.54373 c 0,0 -12.28676,0.4201 -22.14553,-6.53236 -25.58489,-18.04261 -40.13886,-44.7772 -60.01387,-65.402195 z"
       id="path13331"
       sodipodi:nodetypes="csccscc" />
  </g>
</svg>
