<?xml version="1.0" encoding="UTF-8" standalone="no"?>
<!-- Created with Inkscape (http://www.inkscape.org/) -->

<svg
   width="180"
   height="180"
   viewBox="0 0 180 180"
   version="1.1"
   id="svg5"
   inkscape:version="1.2-alpha (0bd5040e63, 2022-02-05)"
   sodipodi:docname="文.svg"
   xmlns:inkscape="http://www.inkscape.org/namespaces/inkscape"
   xmlns:sodipodi="http://sodipodi.sourceforge.net/DTD/sodipodi-0.dtd"
   xmlns="http://www.w3.org/2000/svg"
   xmlns:svg="http://www.w3.org/2000/svg">
  <sodipodi:namedview
     id="namedview7"
     pagecolor="#505050"
     bordercolor="#ffffff"
     borderopacity="1"
     inkscape:pageshadow="0"
     inkscape:pageopacity="0"
     inkscape:pagecheckerboard="1"
     inkscape:blackoutopacity="0.0"
     inkscape:document-units="px"
     showgrid="false"
     inkscape:zoom="4"
     inkscape:cx="58.25"
     inkscape:cy="104.125"
     inkscape:window-width="1920"
     inkscape:window-height="1011"
     inkscape:window-x="-9"
     inkscape:window-y="30"
     inkscape:window-maximized="1"
     inkscape:current-layer="layer2" />
  <defs
     id="defs2" />
  <g
     inkscape:label="图层 1"
     inkscape:groupmode="layer"
     id="layer1"
     style="display:inline"
     sodipodi:insensitive="true">
    <text
       xml:space="preserve"
       style="font-style:normal;font-weight:normal;font-size:167.018px;line-height:1.25;font-family:sans-serif;fill:#000000;fill-opacity:1;stroke:none;stroke-width:4.17542"
       x="6.5745578"
       y="153.47105"
       id="text2280"><tspan
         sodipodi:role="line"
         id="tspan2278"
         x="6.5745578"
         y="153.47105"
         style="font-style:normal;font-variant:normal;font-weight:normal;font-stretch:normal;font-size:167.018px;font-family:'WenYue Juzhen';-inkscape-font-specification:'WenYue Juzhen';font-variant-ligatures:normal;font-variant-caps:normal;font-variant-numeric:normal;font-variant-east-asian:normal;stroke-width:4.17542">文</tspan></text>
  </g>
  <g
     inkscape:groupmode="layer"
     id="layer2"
     inkscape:label="图层 2"
     style="display:inline">
    <path
       style="font-variation-settings:normal;opacity:1;vector-effect:none;fill:#ffd42a;fill-opacity:0.609231;stroke:none;stroke-width:2.1;stroke-linecap:butt;stroke-linejoin:miter;stroke-miterlimit:4;stroke-dasharray:2.1, 4.2;stroke-dashoffset:0;stroke-opacity:1;-inkscape-stroke:none;stop-color:#000000;stop-opacity:1"
       d="m 100.40916,55.154329 c 0,0 3.53554,-19.357048 5.21492,-24.04163 1.43978,-4.016236 5.56845,-5.92202 5.65685,-7.159457 0.0884,-1.237436 -3.09359,-3.218592 -7.95495,-5.605077 C 98.46462,15.961679 92.733781,9.5487014 85.383145,9.9436892 L 85.15045,11.387697 c 0,0 7.099551,2.612303 7.474551,15.237303 0.375,12.625 -0.5,30.000001 -0.5,30.000001 z"
       id="path10862"
       sodipodi:nodetypes="csssccscc" />
    <path
       style="font-variation-settings:normal;opacity:1;vector-effect:none;fill:#ffd42a;fill-opacity:0.609231;stroke:none;stroke-width:2.1;stroke-linecap:butt;stroke-linejoin:miter;stroke-miterlimit:4;stroke-dasharray:2.1, 4.2;stroke-dashoffset:0;stroke-opacity:1;-inkscape-stroke:none;stop-color:#000000;stop-opacity:1"
       d="M 8.5198762,63.453316 C 8.5198762,63.453316 21.0625,73 24.75,73.5 28.4375,74 64.375,65.375 110,60 c 44.53065,-5.246076 59.0625,-1.8125 59.875,-3.0625 0.8125,-1.25 -9.5,-15.5625 -12.5,-15.5 -3,0.0625 0.62289,5.373052 -46.09227,11.3125 C 62.125,59 19.795337,63.950635 9.266085,61.648858 Z"
       id="path18667"
       sodipodi:nodetypes="cssssscc" />
    <path
       style="font-variation-settings:normal;opacity:1;vector-effect:none;fill:#ffd42a;fill-opacity:0.609231;stroke:none;stroke-width:2.1;stroke-linecap:butt;stroke-linejoin:miter;stroke-miterlimit:4;stroke-dasharray:2.1, 4.2;stroke-dashoffset:0;stroke-opacity:1;-inkscape-stroke:none;stop-color:#000000;stop-opacity:1"
       d="M 13.096029,169.23443 C 89.346552,157.9918 110.65114,104.26089 117.29134,87.327687 c 5.5804,-14.230615 10.55353,-9.856657 10.81999,-11.688708 0.242,-1.663906 -1.82177,-4.73544 -5.51669,-9.347718 -3.219,-4.018194 -10.36212,-10.29126 -10.36212,-10.29126 l -3.42002,1.479052 c 0,0 1.93292,3.621578 0.4355,13.585178 -2.2981,15.291185 -18.084993,77.274399 -96.573846,96.012729 z"
       id="path20415"
       sodipodi:nodetypes="csssccscc" />
    <path
       style="font-variation-settings:normal;opacity:1;vector-effect:none;fill:#ffd42a;fill-opacity:0.609231;stroke:none;stroke-width:2.1;stroke-linecap:butt;stroke-linejoin:miter;stroke-miterlimit:4;stroke-dasharray:2.1, 4.2;stroke-dashoffset:0;stroke-opacity:1;-inkscape-stroke:none;stop-color:#000000;stop-opacity:1"
       d="m 34.359375,91.796875 0.640165,1.948223 c 0,0 21.83061,-3.22895 30.528395,2.999089 18.274397,13.085363 69.684255,70.779203 73.683705,73.309483 3.63021,2.29668 31.87565,-4.64874 31.87565,-4.64874 l -0.49778,-3.8007 c 0,0 -13.66254,-0.6948 -28.079,-8.40566 C 123.1665,142.85213 89.25,107.5 78.375,96.375 66.876867,84.612542 61.75,78.25 60,78.25 c -1.75,0 -5.390625,4.671875 -25.640625,13.546875 z"
       id="path25872"
       sodipodi:nodetypes="ccssccsssc" />
  </g>
</svg>
