<?xml version="1.0" encoding="UTF-8" standalone="no"?>
<!-- Created with Inkscape (http://www.inkscape.org/) -->

<svg
   width="180"
   height="180"
   viewBox="0 0 180 180"
   version="1.1"
   id="svg5"
   inkscape:version="1.2-alpha (0bd5040e63, 2022-02-05)"
   sodipodi:docname="會.svg"
   xmlns:inkscape="http://www.inkscape.org/namespaces/inkscape"
   xmlns:sodipodi="http://sodipodi.sourceforge.net/DTD/sodipodi-0.dtd"
   xmlns="http://www.w3.org/2000/svg"
   xmlns:svg="http://www.w3.org/2000/svg">
  <sodipodi:namedview
     id="namedview7"
     pagecolor="#505050"
     bordercolor="#ffffff"
     borderopacity="1"
     inkscape:pageshadow="0"
     inkscape:pageopacity="0"
     inkscape:pagecheckerboard="1"
     inkscape:blackoutopacity="0.0"
     inkscape:document-units="px"
     showgrid="false"
     inkscape:zoom="2.8284271"
     inkscape:cx="45.608388"
     inkscape:cy="137.00194"
     inkscape:window-width="1920"
     inkscape:window-height="1011"
     inkscape:window-x="-9"
     inkscape:window-y="30"
     inkscape:window-maximized="1"
     inkscape:current-layer="layer1" />
  <defs
     id="defs2" />
  <g
     inkscape:label="图层 1"
     inkscape:groupmode="layer"
     id="layer1"
     style="display:inline"
     sodipodi:insensitive="true">
    <text
       xml:space="preserve"
       style="font-style:normal;font-weight:normal;font-size:175.536px;line-height:1.25;font-family:sans-serif;fill:#000000;fill-opacity:1;stroke:none;stroke-width:4.38838"
       x="2.3197703"
       y="156.70367"
       id="text2280"><tspan
         sodipodi:role="line"
         id="tspan2278"
         x="2.3197703"
         y="156.70367"
         style="font-style:normal;font-variant:normal;font-weight:normal;font-stretch:normal;font-size:175.536px;font-family:'WenYue Juzhen';-inkscape-font-specification:'WenYue Juzhen';font-variant-ligatures:normal;font-variant-caps:normal;font-variant-numeric:normal;font-variant-east-asian:normal;stroke-width:4.38838">會</tspan></text>
  </g>
  <g
     inkscape:groupmode="layer"
     id="layer2"
     inkscape:label="图层 2"
     style="display:inline">
    <path
       style="font-variation-settings:normal;opacity:1;vector-effect:none;fill:#ffd42a;fill-opacity:0.609231;stroke:none;stroke-width:2.1;stroke-linecap:butt;stroke-linejoin:miter;stroke-miterlimit:4;stroke-dasharray:2.1, 4.2;stroke-dashoffset:0;stroke-opacity:1;-inkscape-stroke:none;stop-color:#000000;stop-opacity:1"
       d="M 3.8853789,84.233074 C 44.311581,64.319338 88.045134,27.856155 93.0625,23.25 99.255743,17.56434 102.625,18.25 103.25,17.0625 103.875,15.875 101.375,11.5625 97.5625,8 93.75,4.4375 90.448683,4.2602633 90.448683,4.2602633 l -0.690237,0.4521859 c 0,0 -0.368939,6.2485738 -6.070946,12.9750508 C 71.352411,32.238814 40.846668,59.190291 3.1643802,83.101688 Z"
       id="path16822"
       sodipodi:nodetypes="csssccscc" />
    <path
       style="font-variation-settings:normal;opacity:1;vector-effect:none;fill:#ffd42a;fill-opacity:0.609231;stroke:none;stroke-width:2.1;stroke-linecap:butt;stroke-linejoin:miter;stroke-miterlimit:4;stroke-dasharray:2.1, 4.2;stroke-dashoffset:0;stroke-opacity:1;-inkscape-stroke:none;stop-color:#000000;stop-opacity:1"
       d="m 175.9375,70.375 c -9.9375,2 -17.9375,6.46875 -19.96875,5.53125 -2.03125,-0.9375 -3.56763,-3.91199 -6.92639,-7.116067 -3.18624,-3.039498 -27.829,-26.410349 -60.800459,-45.498552 l 3.049152,-3.550514 c 32.563547,18.144552 55.182457,36.029398 66.465227,41.588388 9.81228,4.834485 17.81752,5.640165 17.81752,5.640165 z"
       id="path23092"
       sodipodi:nodetypes="cssccscc" />
    <path
       style="font-variation-settings:normal;opacity:1;vector-effect:none;fill:#ffd42a;fill-opacity:0.609231;stroke:none;stroke-width:2.1;stroke-linecap:butt;stroke-linejoin:miter;stroke-miterlimit:4;stroke-dasharray:2.1, 4.2;stroke-dashoffset:0;stroke-opacity:1;-inkscape-stroke:none;stop-color:#000000;stop-opacity:1"
       d="m 56.484375,53.328125 c 0,0 5.262484,4.039292 9.824984,3.601792 4.5625,-0.4375 10.774278,-2.096662 26.190641,-6.054917 18.5,-4.75 20,-3.09375 20.78125,-4.5 0.78125,-1.40625 -6.25214,-8.432852 -7.78125,-8.21875 -2.17431,0.304442 0.57138,1.703585 -16.3125,6.53125 -15.996718,4.573995 -26.116784,9.093018 -32.265405,7.616304 z"
       id="path28483"
       sodipodi:nodetypes="cssssscc" />
    <path
       style="font-variation-settings:normal;opacity:1;vector-effect:none;fill:#ffd42a;fill-opacity:0.609231;stroke:none;stroke-width:2.1;stroke-linecap:butt;stroke-linejoin:miter;stroke-miterlimit:4;stroke-dasharray:2.1, 4.2;stroke-dashoffset:0;stroke-opacity:1;-inkscape-stroke:none;stop-color:#000000;stop-opacity:1"
       d="m 37.3125,68.625 c 0,0 7.150273,8.157386 9.0625,22.375 2.105302,15.65315 -2.724112,14.37814 -2.224112,17.12814 0.5,2.75 8.773142,13.38623 11.757583,12.9192 1.81272,-0.28367 -1.782798,-26.739586 -5.035827,-41.596896 -0.585038,-2.672001 -7.106267,-9.691882 -12.817957,-11.505131 z"
       id="path36225"
       sodipodi:nodetypes="csssscc" />
    <path
       style="font-variation-settings:normal;opacity:1;vector-effect:none;fill:#ffd42a;fill-opacity:0.609231;stroke:none;stroke-width:2.1;stroke-linecap:butt;stroke-linejoin:miter;stroke-miterlimit:4;stroke-dasharray:2.1, 4.2;stroke-dashoffset:0;stroke-opacity:1;-inkscape-stroke:none;stop-color:#000000;stop-opacity:1"
       d="m 43.6875,73.125 c 0,0 6.454051,0.361532 48.236382,-9.662166 35.809168,-8.590719 41.719298,-12.374369 41.719298,-12.374369 0,0 13.06631,9.771809 13.06631,12.853842 0,3.082033 -5.24771,3.546943 -5.99524,9.596798 -0.79995,6.474107 -2.30657,21.988264 -2.63649,25.518344 -0.42677,4.566401 -5.65684,11.515281 -7.20494,11.269521 -1.55675,-0.24713 -3.36818,-11.429831 -3.27091,-12.731292 0.13989,-1.871694 2.2074,-2.480376 2.65609,-6.698738 2.6272,-24.699486 2.88554,-27.590268 0.63846,-29.37865 C 129.30121,60.248681 114.75,64.25 91.875,69.75 69,75.25 47.563654,78.712964 47.563654,78.712964 Z"
       id="path40702"
       sodipodi:nodetypes="cscsssssssscc" />
    <path
       style="font-variation-settings:normal;opacity:1;vector-effect:none;fill:#ffd42a;fill-opacity:0.609231;stroke:none;stroke-width:2.1;stroke-linecap:butt;stroke-linejoin:miter;stroke-miterlimit:4;stroke-dasharray:2.1, 4.2;stroke-dashoffset:0;stroke-opacity:1;-inkscape-stroke:none;stop-color:#000000;stop-opacity:1"
       d="m 57.743479,88.862 c 0,0 7.20189,3.39935 9.676764,3.487738 2.474873,0.08839 10.030158,-2.656777 30.624647,-6.710312 20.59448,-4.053536 28.04109,-5.117641 28.35045,-6.222495 0.30936,-1.104855 -5.65686,-6.761709 -7.82237,-6.629127 -2.16552,0.132583 0.44692,2.694613 -25.146486,7.923086 -24.287987,4.961789 -31.761557,6.247619 -35.540159,7.109406 z"
       id="path46696"
       sodipodi:nodetypes="cssssscc" />
    <path
       style="font-variation-settings:normal;opacity:1;vector-effect:none;fill:#ffd42a;fill-opacity:0.609231;stroke:none;stroke-width:2.1;stroke-linecap:butt;stroke-linejoin:miter;stroke-miterlimit:4;stroke-dasharray:2.1, 4.2;stroke-dashoffset:0;stroke-opacity:1;-inkscape-stroke:none;stop-color:#000000;stop-opacity:1"
       d="m 53.255013,107.13296 c 0,0 15.083028,-2.1577 39.302752,-6.74524 26.035345,-4.931445 27.827165,-7.491566 30.036875,-7.491566 2.20971,0 8.66206,4.77297 8.75044,6.452349 0.0884,1.679377 -7.40359,1.069517 -39.269874,7.247847 -28.599855,5.54503 -38.069926,7.51301 -38.069926,7.51301 z"
       id="path51066"
       sodipodi:nodetypes="csssscc" />
    <path
       style="font-variation-settings:normal;opacity:1;vector-effect:none;fill:#ffd42a;fill-opacity:0.609231;stroke:none;stroke-width:2.1;stroke-linecap:butt;stroke-linejoin:miter;stroke-miterlimit:4;stroke-dasharray:2.1, 4.2;stroke-dashoffset:0;stroke-opacity:1;-inkscape-stroke:none;stop-color:#000000;stop-opacity:1"
       d="m 90,103.50276 c 0,0 0,-24.38351 -0.996859,-45.81526 -0.224261,-4.821452 -2.397748,-6.599035 -2.397748,-6.599035 l 10.912843,-3.075971 c 0,0 -1.667388,3.346135 -1.595432,8.950559 0.07196,5.604425 0.53033,45.920987 0.53033,45.920987 z"
       id="path55660"
       sodipodi:nodetypes="csccscc" />
    <path
       style="font-variation-settings:normal;opacity:1;vector-effect:none;fill:#ffd42a;fill-opacity:0.609231;stroke:none;stroke-width:2.1;stroke-linecap:butt;stroke-linejoin:miter;stroke-miterlimit:4;stroke-dasharray:2.1, 4.2;stroke-dashoffset:0;stroke-opacity:1;-inkscape-stroke:none;stop-color:#000000;stop-opacity:1"
       d="m 37.621859,117.07037 c 0,0 10.196237,9.41336 11.875616,14.89344 1.679378,5.48007 3.625989,15.51214 3.978509,22.89258 0.221545,4.63831 -3.536568,8.66206 -2.917849,10.78338 0.618718,2.12132 7.424621,10.96015 9.899495,9.98788 2.474874,-0.97227 2.474873,-6.27558 1.856155,-11.57888 -0.618719,-5.3033 -5.391689,-35.35534 -5.391689,-35.35534 0,0 -3.878039,-6.37501 -18.594699,-12.69478 z"
       id="path60284"
       sodipodi:nodetypes="csssssccc" />
    <path
       style="font-variation-settings:normal;opacity:1;vector-effect:none;fill:#ffd42a;fill-opacity:0.609231;stroke:none;stroke-width:2.1;stroke-linecap:butt;stroke-linejoin:miter;stroke-miterlimit:4;stroke-dasharray:2.1, 4.2;stroke-dashoffset:0;stroke-opacity:1;-inkscape-stroke:none;stop-color:#000000;stop-opacity:1"
       d="m 54.411611,133.42677 c 0,0 14.599787,-3.6413 38.975103,-8.88388 23.969666,-5.15533 28.998086,-5.7045 30.998086,-4.142 2,1.5625 0.005,22.4545 -0.80713,29.392 -0.8125,6.9375 -4.01517,6.91078 -4.01517,9.33211 0,2.42133 4.9375,15.375 7.3125,15.6875 2.375,0.3125 3.46967,-5.97151 4.19052,-12.09651 0.72085,-6.125 2.1229,-31.59727 2.90323,-36.71599 0.67922,-4.45546 5.39737,-5.5795 5.56342,-7.64645 0.13099,-1.63052 -11.65717,-10.04105 -14.28217,-9.72855 -2.625,0.3125 -2.3125,3.44822 -32.949569,10.19822 -28.407725,6.25883 -39.620975,8.4118 -39.620975,8.4118 z"
       id="path64811"
       sodipodi:nodetypes="csssssssssscc" />
    <path
       style="font-variation-settings:normal;opacity:1;vector-effect:none;fill:#ffd42a;fill-opacity:0.609231;stroke:none;stroke-width:2.1;stroke-linecap:butt;stroke-linejoin:miter;stroke-miterlimit:4;stroke-dasharray:2.1, 4.2;stroke-dashoffset:0;stroke-opacity:1;-inkscape-stroke:none;stop-color:#000000;stop-opacity:1"
       d="m 57.098873,144.95689 c 0,0 6.153252,-0.57389 29.50652,-6.27557 22.609017,-5.51997 22.156467,-7.68979 23.570677,-7.86656 1.41421,-0.17678 8.79465,7.73397 8.57368,8.70625 -0.33301,1.46524 -6.06685,0.30523 -32.388053,5.82935 -22.002201,4.61768 -28.137824,6.40615 -28.137824,6.40615 z"
       id="path67044"
       sodipodi:nodetypes="csssscc" />
    <path
       style="font-variation-settings:normal;opacity:1;vector-effect:none;fill:#ffd42a;fill-opacity:0.609231;stroke:none;stroke-width:2.1;stroke-linecap:butt;stroke-linejoin:miter;stroke-miterlimit:4;stroke-dasharray:2.1, 4.2;stroke-dashoffset:0;stroke-opacity:1;-inkscape-stroke:none;stop-color:#000000;stop-opacity:1"
       d="m 59.224635,163.872 c 0,0 12.230456,-1.69072 32.080528,-5.21492 22.111487,-3.92569 21.566757,-5.65685 23.688077,-5.74524 2.12132,-0.0884 12.46276,4.41942 12.1092,7.68979 -0.35355,3.27037 -2.95387,-0.92234 -35.327607,3.90425 -24.778573,3.69423 -31.52431,5.28814 -31.52431,5.28814 z"
       id="path67046"
       sodipodi:nodetypes="csssscc" />
  </g>
</svg>
