<?xml version="1.0" encoding="UTF-8" standalone="no"?>
<!-- Created with Inkscape (http://www.inkscape.org/) -->

<svg
   width="180"
   height="180"
   viewBox="0 0 180 180"
   version="1.1"
   id="svg5"
   inkscape:version="1.2-alpha (0bd5040e63, 2022-02-05)"
   sodipodi:docname="東.svg"
   xmlns:inkscape="http://www.inkscape.org/namespaces/inkscape"
   xmlns:sodipodi="http://sodipodi.sourceforge.net/DTD/sodipodi-0.dtd"
   xmlns="http://www.w3.org/2000/svg"
   xmlns:svg="http://www.w3.org/2000/svg">
  <sodipodi:namedview
     id="namedview7"
     pagecolor="#505050"
     bordercolor="#ffffff"
     borderopacity="1"
     inkscape:pageshadow="0"
     inkscape:pageopacity="0"
     inkscape:pagecheckerboard="1"
     inkscape:blackoutopacity="0.0"
     inkscape:document-units="px"
     showgrid="false"
     inkscape:zoom="1.4142135"
     inkscape:cx="-62.2254"
     inkscape:cy="157.33127"
     inkscape:window-width="1920"
     inkscape:window-height="1011"
     inkscape:window-x="-9"
     inkscape:window-y="30"
     inkscape:window-maximized="1"
     inkscape:current-layer="layer2" />
  <defs
     id="defs2" />
  <g
     inkscape:label="图层 1"
     inkscape:groupmode="layer"
     id="layer1"
     style="display:inline"
     sodipodi:insensitive="true">
    <text
       xml:space="preserve"
       style="font-style:normal;font-weight:normal;font-size:175.536px;line-height:1.25;font-family:sans-serif;fill:#000000;fill-opacity:1;stroke:none;stroke-width:4.38838"
       x="2.3197703"
       y="156.70367"
       id="text2280"><tspan
         sodipodi:role="line"
         id="tspan2278"
         x="2.3197703"
         y="156.70367"
         style="font-style:normal;font-variant:normal;font-weight:normal;font-stretch:normal;font-size:175.536px;font-family:'WenYue Juzhen';-inkscape-font-specification:'WenYue Juzhen';font-variant-ligatures:normal;font-variant-caps:normal;font-variant-numeric:normal;font-variant-east-asian:normal;stroke-width:4.38838">東</tspan></text>
  </g>
  <g
     inkscape:groupmode="layer"
     id="layer2"
     inkscape:label="图层 2"
     style="display:inline">
    <path
       style="font-variation-settings:normal;opacity:1;vector-effect:none;fill:#ffd42a;fill-opacity:0.609231;stroke:none;stroke-width:2.1;stroke-linecap:butt;stroke-linejoin:miter;stroke-miterlimit:4;stroke-dasharray:2.1, 4.2;stroke-dashoffset:0;stroke-opacity:1;-inkscape-stroke:none;stop-color:#000000;stop-opacity:1"
       d="m 32.669197,53.734187 c 7.625,11.625 9.580805,31.640817 9.955805,42.640818 0.375,11.000005 -4.1875,8.375005 -3.6875,13.500005 0.5,5.125 8.224347,14.59911 8.880597,14.59911 0.65625,0 3.431904,-1.09911 4.056904,-11.84911 0.625,-10.75 -6.625001,-46.125007 -6.625001,-46.125007 0,0 -1.999349,-7.500651 -11.191291,-14.037263 z"
       id="path4703"
       sodipodi:nodetypes="cssssccc" />
    <path
       style="font-variation-settings:normal;opacity:1;vector-effect:none;fill:#ffd42a;fill-opacity:0.609231;stroke:none;stroke-width:2.1;stroke-linecap:butt;stroke-linejoin:miter;stroke-miterlimit:4;stroke-dasharray:2.1, 4.2;stroke-dashoffset:0;stroke-opacity:1;-inkscape-stroke:none;stop-color:#000000;stop-opacity:1"
       d="m 134.00001,95.500005 c 0,0 6.40273,-24.171575 8.875,-34.250002 1.76382,-7.190371 8.875,-5.5 9,-7.5 0.125,-2 -10.375,-14.750001 -13.625,-15.000001 -3.25,-0.25 -4.01516,5.431757 -38.963393,12.352253 -34.975882,6.925972 -58.411615,10.585248 -58.411615,10.585248 l 1.34991,7.608965 c 0,0 18.523774,-3.849147 52.262236,-10.253049 33.029472,-6.269329 37.631992,-7.646893 38.957822,-6.321068 1.32582,1.325825 -0.15533,13.568913 -1.65794,22.672913 -1.5026,9.104001 -4.06586,19.710603 -4.06586,19.710603 z"
       id="path5131"
       sodipodi:nodetypes="cssssccssscc" />
    <path
       style="font-variation-settings:normal;opacity:1;vector-effect:none;fill:#ffd42a;fill-opacity:0.609231;stroke:none;stroke-width:2.1;stroke-linecap:butt;stroke-linejoin:miter;stroke-miterlimit:4;stroke-dasharray:2.1, 4.2;stroke-dashoffset:0;stroke-opacity:1;-inkscape-stroke:none;stop-color:#000000;stop-opacity:1"
       d="m 17.766059,35.797283 c 10.253049,-1.060661 37.395894,-1.809583 96.867351,-9.707554 34.49745,-4.581355 37.74811,-10.179826 40.31137,-10.179826 2.56326,0 10.6066,12.020816 9.28078,13.611807 -1.32583,1.59099 -10.71426,-0.486136 -56.08241,4.640388 C 64.123093,39.13629 37.388273,45.254836 32.536614,44.901283 27.684955,44.547729 17.279923,37.56505 17.279923,37.56505 Z"
       id="path6329"
       sodipodi:nodetypes="cssssscc" />
    <path
       style="font-variation-settings:normal;opacity:1;vector-effect:none;fill:#ffd42a;fill-opacity:0.609231;stroke:none;stroke-width:2.1;stroke-linecap:butt;stroke-linejoin:miter;stroke-miterlimit:4;stroke-dasharray:2.1, 4.2;stroke-dashoffset:0;stroke-opacity:1;-inkscape-stroke:none;stop-color:#000000;stop-opacity:1"
       d="m 62.757816,155.82813 c 0,0 9.804688,5.48438 16.367188,10.48438 6.067,4.62248 9.726774,10.01073 11.854474,10.07512 1.99547,0.0604 7.301777,-7.66887 7.333027,-12.76262 0.04678,-7.62588 -4.241413,-99.373271 -3.25,-141.437509 0.108911,-4.620937 4.474112,-7.265704 4.4375,-10.125 -0.01688,-1.318331 -9.78125,-6.5625007 -12.312501,-7.7001428 -1.904466,-0.8559405 -7.625,0.8876421 -7.625,0.8876421 l 0.16379,1.9978446 c 0,0 6.33621,0.1449224 6.83621,12.5021561 0.571418,14.122292 1.812505,74.750011 2.687501,104.812509 0.85672,29.43459 1.458947,37.67992 -1.103553,38.36742 -2.562501,0.6875 -10.755823,-4.72254 -24.693324,-8.78504 z"
       id="path8215"
       sodipodi:nodetypes="cssssssccssscc" />
    <path
       style="font-variation-settings:normal;opacity:1;vector-effect:none;fill:#ffd42a;fill-opacity:0.609231;stroke:none;stroke-width:2.1;stroke-linecap:butt;stroke-linejoin:miter;stroke-miterlimit:4;stroke-dasharray:2.1, 4.2;stroke-dashoffset:0;stroke-opacity:1;-inkscape-stroke:none;stop-color:#000000;stop-opacity:1"
       d="m 51.913209,82.885527 c 0,0 11.417046,4.33168 13.008036,4.420068 1.59099,0.08839 16.490753,-4.49239 35.311145,-8.19802 19.39142,-3.818061 28.51819,-4.421638 28.82755,-5.39391 0.30936,-0.972272 -6.02335,-7.334013 -7.9237,-7.113042 -1.90035,0.220971 -6.1221,3.568208 -24.130024,7.325185 -29.979328,6.25456 -44.91623,7.147758 -44.91623,7.147758 z"
       id="path11455"
       sodipodi:nodetypes="cssssscc" />
    <path
       style="font-variation-settings:normal;opacity:1;vector-effect:none;fill:#ffd42a;fill-opacity:0.609231;stroke:none;stroke-width:2.1;stroke-linecap:butt;stroke-linejoin:miter;stroke-miterlimit:4;stroke-dasharray:2.1, 4.2;stroke-dashoffset:0;stroke-opacity:1;-inkscape-stroke:none;stop-color:#000000;stop-opacity:1"
       d="m 47.818099,103.9447 c 0,0 25.848257,-3.25365 65.869411,-10.069695 16.62129,-2.830789 18.92291,-5.250587 22.1177,-5.219044 3.1948,0.03154 10.8198,7.531544 10.3823,9.031544 -0.4375,1.5 -9.77251,0.483584 -38.3125,4.187505 -29.118724,3.77903 -59.875008,8.375 -59.875008,8.375 z"
       id="path13841"
       sodipodi:nodetypes="csssscc" />
    <path
       style="font-variation-settings:normal;opacity:1;vector-effect:none;fill:#ffd42a;fill-opacity:0.609231;stroke:none;stroke-width:2.1;stroke-linecap:butt;stroke-linejoin:miter;stroke-miterlimit:4;stroke-dasharray:2.1, 4.2;stroke-dashoffset:0;stroke-opacity:1;-inkscape-stroke:none;stop-color:#000000;stop-opacity:1"
       d="M 5.0602332,170.0371 C 52.344768,143.84597 85.937504,102.50001 85.937504,102.50001 l 7.047042,-1.47212 -0.08839,9.79718 c 0,0 -38.745377,40.23181 -86.9747979,61.04431 z"
       id="path14125"
       sodipodi:nodetypes="cccccc" />
    <path
       style="font-variation-settings:normal;opacity:1;vector-effect:none;fill:#ffd42a;fill-opacity:0.609231;stroke:none;stroke-width:2.1;stroke-linecap:butt;stroke-linejoin:miter;stroke-miterlimit:4;stroke-dasharray:2.1, 4.2;stroke-dashoffset:0;stroke-opacity:1;-inkscape-stroke:none;stop-color:#000000;stop-opacity:1"
       d="m 91.458656,108.20007 c 49.009594,42.69096 55.884724,58.50036 59.331874,59.20747 3.44714,0.70711 23.90559,-5.92202 23.90559,-5.92202 l -0.68155,-3.33666 c 0,0 -6.8337,0.76563 -21.10272,-7.77817 -14.31891,-8.57368 -26.36405,-21.15219 -58.59079,-46.6975 z"
       id="path15065"
       sodipodi:nodetypes="csccscc" />
  </g>
</svg>
