<?xml version="1.0" encoding="UTF-8" standalone="no"?>
<!-- Created with Inkscape (http://www.inkscape.org/) -->

<svg
   width="180"
   height="180"
   viewBox="0 0 180 180"
   version="1.1"
   id="svg5"
   inkscape:version="1.2-alpha (0bd5040e63, 2022-02-05)"
   sodipodi:docname="柳.svg"
   xmlns:inkscape="http://www.inkscape.org/namespaces/inkscape"
   xmlns:sodipodi="http://sodipodi.sourceforge.net/DTD/sodipodi-0.dtd"
   xmlns="http://www.w3.org/2000/svg"
   xmlns:svg="http://www.w3.org/2000/svg">
  <sodipodi:namedview
     id="namedview7"
     pagecolor="#505050"
     bordercolor="#ffffff"
     borderopacity="1"
     inkscape:pageshadow="0"
     inkscape:pageopacity="0"
     inkscape:pagecheckerboard="1"
     inkscape:blackoutopacity="0.0"
     inkscape:document-units="px"
     showgrid="false"
     inkscape:zoom="2"
     inkscape:cx="-32"
     inkscape:cy="104.75"
     inkscape:window-width="1920"
     inkscape:window-height="1011"
     inkscape:window-x="-9"
     inkscape:window-y="30"
     inkscape:window-maximized="1"
     inkscape:current-layer="layer2" />
  <defs
     id="defs2" />
  <g
     inkscape:label="图层 1"
     inkscape:groupmode="layer"
     id="layer1"
     style="display:inline"
     sodipodi:insensitive="true">
    <text
       xml:space="preserve"
       style="font-style:normal;font-weight:normal;font-size:175.536px;line-height:1.25;font-family:sans-serif;fill:#000000;fill-opacity:1;stroke:none;stroke-width:4.38838"
       x="2.3197703"
       y="156.70367"
       id="text2280"><tspan
         sodipodi:role="line"
         id="tspan2278"
         x="2.3197703"
         y="156.70367"
         style="font-style:normal;font-variant:normal;font-weight:normal;font-stretch:normal;font-size:175.536px;font-family:'WenYue Juzhen';-inkscape-font-specification:'WenYue Juzhen';font-variant-ligatures:normal;font-variant-caps:normal;font-variant-numeric:normal;font-variant-east-asian:normal;stroke-width:4.38838">柳</tspan></text>
  </g>
  <g
     inkscape:groupmode="layer"
     id="layer2"
     inkscape:label="图层 2"
     style="display:inline">
    <path
       style="font-variation-settings:normal;opacity:1;vector-effect:none;fill:#ffd42a;fill-opacity:0.609231;stroke:none;stroke-width:2.1;stroke-linecap:butt;stroke-linejoin:miter;stroke-miterlimit:4;stroke-dasharray:2.1, 4.2;stroke-dashoffset:0;stroke-opacity:1;-inkscape-stroke:none;stop-color:#000000;stop-opacity:1"
       d="m 6.7536051,56.093782 c 0,0 9.1121039,5.855727 11.2776179,5.855727 2.165515,0 11.092738,-2.685121 28.947184,-4.673859 17.854447,-1.988738 20.85965,-1.856155 21.213203,-2.740039 0.353554,-0.883883 -5.707531,-7.825272 -8.043339,-7.645592 -2.872621,0.220975 -1.617557,1.128019 -17.456699,3.756505 -21.795217,3.61689 -26.267974,3.207218 -35.694899,4.121432 z"
       id="path7630"
       sodipodi:nodetypes="cssssscc" />
    <path
       style="font-variation-settings:normal;opacity:1;vector-effect:none;fill:#ffd42a;fill-opacity:0.609231;stroke:none;stroke-width:2.1;stroke-linecap:butt;stroke-linejoin:miter;stroke-miterlimit:4;stroke-dasharray:2.1, 4.2;stroke-dashoffset:0;stroke-opacity:1;-inkscape-stroke:none;stop-color:#000000;stop-opacity:1"
       d="m 36.904626,3.903602 c 0,0 6.545875,4.3789598 8.571179,5.9296022 2.343275,1.7940908 7.281674,3.6023768 7.336233,4.5299028 0.132579,2.253902 -4.914968,0.310518 -5.214912,8.79464 -0.618719,17.500893 1.005742,131.044613 1.005742,139.655433 0,8.61081 -1.237437,11.62097 -3.171257,12.05847 -2.069031,0.46809 -9.835341,-11.16177 -9.628048,-16.79298 0.149598,-4.0639 3.087741,-0.74488 3.529252,-10.11658 C 41.109079,110.25842 39.697785,32.810333 38.448932,18.915107 37.631697,9.8222272 35.760723,4.7834709 35.760723,4.7834709 Z"
       id="path9488"
       sodipodi:nodetypes="csssssssscc" />
    <path
       style="font-variation-settings:normal;opacity:1;vector-effect:none;fill:#ffd42a;fill-opacity:0.609231;stroke:none;stroke-width:2.1;stroke-linecap:butt;stroke-linejoin:miter;stroke-miterlimit:4;stroke-dasharray:2.1, 4.2;stroke-dashoffset:0;stroke-opacity:1;-inkscape-stroke:none;stop-color:#000000;stop-opacity:1"
       d="M 5.0732233,129.09099 C 36.209526,79.818422 38.554454,54.466866 38.554454,54.466866 L 46.25,64.000001 c 0,0 -7.116995,28.514833 -39.8941425,66.215989"
       id="path12956"
       sodipodi:nodetypes="cccc" />
    <path
       style="font-variation-settings:normal;opacity:1;vector-effect:none;fill:#ffd42a;fill-opacity:0.609231;stroke:none;stroke-width:2.1;stroke-linecap:butt;stroke-linejoin:miter;stroke-miterlimit:4;stroke-dasharray:2.1, 4.2;stroke-dashoffset:0;stroke-opacity:1;-inkscape-stroke:none;stop-color:#000000;stop-opacity:1"
       d="m 44.734835,76.840229 c 10.549855,7.268498 18.587739,20.298636 18.587739,20.298636 l 1.529679,-0.03596 c 0,0 4.210248,-7.178089 3.354192,-10.635073 C 67.350388,83.010848 44.984835,74.96523 44.984835,74.96523 Z"
       id="path23545"
       sodipodi:nodetypes="cccscc" />
    <path
       style="font-variation-settings:normal;opacity:1;vector-effect:none;fill:#ffd42a;fill-opacity:0.609231;stroke:none;stroke-width:2.1;stroke-linecap:butt;stroke-linejoin:miter;stroke-miterlimit:4;stroke-dasharray:2.1, 4.2;stroke-dashoffset:0;stroke-opacity:1;-inkscape-stroke:none;stop-color:#000000;stop-opacity:1"
       d="m 74.95332,43.045126 c 0,0 21.070499,-13.332904 30.11898,-18.374053 7.89092,-4.396244 9.60561,-3.782839 10.2316,-4.975636 0.8504,-1.620405 -2.08589,-4.92774 -4.11136,-7.144291 -2.34229,-2.5632622 -6.31976,-7.1152626 -6.31976,-7.1152626 l -1.63519,0.486136 c 0,0 1.00324,4.6673546 -4.065863,10.7833786 -7.305903,8.814786 -25.632621,23.069359 -25.632621,23.069359 z"
       id="path23774"
       sodipodi:nodetypes="csssccscc" />
    <path
       style="font-variation-settings:normal;opacity:1;vector-effect:none;fill:#ffd42a;fill-opacity:0.609231;stroke:none;stroke-width:2.1;stroke-linecap:butt;stroke-linejoin:miter;stroke-miterlimit:4;stroke-dasharray:2.1, 4.2;stroke-dashoffset:0;stroke-opacity:1;-inkscape-stroke:none;stop-color:#000000;stop-opacity:1"
       d="m 67.687501,29.5 c 0,0 5.5,4.5625 9.5,9.3125 4,4.75 5.9375,7.0625 5.875,8.75 -0.0625,1.6875 -2.1875,1.3125 -2.3125,10.687501 -0.125,9.375 0.625,40.125 0.625,44.124999 0,4 -2.375,9.875 -3.5,10.125 -1.125,0.25 -5.375,-5.88886 -5.5,-10.625 -0.125,-4.736135 0.995951,-2.62653 1.164105,-11.875 0.1875,-10.312499 -0.59603,-35.477128 -3.444435,-46.954874 C 67.888333,34.154613 66.000001,30.75 66.000001,30.75 Z"
       id="path25928"
       sodipodi:nodetypes="csssssssscc" />
    <path
       style="font-variation-settings:normal;opacity:1;vector-effect:none;fill:#ffd42a;fill-opacity:0.609231;stroke:none;stroke-width:2.1;stroke-linecap:butt;stroke-linejoin:miter;stroke-miterlimit:4;stroke-dasharray:2.1, 4.2;stroke-dashoffset:0;stroke-opacity:1;-inkscape-stroke:none;stop-color:#000000;stop-opacity:1"
       d="m 100.74816,101.23483 c -14.356154,1.83839 -17.905165,4.98235 -45.28163,11.04485 L 55.375,113.8125 c 0,0 8.253825,6.3171 12.1875,5.5 3.47745,-0.72234 5.404568,-5.75629 33.56066,-16.39017 z"
       id="path27869"
       sodipodi:nodetypes="cccscc" />
    <path
       style="font-variation-settings:normal;opacity:1;vector-effect:none;fill:#ffd42a;fill-opacity:0.609231;stroke:none;stroke-width:2.1;stroke-linecap:butt;stroke-linejoin:miter;stroke-miterlimit:4;stroke-dasharray:2.1, 4.2;stroke-dashoffset:0;stroke-opacity:1;-inkscape-stroke:none;stop-color:#000000;stop-opacity:1"
       d="m 55.74908,172.97064 c 54.5769,-33.42704 47.31173,-54.17671 53.05698,-120.026019 0.48892,-5.603712 3.44714,-6.058029 3.44714,-7.51301 0,-1.454981 -2.03293,-3.800699 -5.21491,-6.629126 -3.18198,-2.828427 -9.369165,-6.717514 -9.369165,-6.717514 L 96.000001,33.375 c 0,0 4.692619,11.248988 4.312499,25.66805 -0.973455,36.925906 3.31878,79.12771 -45.620639,112.31515 z"
       id="path29907"
       sodipodi:nodetypes="csssccscc" />
    <path
       style="font-variation-settings:normal;opacity:1;vector-effect:none;fill:#ffd42a;fill-opacity:0.609231;stroke:none;stroke-width:2.1;stroke-linecap:butt;stroke-linejoin:miter;stroke-miterlimit:4;stroke-dasharray:2.1, 4.2;stroke-dashoffset:0;stroke-opacity:1;-inkscape-stroke:none;stop-color:#000000;stop-opacity:1"
       d="m 122.75,39.125 c 7,10.687501 11.91605,14.212627 11.91605,14.212627 0,0 1.00012,74.899323 2.2304,102.241043 C 137.4666,168.24966 137.625,175.75 135.5,176.25 c -2.125,0.5 -12.13432,-13.14341 -12.20894,-17.4571 -0.0884,-5.10983 3.03915,-1.93471 3.63572,-13.46155 0.4546,-8.78372 2.11202,-69.054251 0.21967,-80.986679 -2.05321,-12.946718 -6.1428,-24.216361 -6.1428,-24.216361 z"
       id="path35332"
       sodipodi:nodetypes="ccssssscc" />
    <path
       style="font-variation-settings:normal;opacity:1;vector-effect:none;fill:#ffd42a;fill-opacity:0.609231;stroke:none;stroke-width:2.1;stroke-linecap:butt;stroke-linejoin:miter;stroke-miterlimit:4;stroke-dasharray:2.1, 4.2;stroke-dashoffset:0;stroke-opacity:1;-inkscape-stroke:none;stop-color:#000000;stop-opacity:1"
       d="M 127.0625,49.1875 C 130.91096,48.709597 137,47.170126 148.25,43.045126 160.14522,38.683545 156.74795,32.909544 159.6875,32.334971 163,31.6875 173.46737,46.46875 173.46737,47.90625 c 0,2.250001 -2.43096,1.11312 -4.27987,7.468751 -2,6.875 -9.1875,53.812499 -11.0625,59.187499 -1.875,5.375 -7,11.625 -8.1875,11.3125 -1.84126,-0.48454 -2.00345,-3.99654 -4.8125,-9.625 -3.18872,-6.3892 -8.3125,-11.97855 -8.3125,-11.97855 l 1.00693,-1.12814 c 0,0 10.58682,6.06875 12.39932,5.26294 1.8125,-0.80581 2.00955,-2.32935 3.57698,-10.383571 3.35876,-17.258955 6.62433,-45.476041 5.22563,-47.645762 -1.02849,-1.595432 -5.7264,-0.017 -13.44575,1.772209 -5.68036,1.316611 -15.73313,3.005203 -15.73313,3.005203 z"
       id="path37738"
       sodipodi:nodetypes="csssssssccsssscc" />
  </g>
</svg>
