<?xml version="1.0" encoding="UTF-8" standalone="no"?>
<!-- Created with Inkscape (http://www.inkscape.org/) -->

<svg
   width="180"
   height="180"
   viewBox="0 0 180 180"
   version="1.1"
   id="svg5"
   inkscape:version="1.2-alpha (0bd5040e63, 2022-02-05)"
   sodipodi:docname="永.svg"
   xmlns:inkscape="http://www.inkscape.org/namespaces/inkscape"
   xmlns:sodipodi="http://sodipodi.sourceforge.net/DTD/sodipodi-0.dtd"
   xmlns="http://www.w3.org/2000/svg"
   xmlns:svg="http://www.w3.org/2000/svg">
  <sodipodi:namedview
     id="namedview7"
     pagecolor="#505050"
     bordercolor="#ffffff"
     borderopacity="1"
     inkscape:pageshadow="0"
     inkscape:pageopacity="0"
     inkscape:pagecheckerboard="1"
     inkscape:blackoutopacity="0.0"
     inkscape:document-units="px"
     showgrid="false"
     inkscape:zoom="3.9999998"
     inkscape:cx="72.750003"
     inkscape:cy="94.875004"
     inkscape:window-width="1920"
     inkscape:window-height="1011"
     inkscape:window-x="-9"
     inkscape:window-y="30"
     inkscape:window-maximized="1"
     inkscape:current-layer="layer2" />
  <defs
     id="defs2" />
  <g
     inkscape:label="图层 1"
     inkscape:groupmode="layer"
     id="layer1"
     style="display:inline"
     sodipodi:insensitive="true">
    <text
       xml:space="preserve"
       style="font-style:normal;font-weight:normal;font-size:175.536px;line-height:1.25;font-family:sans-serif;fill:#000000;fill-opacity:1;stroke:none;stroke-width:4.38838"
       x="2.3197703"
       y="156.70367"
       id="text2280"><tspan
         sodipodi:role="line"
         id="tspan2278"
         x="2.3197703"
         y="156.70367"
         style="font-style:normal;font-variant:normal;font-weight:normal;font-stretch:normal;font-size:175.536px;font-family:'WenYue Juzhen';-inkscape-font-specification:'WenYue Juzhen';font-variant-ligatures:normal;font-variant-caps:normal;font-variant-numeric:normal;font-variant-east-asian:normal;stroke-width:4.38838">永</tspan></text>
  </g>
  <g
     inkscape:groupmode="layer"
     id="layer2"
     inkscape:label="图层 2"
     style="display:inline">
    <path
       style="font-variation-settings:normal;opacity:1;vector-effect:none;fill:#ffd42a;fill-opacity:0.609231;stroke:none;stroke-width:2.1;stroke-linecap:butt;stroke-linejoin:miter;stroke-miterlimit:4;stroke-dasharray:2.1, 4.2;stroke-dashoffset:0;stroke-opacity:1;-inkscape-stroke:none;stop-color:#000000;stop-opacity:1"
       d="m 60.899574,147.87371 c 14.672467,4.06587 21.942408,10.1116 30.759147,9.05094 1.895526,-0.22803 2.032932,-11.43742 2.386485,-51.91929 0.353553,-40.481863 -1.06066,-55.286912 -1.900349,-55.68466 -0.83969,-0.397747 -5.435884,1.458408 -11.490486,3.18198 -6.054602,1.723573 -12.772117,4.684578 -16.793787,4.728778 -4.02167,0.04419 -16.108777,-5.071282 -16.108777,-5.071282 l 0.154681,-1.29268 c 0,0 12.28598,-0.132582 29.168156,-5.08233 16.882175,-4.949748 15.291184,-12.904699 18.031223,-13.258253 2.740039,-0.353553 12.462753,10.606603 12.197593,13.700195 -0.26517,3.093592 -6.36396,-1.149049 -6.27557,11.667262 0.0884,12.816311 0.53461,99.60564 0.28461,105.29314 -0.25,5.6875 -3.874995,11.5 -6.249995,11.8125 -2.375,0.3125 -7.671319,-7.21265 -13.1875,-12.375 -6.734164,-6.3022 -21.750001,-12.6875 -21.750001,-12.6875 z"
       id="path4731"
       sodipodi:nodetypes="csssssccssssssscc" />
    <path
       style="font-variation-settings:normal;opacity:1;vector-effect:none;fill:#ffd42a;fill-opacity:0.609231;stroke:none;stroke-width:2.1;stroke-linecap:butt;stroke-linejoin:miter;stroke-miterlimit:4;stroke-dasharray:2.1, 4.2;stroke-dashoffset:0;stroke-opacity:1;-inkscape-stroke:none;stop-color:#000000;stop-opacity:1"
       d="m 77.563439,86.437504 c 0,0 -26.531267,9.871859 -36.281267,12.559359 -9.750001,2.687497 -7.4987,3.987967 -11.3737,4.501527 -3.875,0.51356 -14.408471,-4.951511 -14.408471,-4.951511 l 0.03125,-1.390625 c 16.03125,-4.53125 11.957526,-1.873611 62.604052,-14.513145 z"
       id="path4939"
       sodipodi:nodetypes="csscccc" />
    <path
       style="font-variation-settings:normal;opacity:1;vector-effect:none;fill:#ffd42a;fill-opacity:0.609231;stroke:none;stroke-width:2.1;stroke-linecap:butt;stroke-linejoin:miter;stroke-miterlimit:4;stroke-dasharray:2.1, 4.2;stroke-dashoffset:0;stroke-opacity:1;-inkscape-stroke:none;stop-color:#000000;stop-opacity:1"
       d="m 8.8661169,169.2929 c 48.4074441,-29 69.0040211,-71.888937 73.5118271,-79.558065 4.507805,-7.669128 7.778174,-7.180114 7.999145,-8.638522 C 90.59806,79.637905 88.432546,77.163031 86.488002,75.218487 84.543458,73.273943 78.46787,64.660981 78.46787,64.660981 l -1.452242,0.448397 c 0,0 0.412568,6.396798 -4.360403,21.069265 C 67.882254,100.85111 44.927486,140.6353 7.799438,167.77465 Z"
       id="path5547"
       sodipodi:nodetypes="csssccscc" />
    <path
       style="font-variation-settings:normal;opacity:1;vector-effect:none;fill:#ffd42a;fill-opacity:0.609231;stroke:none;stroke-width:2.1;stroke-linecap:butt;stroke-linejoin:miter;stroke-miterlimit:4;stroke-dasharray:2.1, 4.2;stroke-dashoffset:0;stroke-opacity:1;-inkscape-stroke:none;stop-color:#000000;stop-opacity:1"
       d="m 106.13384,91.765169 c 9.43378,-8.625 22.79451,-16.508185 33.23489,-22.949525 5.63892,-3.479011 11.75628,-2.378141 12.44378,-2.940641 0.6875,-0.5625 -0.68785,-4.997611 -1.86428,-8.385723 -1.5625,-4.500001 -5.63572,-9.989278 -5.63572,-9.989278 l -1.40625,0.1875 c 0,0 -2.08203,6.322372 -9.26307,13.830791 -12.4312,12.997935 -19.84525,17.067611 -29.96366,28.319471 z"
       id="path7246"
       sodipodi:nodetypes="csssccscc" />
    <path
       style="font-variation-settings:normal;opacity:1;vector-effect:none;fill:#ffd42a;fill-opacity:0.609231;stroke:none;stroke-width:2.1;stroke-linecap:butt;stroke-linejoin:miter;stroke-miterlimit:4;stroke-dasharray:2.1, 4.2;stroke-dashoffset:0;stroke-opacity:1;-inkscape-stroke:none;stop-color:#000000;stop-opacity:1"
       d="m 97.375004,88.775264 c 22.125006,18.662236 46.187506,62.162246 49.062506,63.537246 2.875,1.375 26.3125,-6.1875 26.3125,-6.1875 l -0.68693,-3.375 c 0,0 -5.08342,1.27952 -16.68807,-5.75 -20.49796,-12.41664 -38.25,-39.562506 -57.250006,-53.187506 z"
       id="path8756"
       sodipodi:nodetypes="csccscc" />
    <path
       style="font-variation-settings:normal;opacity:1;vector-effect:none;fill:#ffd42a;fill-opacity:0.609231;stroke:none;stroke-width:2.1;stroke-linecap:butt;stroke-linejoin:miter;stroke-miterlimit:4;stroke-dasharray:2.1, 4.2;stroke-dashoffset:0;stroke-opacity:1;-inkscape-stroke:none;stop-color:#000000;stop-opacity:1"
       d="m 31.796876,29.906251 c 0,0 3.74824,6.424557 9.141007,6.755363 3.637508,0.223133 27.483963,-5.924734 64.736217,-11.818973 38.81689,-6.141803 44.41966,-3.06139 45.16966,-4.62389 0.59377,-1.23703 -11.78125,-14.9062508 -14.15625,-14.9687508 -2.375,-0.0625 -2.46749,5.4719178 -26.87501,10.5625008 C 48.31726,28.638327 35.615849,27.394877 32.115848,28.769877 Z"
       id="path9962"
       sodipodi:nodetypes="cssssscc" />
  </g>
</svg>
