<?xml version="1.0" encoding="UTF-8" standalone="no"?>
<!-- Created with Inkscape (http://www.inkscape.org/) -->

<svg
   width="180"
   height="180"
   viewBox="0 0 180 180"
   version="1.1"
   id="svg5"
   inkscape:version="1.2-alpha (0bd5040e63, 2022-02-05)"
   sodipodi:docname="活.svg"
   xmlns:inkscape="http://www.inkscape.org/namespaces/inkscape"
   xmlns:sodipodi="http://sodipodi.sourceforge.net/DTD/sodipodi-0.dtd"
   xmlns="http://www.w3.org/2000/svg"
   xmlns:svg="http://www.w3.org/2000/svg">
  <sodipodi:namedview
     id="namedview7"
     pagecolor="#505050"
     bordercolor="#ffffff"
     borderopacity="1"
     inkscape:pageshadow="0"
     inkscape:pageopacity="0"
     inkscape:pagecheckerboard="1"
     inkscape:blackoutopacity="0.0"
     inkscape:document-units="px"
     showgrid="false"
     inkscape:zoom="2.8284271"
     inkscape:cx="83.085047"
     inkscape:cy="91.393551"
     inkscape:window-width="1920"
     inkscape:window-height="1011"
     inkscape:window-x="-9"
     inkscape:window-y="30"
     inkscape:window-maximized="1"
     inkscape:current-layer="layer2" />
  <defs
     id="defs2" />
  <g
     inkscape:label="图层 1"
     inkscape:groupmode="layer"
     id="layer1"
     style="display:inline"
     sodipodi:insensitive="true">
    <text
       xml:space="preserve"
       style="font-style:normal;font-weight:normal;font-size:175.536px;line-height:1.25;font-family:sans-serif;fill:#000000;fill-opacity:1;stroke:none;stroke-width:4.38838"
       x="2.3197703"
       y="156.70367"
       id="text2280"><tspan
         sodipodi:role="line"
         id="tspan2278"
         x="2.3197703"
         y="156.70367"
         style="font-style:normal;font-variant:normal;font-weight:normal;font-stretch:normal;font-size:175.536px;font-family:'WenYue Juzhen';-inkscape-font-specification:'WenYue Juzhen';font-variant-ligatures:normal;font-variant-caps:normal;font-variant-numeric:normal;font-variant-east-asian:normal;stroke-width:4.38838">活</tspan></text>
  </g>
  <g
     inkscape:groupmode="layer"
     id="layer2"
     inkscape:label="图层 2"
     style="display:inline">
    <path
       style="font-variation-settings:normal;opacity:1;vector-effect:none;fill:#ffd42a;fill-opacity:0.609231;stroke:none;stroke-width:2.1;stroke-linecap:butt;stroke-linejoin:miter;stroke-miterlimit:4;stroke-dasharray:2.1, 4.2;stroke-dashoffset:0;stroke-opacity:1;-inkscape-stroke:none;stop-color:#000000;stop-opacity:1"
       d="m 19.195312,8.6484376 c 0,0 35.560734,13.0155544 35.898439,17.6640624 C 55.416838,30.759794 28.9375,42.125 28.9375,42.125 l -0.523993,-0.895201 c 0,0 10.398993,-8.354799 9.398993,-13.417299 -1,-5.0625 -19.25,-18.1015625 -19.25,-18.1015625 z"
       id="path3826"
       sodipodi:nodetypes="csccscc" />
    <path
       style="font-variation-settings:normal;opacity:1;vector-effect:none;fill:#ffd42a;fill-opacity:0.609231;stroke:none;stroke-width:2.1;stroke-linecap:butt;stroke-linejoin:miter;stroke-miterlimit:4;stroke-dasharray:2.1, 4.2;stroke-dashoffset:0;stroke-opacity:1;-inkscape-stroke:none;stop-color:#000000;stop-opacity:1"
       d="M 19.382937,97.481625 C 22.741694,78.920072 25.335826,73.482924 24.929956,69.259854 24.390703,63.648931 4.8515625,52.265626 4.8515625,52.265626 l 0.4720963,-1.029413 c 0,0 28.0429432,4.094893 31.8878362,9.751748 2.755671,4.054322 -7.133568,6.883567 -16.67951,36.758829 z"
       id="path4706"
       sodipodi:nodetypes="csccscc" />
    <path
       style="font-variation-settings:normal;opacity:1;vector-effect:none;fill:#ffd42a;fill-opacity:0.609231;stroke:none;stroke-width:2.1;stroke-linecap:butt;stroke-linejoin:miter;stroke-miterlimit:4;stroke-dasharray:2.1, 4.2;stroke-dashoffset:0;stroke-opacity:1;-inkscape-stroke:none;stop-color:#000000;stop-opacity:1"
       d="m 7.6357234,137.85669 -0.7439879,0.72791 c 0,0 12.9918685,25.70845 16.6385945,25.97032 1.640044,0.11777 9.119177,-35.74759 25.944107,-94.634838 L 48.033471,69.40403 c 0,0 -28.377221,72.59597 -30.752221,73.25222 -1.946496,0.53785 -9.6455266,-4.79956 -9.6455266,-4.79956 z"
       id="path5970"
       sodipodi:nodetypes="ccsccsc" />
    <path
       style="font-variation-settings:normal;opacity:1;vector-effect:none;fill:#ffd42a;fill-opacity:0.609231;stroke:none;stroke-width:2.1;stroke-linecap:butt;stroke-linejoin:miter;stroke-miterlimit:4;stroke-dasharray:2.1, 4.2;stroke-dashoffset:0;stroke-opacity:1;-inkscape-stroke:none;stop-color:#000000;stop-opacity:1"
       d="m 139.27746,4.190966 c 4.42233,2.7424176 6.19129,7.059034 9.75379,10.777784 3.5625,3.71875 4.375,4.859375 4.3125,5.796875 C 153.28125,21.703125 140.3125,24 130.0625,26.875 119.8125,29.75 65.750001,46 65.750001,46 l -0.375,-1.0625 c 0,0 54.544589,-22.092002 65.687499,-29 8.18028,-5.071327 7.48438,-11.4218749 7.48438,-11.4218749 z"
       id="path7254"
       sodipodi:nodetypes="csssccscc" />
    <path
       style="font-variation-settings:normal;opacity:1;vector-effect:none;fill:#ffd42a;fill-opacity:0.609231;stroke:none;stroke-width:2.1;stroke-linecap:butt;stroke-linejoin:miter;stroke-miterlimit:4;stroke-dasharray:2.1, 4.2;stroke-dashoffset:0;stroke-opacity:1;-inkscape-stroke:none;stop-color:#000000;stop-opacity:1"
       d="m 53.209786,78.842407 c 0,0 8.794641,4.640388 13.435029,5.08233 4.640388,0.441942 4.726678,-1.171167 47.464545,-8.264311 47.69678,-7.916168 59.70319,-5.704189 61.20579,-7.471956 1.5026,-1.767767 -8.52633,-13.918024 -12.15026,-13.829636 -3.62392,0.08839 1.78807,5.777089 -29.78687,11.048544 -41.076937,6.857818 -67.462409,10.16466 -80.013554,12.020815 z"
       id="path8443"
       sodipodi:nodetypes="cssssscc" />
    <path
       style="font-variation-settings:normal;opacity:1;vector-effect:none;fill:#ffd42a;fill-opacity:0.609231;stroke:none;stroke-width:2.1;stroke-linecap:butt;stroke-linejoin:miter;stroke-miterlimit:4;stroke-dasharray:2.1, 4.2;stroke-dashoffset:0;stroke-opacity:1;-inkscape-stroke:none;stop-color:#000000;stop-opacity:1"
       d="m 105.3125,116.3125 c 0,0 10.26064,-64.574619 12.91161,-71.607995 2.31543,-6.143134 4.52589,-5.048255 4.83839,-7.079505 0.21251,-1.381291 -7.5,-8.875 -7.5,-8.875 l -9.05454,2.495281 c 0,0 2.50928,3.136856 2.16551,6.805903 -2.29809,24.527767 -11.092733,78.928436 -11.092733,78.928436 z"
       id="path9057"
       sodipodi:nodetypes="cssccscc" />
    <path
       style="font-variation-settings:normal;opacity:1;vector-effect:none;fill:#ffd42a;fill-opacity:0.609231;stroke:none;stroke-width:2.1;stroke-linecap:butt;stroke-linejoin:miter;stroke-miterlimit:4;stroke-dasharray:2.1, 4.2;stroke-dashoffset:0;stroke-opacity:1;-inkscape-stroke:none;stop-color:#000000;stop-opacity:1"
       d="m 65.648438,104.69922 c 1.781954,6.47385 3.956414,9.40113 5.820392,19.36911 1.853511,9.91201 1.780727,22.14247 1.552618,25.75489 -0.463389,7.33839 -3.896447,7.19295 -3.396447,9.92678 0.5,2.73383 10.375,16 12.5,15.38495 2.125,-0.61504 1.4375,-3.75995 0.875,-11.88495 -0.5625,-8.125 -3.125,-27.9375 -3.625,-32.6875 -0.5,-4.75 1.8125,-8.375 1.8125,-8.375 0,0 -3.71875,-6.78125 -14.53125,-18.03125 z"
       id="path10152"
       sodipodi:nodetypes="cssssssccc" />
    <path
       style="font-variation-settings:normal;opacity:1;vector-effect:none;fill:#ffd42a;fill-opacity:0.609231;stroke:none;stroke-width:2.1;stroke-linecap:butt;stroke-linejoin:miter;stroke-miterlimit:4;stroke-dasharray:2.1, 4.2;stroke-dashoffset:0;stroke-opacity:1;-inkscape-stroke:none;stop-color:#000000;stop-opacity:1"
       d="m 74.609997,123.74369 c 10.086504,1.59098 16.783554,-0.70711 35.168333,-3.97748 18.38478,-3.27036 28.21863,-5.71621 29.01412,-4.92072 0.7955,0.7955 -0.46469,7.30721 -2.85117,19.5048 -2.38649,12.19759 -1.85615,5.30567 -2.56326,11.66726 -0.70711,6.36159 4.41942,10.68612 5.92202,10.68612 1.5026,0 7.20784,-31.36438 9.19683,-38.67934 1.6289,-5.99063 7.62412,-4.26823 7.62728,-6.46307 0.003,-2.2999 -11.3396,-13.407301 -13.46092,-13.142136 -2.12132,0.265165 0.45155,8.131126 -29.07541,13.614546 -36.179389,6.71884 -39.637103,5.94595 -39.637103,5.94595 z"
       id="path11152"
       sodipodi:nodetypes="cssssssssscc" />
    <path
       style="font-variation-settings:normal;opacity:1;vector-effect:none;fill:#ffd42a;fill-opacity:0.609231;stroke:none;stroke-width:2.1;stroke-linecap:butt;stroke-linejoin:miter;stroke-miterlimit:4;stroke-dasharray:2.1, 4.2;stroke-dashoffset:0;stroke-opacity:1;-inkscape-stroke:none;stop-color:#000000;stop-opacity:1"
       d="m 78.676352,156.14851 c 0,0 6.694062,-0.40035 31.160038,-2.79159 24.01173,-2.34685 26.71204,-3.68835 29.28686,-3.93642 2.57483,-0.24806 12.30337,5.34877 11.66727,8.39689 -0.35891,1.71989 -2.37231,-0.16478 -37.38827,3.0494 -32.120418,2.94839 -34.294679,3.68842 -34.294679,3.68842 z"
       id="path12921"
       sodipodi:nodetypes="csssscc" />
  </g>
</svg>
