<?xml version="1.0" encoding="UTF-8" standalone="no"?>
<!-- Created with Inkscape (http://www.inkscape.org/) -->

<svg
   width="180"
   height="180"
   viewBox="0 0 180 180"
   version="1.1"
   id="svg5"
   inkscape:version="1.2-alpha (0bd5040e63, 2022-02-05)"
   sodipodi:docname="溪.svg"
   xmlns:inkscape="http://www.inkscape.org/namespaces/inkscape"
   xmlns:sodipodi="http://sodipodi.sourceforge.net/DTD/sodipodi-0.dtd"
   xmlns="http://www.w3.org/2000/svg"
   xmlns:svg="http://www.w3.org/2000/svg">
  <sodipodi:namedview
     id="namedview7"
     pagecolor="#505050"
     bordercolor="#ffffff"
     borderopacity="1"
     inkscape:pageshadow="0"
     inkscape:pageopacity="0"
     inkscape:pagecheckerboard="1"
     inkscape:blackoutopacity="0.0"
     inkscape:document-units="px"
     showgrid="false"
     inkscape:zoom="1.9999999"
     inkscape:cx="62.500003"
     inkscape:cy="103.75"
     inkscape:window-width="1920"
     inkscape:window-height="1011"
     inkscape:window-x="-9"
     inkscape:window-y="30"
     inkscape:window-maximized="1"
     inkscape:current-layer="layer2" />
  <defs
     id="defs2" />
  <g
     inkscape:label="图层 1"
     inkscape:groupmode="layer"
     id="layer1"
     style="display:inline"
     sodipodi:insensitive="true">
    <text
       xml:space="preserve"
       style="font-style:normal;font-weight:normal;font-size:175.536px;line-height:1.25;font-family:sans-serif;fill:#000000;fill-opacity:1;stroke:none;stroke-width:4.38838"
       x="2.3197703"
       y="156.70367"
       id="text2280"><tspan
         sodipodi:role="line"
         id="tspan2278"
         x="2.3197703"
         y="156.70367"
         style="font-style:normal;font-variant:normal;font-weight:normal;font-stretch:normal;font-size:175.536px;font-family:'WenYue Juzhen';-inkscape-font-specification:'WenYue Juzhen';font-variant-ligatures:normal;font-variant-caps:normal;font-variant-numeric:normal;font-variant-east-asian:normal;stroke-width:4.38838">溪</tspan></text>
  </g>
  <g
     inkscape:groupmode="layer"
     id="layer2"
     inkscape:label="图层 2"
     style="display:inline">
    <path
       style="font-variation-settings:normal;opacity:1;vector-effect:none;fill:#ffd42a;fill-opacity:0.609231;stroke:none;stroke-width:2.1;stroke-linecap:butt;stroke-linejoin:miter;stroke-miterlimit:4;stroke-dasharray:2.1, 4.2;stroke-dashoffset:0;stroke-opacity:1;-inkscape-stroke:none;stop-color:#000000;stop-opacity:1"
       d="m 16.145331,10.210938 c 0,0 35.646515,11.472958 35.55469,16.132812 -0.05192,2.634794 -20.6875,18.703125 -20.6875,18.703125 l -0.8365,-0.629576 c 0,0 7.769031,-12.078651 7.0865,-15.917299 C 36.528155,24.369823 15.578812,11.339729 15.578812,11.339729 Z"
       id="path3826"
       sodipodi:nodetypes="csccscc" />
    <path
       style="font-variation-settings:normal;opacity:1;vector-effect:none;fill:#ffd42a;fill-opacity:0.609231;stroke:none;stroke-width:2.1;stroke-linecap:butt;stroke-linejoin:miter;stroke-miterlimit:4;stroke-dasharray:2.1, 4.2;stroke-dashoffset:0;stroke-opacity:1;-inkscape-stroke:none;stop-color:#000000;stop-opacity:1"
       d="M 16.136567,105.17141 C 19.495327,86.609858 26.226471,74.808749 25.820601,70.585679 25.281351,64.974756 4.3452368,54.386946 4.3452368,54.386946 l 0.4721,-1.029413 c 0,0 30.0547752,4.0847 31.9320232,12.049845 1.160397,4.923552 -9.299085,13.424305 -19.463743,40.029202 z"
       id="path4706"
       sodipodi:nodetypes="csccscc" />
    <path
       style="font-variation-settings:normal;opacity:1;vector-effect:none;fill:#ffd42a;fill-opacity:0.609231;stroke:none;stroke-width:2.1;stroke-linecap:butt;stroke-linejoin:miter;stroke-miterlimit:4;stroke-dasharray:2.1, 4.2;stroke-dashoffset:0;stroke-opacity:1;-inkscape-stroke:none;stop-color:#000000;stop-opacity:1"
       d="m 8.2576165,134.85669 -0.853365,0.80604 c 0,0 10.6506585,25.42723 14.3064925,25.473 2.347147,0.0294 9.388777,-24.3284 26.213707,-83.215648 l -1.44096,-0.516052 c 0,0 -25.87722,57.84597 -28.87722,60.62722 -1.480932,1.37295 -9.3486545,-3.17456 -9.3486545,-3.17456 z"
       id="path5970"
       sodipodi:nodetypes="ccsccsc" />
    <path
       style="font-variation-settings:normal;opacity:1;vector-effect:none;fill:#ffd42a;fill-opacity:0.609231;stroke:none;stroke-width:2.1;stroke-linecap:butt;stroke-linejoin:miter;stroke-miterlimit:4;stroke-dasharray:2.1, 4.2;stroke-dashoffset:0;stroke-opacity:1;-inkscape-stroke:none;stop-color:#000000;stop-opacity:1"
       d="m 54.712388,36.681165 c 0,0 49.962532,-10.762224 73.539102,-14.053748 12.19439,-1.702458 17.76606,-2.298097 18.16381,-3.314563 0.28125,-0.718749 -2.16552,-3.889087 -4.41942,-6.629126 -2.2539,-2.7400388 -6.54074,-7.8186898 -6.54074,-7.8186898 h -2.09922 c 0,0 -4.04377,7.8628838 -13.14777,11.1332528 -9.104,3.270369 -65.893509,18.848816 -65.893509,18.848816 z"
       id="path14993"
       sodipodi:nodetypes="csssccscc" />
    <path
       style="font-variation-settings:normal;opacity:1;vector-effect:none;fill:#ffd42a;fill-opacity:0.609231;stroke:none;stroke-width:2.1;stroke-linecap:butt;stroke-linejoin:miter;stroke-miterlimit:4;stroke-dasharray:2.1, 4.2;stroke-dashoffset:0;stroke-opacity:1;-inkscape-stroke:none;stop-color:#000000;stop-opacity:1"
       d="m 51.545518,71.749242 c 0,0 19.783879,-16.46233 28.445937,-23.179845 7.955421,-6.169509 8.883029,-5.104426 9.413359,-5.899921 0.53033,-0.795496 -1.149048,-3.292467 -2.519067,-5.369593 -1.37002,-2.077126 -4.581242,-7.406504 -4.581242,-7.406504 l -2.445539,0.169206 c 0,0 0.188485,4.357395 -4.021763,10.154113 -6.098796,8.396893 -25.46283,30.317204 -25.46283,30.317204 z"
       id="path18600"
       sodipodi:nodetypes="csssccscc" />
    <path
       style="font-variation-settings:normal;opacity:1;vector-effect:none;fill:#ffd42a;fill-opacity:0.609231;stroke:none;stroke-width:2.1;stroke-linecap:butt;stroke-linejoin:miter;stroke-miterlimit:4;stroke-dasharray:2.1, 4.2;stroke-dashoffset:0;stroke-opacity:1;-inkscape-stroke:none;stop-color:#000000;stop-opacity:1"
       d="M 95.093751,26.75 C 103.46875,47 106.05178,57.583947 106.05178,57.583947 l 1.44443,0.114277 c 0,0 5.86362,-9.495559 5.42612,-12.120559 C 112.48483,42.952665 97.531251,26 97.531251,26 Z"
       id="path21766"
       sodipodi:nodetypes="cccscc" />
    <path
       style="font-variation-settings:normal;opacity:1;vector-effect:none;fill:#ffd42a;fill-opacity:0.609231;stroke:none;stroke-width:2.1;stroke-linecap:butt;stroke-linejoin:miter;stroke-miterlimit:4;stroke-dasharray:2.1, 4.2;stroke-dashoffset:0;stroke-opacity:1;-inkscape-stroke:none;stop-color:#000000;stop-opacity:1"
       d="m 117.23198,21.673451 c 9.45755,8.131728 28.14002,30.084316 37.27085,34.895092 8.44993,4.452028 19.62222,4.772971 19.62222,4.772971 l 0.44194,2.828427 c 0,0 -22.8042,5.126525 -25.36746,3.800699 -2.56326,-1.325825 -26.22231,-36.486082 -37.00569,-44.794587 z"
       id="path26791"
       sodipodi:nodetypes="csccscc" />
    <path
       style="font-variation-settings:normal;opacity:1;vector-effect:none;fill:#ffd42a;fill-opacity:0.609231;stroke:none;stroke-width:2.1;stroke-linecap:butt;stroke-linejoin:miter;stroke-miterlimit:4;stroke-dasharray:2.1, 4.2;stroke-dashoffset:0;stroke-opacity:1;-inkscape-stroke:none;stop-color:#000000;stop-opacity:1"
       d="m 89.505146,87.283494 c 0,0 5.809576,-10.586571 8.91528,-16.749592 3.105704,-6.163021 4.286834,-4.552 4.596194,-5.966213 0.30936,-1.414214 -1.63518,-3.535534 -3.668116,-5.347495 -2.032932,-1.811962 -5.701049,-4.552 -5.701049,-4.552 l -1.272451,0.488058 c 0,0 0.470971,5.420115 -0.591529,11.795115 -1.0625,6.375 -6.056219,18.335249 -6.056219,18.335249 z"
       id="path45874"
       sodipodi:nodetypes="csssccscc" />
    <path
       style="font-variation-settings:normal;opacity:1;vector-effect:none;fill:#ffd42a;fill-opacity:0.609231;stroke:none;stroke-width:2.1;stroke-linecap:butt;stroke-linejoin:miter;stroke-miterlimit:4;stroke-dasharray:2.1, 4.2;stroke-dashoffset:0;stroke-opacity:1;-inkscape-stroke:none;stop-color:#000000;stop-opacity:1"
       d="m 65.497087,73.124395 c 0,0 31.493809,13.732044 33.098671,16.02942 1.604852,2.297376 1.642732,12.321225 1.642732,12.321225 l -1.82534,0.87334 c 0,0 -5.30219,-7.5642 -33.573865,-28.080904 z"
       id="path1964"
       sodipodi:nodetypes="cscccc" />
    <path
       style="font-variation-settings:normal;opacity:1;vector-effect:none;fill:#ffd42a;fill-opacity:0.609231;stroke:none;stroke-width:2.1;stroke-linecap:butt;stroke-linejoin:miter;stroke-miterlimit:4;stroke-dasharray:2.1, 4.2;stroke-dashoffset:0;stroke-opacity:1;-inkscape-stroke:none;stop-color:#000000;stop-opacity:1"
       d="m 99.750004,103.875 c 0,0 23.875006,-27.749997 27.500006,-32.125758 3.625,-4.375761 7.875,-3.559575 8.375,-4.624239 0.5,-1.064664 -2.875,-4 -4.875,-6.4375 -2,-2.4375 -5.5,-7.500001 -5.5,-7.500001 l -1.21906,0.221159 c 0,0 0.0252,3.595669 -5.90594,14.781006 C 112.19384,79.375004 96.187504,101.875 96.187504,101.875 Z"
       id="path4030" />
    <path
       style="font-variation-settings:normal;opacity:1;vector-effect:none;fill:#ffd42a;fill-opacity:0.609231;stroke:none;stroke-width:2.1;stroke-linecap:butt;stroke-linejoin:miter;stroke-miterlimit:4;stroke-dasharray:2.1, 4.2;stroke-dashoffset:0;stroke-opacity:1;-inkscape-stroke:none;stop-color:#000000;stop-opacity:1"
       d="m 141.68652,94.884896 c -59.325266,6.586234 -62.794173,5.560884 -87.272766,7.463484 l -0.585248,1.83598 c 0,0 7.336233,6.56624 12.197593,7.00819 4.861359,0.44194 7.796313,-2.06244 41.984471,-7.31755 28.57697,-4.392611 34.33887,-5.587153 34.33887,-5.587153 z"
       id="path4032"
       sodipodi:nodetypes="cccsscc" />
    <path
       style="font-variation-settings:normal;opacity:1;vector-effect:none;fill:#ffd42a;fill-opacity:0.609231;stroke:none;stroke-width:2.1;stroke-linecap:butt;stroke-linejoin:miter;stroke-miterlimit:4;stroke-dasharray:2.1, 4.2;stroke-dashoffset:0;stroke-opacity:1;-inkscape-stroke:none;stop-color:#000000;stop-opacity:1"
       d="m 131.72453,77.480433 c 0,0 19.50793,18.868201 19.94988,21.868074 0.44194,2.999873 -7.6014,15.114413 -7.6014,15.114413 l -1.72357,-0.17678 c 0,0 -3.68374,-19.91817 -11.90386,-36.004851 z"
       id="path5590"
       sodipodi:nodetypes="cscccc" />
    <path
       style="font-variation-settings:normal;opacity:1;vector-effect:none;fill:#ffd42a;fill-opacity:0.609231;stroke:none;stroke-width:2.1;stroke-linecap:butt;stroke-linejoin:miter;stroke-miterlimit:4;stroke-dasharray:2.1, 4.2;stroke-dashoffset:0;stroke-opacity:1;-inkscape-stroke:none;stop-color:#000000;stop-opacity:1"
       d="m 44.365849,131.88907 c 0,0 10.263595,7.11094 12.826096,7.42344 2.5625,0.3125 22.683059,-4.8125 62.433065,-8.0625 39.75,-3.25 48,-0.5 48.625,-2.375 0.625,-1.875 -11.47097,-12.14645 -13.34597,-12.02145 -1.875,0.125 -0.48824,3.00005 -33.65403,6.64645 -62.91188,6.91682 -76.356702,6.45267 -76.356702,6.45267 z"
       id="path13753"
       sodipodi:nodetypes="cssssscc" />
    <path
       style="font-variation-settings:normal;opacity:1;vector-effect:none;fill:#ffd42a;fill-opacity:0.609231;stroke:none;stroke-width:2.1;stroke-linecap:butt;stroke-linejoin:miter;stroke-miterlimit:4;stroke-dasharray:2.1, 4.2;stroke-dashoffset:0;stroke-opacity:1;-inkscape-stroke:none;stop-color:#000000;stop-opacity:1"
       d="M 32.625001,175.93549 C 94.250004,161.74597 102.1875,131.12501 105.75,116.43751 c 1.76899,-7.29322 4.875,-5.68751 5.0625,-6.81251 0.1875,-1.125 -2,-4.25 -7.7633,-8.1875 l -8.049196,0.91088 c 0,0 2.5625,5.00674 2.125,10.96413 -0.4375,5.95738 -4.386643,40.45803 -64.968753,60.65625 z"
       id="path15724"
       sodipodi:nodetypes="cssccscc" />
    <path
       style="font-variation-settings:normal;opacity:1;vector-effect:none;fill:#ffd42a;fill-opacity:0.609231;stroke:none;stroke-width:2.1;stroke-linecap:butt;stroke-linejoin:miter;stroke-miterlimit:4;stroke-dasharray:2.1, 4.2;stroke-dashoffset:0;stroke-opacity:1;-inkscape-stroke:none;stop-color:#000000;stop-opacity:1"
       d="m 93.301184,132.83063 c 17.718266,8.03098 45.948826,40.79438 51.573826,41.16938 5.625,0.375 30.70611,-5.4375 30.70611,-5.4375 l -0.45611,-4.0625 c 0,0 -13.98668,1.03176 -26.625,-3.61425 -13.0092,-4.78235 -31.56694,-21.75919 -51.941948,-31.8643 z"
       id="path18569"
       sodipodi:nodetypes="csccscc" />
  </g>
</svg>
