<?xml version="1.0" encoding="UTF-8" standalone="no"?>
<!-- Created with Inkscape (http://www.inkscape.org/) -->

<svg
   width="180"
   height="180"
   viewBox="0 0 180 180"
   version="1.1"
   id="svg5"
   inkscape:version="1.2-alpha (0bd5040e63, 2022-02-05)"
   sodipodi:docname="研.svg"
   xmlns:inkscape="http://www.inkscape.org/namespaces/inkscape"
   xmlns:sodipodi="http://sodipodi.sourceforge.net/DTD/sodipodi-0.dtd"
   xmlns="http://www.w3.org/2000/svg"
   xmlns:svg="http://www.w3.org/2000/svg">
  <sodipodi:namedview
     id="namedview7"
     pagecolor="#505050"
     bordercolor="#ffffff"
     borderopacity="1"
     inkscape:pageshadow="0"
     inkscape:pageopacity="0"
     inkscape:pagecheckerboard="1"
     inkscape:blackoutopacity="0.0"
     inkscape:document-units="px"
     showgrid="false"
     inkscape:zoom="2.8284271"
     inkscape:cx="174.65538"
     inkscape:cy="111.89965"
     inkscape:window-width="1920"
     inkscape:window-height="1011"
     inkscape:window-x="-9"
     inkscape:window-y="30"
     inkscape:window-maximized="1"
     inkscape:current-layer="layer1" />
  <defs
     id="defs2" />
  <g
     inkscape:label="图层 1"
     inkscape:groupmode="layer"
     id="layer1"
     style="display:inline"
     sodipodi:insensitive="true">
    <text
       xml:space="preserve"
       style="font-style:normal;font-weight:normal;font-size:175.536px;line-height:1.25;font-family:sans-serif;fill:#000000;fill-opacity:1;stroke:none;stroke-width:4.38838"
       x="2.3197703"
       y="156.70367"
       id="text2280"><tspan
         sodipodi:role="line"
         id="tspan2278"
         x="2.3197703"
         y="156.70367"
         style="font-style:normal;font-variant:normal;font-weight:normal;font-stretch:normal;font-size:175.536px;font-family:'WenYue Juzhen';-inkscape-font-specification:'WenYue Juzhen';font-variant-ligatures:normal;font-variant-caps:normal;font-variant-numeric:normal;font-variant-east-asian:normal;stroke-width:4.38838">研</tspan></text>
  </g>
  <g
     inkscape:groupmode="layer"
     id="layer2"
     inkscape:label="图层 2"
     style="display:inline">
    <path
       style="font-variation-settings:normal;opacity:1;vector-effect:none;fill:#ffd42a;fill-opacity:0.609231;stroke:none;stroke-width:2.1;stroke-linecap:butt;stroke-linejoin:miter;stroke-miterlimit:4;stroke-dasharray:2.1, 4.2;stroke-dashoffset:0;stroke-opacity:1;-inkscape-stroke:none;stop-color:#000000;stop-opacity:1"
       d="m 8.7946406,31.952387 c 0,0 7.0742084,6.485821 9.6374704,7.281316 2.563262,0.795495 15.233126,-2.485597 32.910796,-5.932743 C 69.020576,29.853815 75.837202,29.256543 76.721086,28.284271 77.604969,27.311999 69.0313,17.766058 67.263533,17.942835 65.495766,18.119611 64.145635,23.129037 44.370951,26.428116 19.103833,30.643517 9.1530957,30.80602 9.1530957,30.80602 Z"
       id="path5132"
       sodipodi:nodetypes="cssssscc" />
    <path
       style="font-variation-settings:normal;opacity:1;vector-effect:none;fill:#ffd42a;fill-opacity:0.609231;stroke:none;stroke-width:2.1;stroke-linecap:butt;stroke-linejoin:miter;stroke-miterlimit:4;stroke-dasharray:2.1, 4.2;stroke-dashoffset:0;stroke-opacity:1;-inkscape-stroke:none;stop-color:#000000;stop-opacity:1"
       d="M 1.925581,104.78217 C 20.778819,83.511355 40.587973,46.271806 42.745531,41.873699 44.397056,38.507121 44.375,31.625 44.375,31.625 l 9.718669,-2.280069 c 0,0 3.430141,8.523003 2.546257,10.202382 -0.883883,1.679379 -2.634646,0.846162 -4.932743,4.735249 C 49.409086,48.17165 24.6783,88.514268 2.8463783,105.75 Z"
       id="path6366"
       sodipodi:nodetypes="csccsscc" />
    <path
       style="font-variation-settings:normal;opacity:1;vector-effect:none;fill:#ffd42a;fill-opacity:0.609231;stroke:none;stroke-width:2.1;stroke-linecap:butt;stroke-linejoin:miter;stroke-miterlimit:4;stroke-dasharray:2.1, 4.2;stroke-dashoffset:0;stroke-opacity:1;-inkscape-stroke:none;stop-color:#000000;stop-opacity:1"
       d="m 16.086679,63.993164 c 10.141454,17.185229 10.325556,31.145744 10.960155,47.006746 0.828249,20.70103 -2.695844,18.88676 -2.077125,22.28971 0.618718,3.40295 7.839556,15.69411 11.534679,14.14215 2.209709,-0.92808 -2.508216,-32.82314 -4.42386,-65.256495 0,0 -4.598795,-10.378048 -15.109965,-18.933412 z"
       id="path17207"
       sodipodi:nodetypes="csssccc" />
    <path
       style="font-variation-settings:normal;opacity:1;vector-effect:none;fill:#ffd42a;fill-opacity:0.609231;stroke:none;stroke-width:2.1;stroke-linecap:butt;stroke-linejoin:miter;stroke-miterlimit:4;stroke-dasharray:2.1, 4.2;stroke-dashoffset:0;stroke-opacity:1;-inkscape-stroke:none;stop-color:#000000;stop-opacity:1"
       d="m 59.131805,117.73328 c -0.242418,-19.700639 1.757043,-27.54578 2.640927,-31.190364 0.883883,-3.644584 5.04886,-3.546257 4.96047,-6.065325 -0.08839,-2.519068 -7.910757,-11.976621 -9.947709,-11.976621 -2.036953,0 -3.712193,6.702349 -16.049188,10.274495 -10.068917,2.91543 -11.380768,2.356155 -11.380768,2.356155 L 30.4375,88 c 0,0 5.655869,-0.931218 11.642005,-2.658471 C 47.744628,83.706902 50.5625,82.875 51.4375,83.3125 c 0.875,0.4375 1.125,5.125 0.5,17.0625 -0.625,11.9375 -2.1875,18 -2.1875,18 z"
       id="path27472"
       sodipodi:nodetypes="cssssccssscc" />
    <path
       style="font-variation-settings:normal;opacity:1;vector-effect:none;fill:#ffd42a;fill-opacity:0.609231;stroke:none;stroke-width:2.1;stroke-linecap:butt;stroke-linejoin:miter;stroke-miterlimit:4;stroke-dasharray:2.1, 4.2;stroke-dashoffset:0;stroke-opacity:1;-inkscape-stroke:none;stop-color:#000000;stop-opacity:1"
       d="m 32.792078,119.58944 c 0,0 3.344246,-0.3815 12.595339,-2.65166 6.218996,-1.52609 6.717514,-4.15425 9.280776,-4.41941 2.563262,-0.26517 9.899495,6.18718 9.899495,8.61786 0,1.90035 -2.074677,0.56536 -15.865708,3.49134 -8.127252,1.72432 -10.938553,2.64032 -14.893437,3.97748 z"
       id="path32838"
       sodipodi:nodetypes="csssscc" />
    <path
       style="font-variation-settings:normal;opacity:1;vector-effect:none;fill:#ffd42a;fill-opacity:0.609231;stroke:none;stroke-width:2.1;stroke-linecap:butt;stroke-linejoin:miter;stroke-miterlimit:4;stroke-dasharray:2.1, 4.2;stroke-dashoffset:0;stroke-opacity:1;-inkscape-stroke:none;stop-color:#000000;stop-opacity:1"
       d="M 62.125,51.75 C 84,42.6875 104.01833,29.718385 108.9375,26.9375 c 7.1008,-4.014196 13.03125,-5.5 12.90625,-7.03125 C 121.71875,18.375 112.8125,9.09375 107.625,5.7427182 l -0.89607,0.5328545 C 107.05145,9.0369369 106.9375,12.8125 101.5625,18.625 96.1875,24.4375 86.878248,33.652541 61.600397,50.530945 Z"
       id="path48113"
       sodipodi:nodetypes="cssccscc" />
    <path
       style="font-variation-settings:normal;opacity:1;vector-effect:none;fill:#ffd42a;fill-opacity:0.609231;stroke:none;stroke-width:2.1;stroke-linecap:butt;stroke-linejoin:miter;stroke-miterlimit:4;stroke-dasharray:2.1, 4.2;stroke-dashoffset:0;stroke-opacity:1;-inkscape-stroke:none;stop-color:#000000;stop-opacity:1"
       d="m 62.197573,94.808709 c 0,0 8.584939,7.744681 14.760835,6.735481 C 79.374479,101.14939 80.038675,98.600951 87.375,95.5 104.081,88.438634 127.75,76.375 127.75,76.375 l -0.4375,-1.0625 c -8.84776,1.733473 -52.130236,17.584874 -64.68566,18.375485 z"
       id="path52514"
       sodipodi:nodetypes="csscccc" />
    <path
       style="font-variation-settings:normal;opacity:1;vector-effect:none;fill:#ffd42a;fill-opacity:0.609231;stroke:none;stroke-width:2.1;stroke-linecap:butt;stroke-linejoin:miter;stroke-miterlimit:4;stroke-dasharray:2.1, 4.2;stroke-dashoffset:0;stroke-opacity:1;-inkscape-stroke:none;stop-color:#000000;stop-opacity:1"
       d="m 110.29761,36.79165 c 0,0 6.81381,7.443577 9.99579,6.824859 3.18198,-0.618719 2.99816,-1.871378 22.63056,-5.874684 27.10847,-5.527777 26.82587,-3.27037 28.59364,-4.507807 1.76776,-1.237437 -5.92203,-11.136931 -8.30851,-11.22532 -2.38649,-0.08839 -5.19607,3.732029 -21.24224,7.954952 -18.77418,4.940864 -31.30464,6.054602 -31.30464,6.054602 z"
       id="path59360"
       sodipodi:nodetypes="cssssscc" />
    <path
       style="font-variation-settings:normal;opacity:1;vector-effect:none;fill:#ffd42a;fill-opacity:0.609231;stroke:none;stroke-width:2.1;stroke-linecap:butt;stroke-linejoin:miter;stroke-miterlimit:4;stroke-dasharray:2.1, 4.2;stroke-dashoffset:0;stroke-opacity:1;-inkscape-stroke:none;stop-color:#000000;stop-opacity:1"
       d="m 106.37001,92.087714 c 0,0 2.30078,4.349335 6.63181,5.189024 4.33103,0.83969 10.68217,-1.52608 32.66218,-4.468973 26.3837,-3.532501 30.67331,-0.883883 31.48962,-2.342291 0.81632,-1.458408 -6.21056,-11.402097 -9.83448,-11.269514 -3.62392,0.132582 -3.13648,2.948554 -26.82456,6.857679 -23.68808,3.909125 -26.30789,3.826262 -33.64412,5.240475 z"
       id="path68943"
       sodipodi:nodetypes="cssssscc" />
    <path
       style="font-variation-settings:normal;opacity:1;vector-effect:none;fill:#ffd42a;fill-opacity:0.609231;stroke:none;stroke-width:2.1;stroke-linecap:butt;stroke-linejoin:miter;stroke-miterlimit:4;stroke-dasharray:2.1, 4.2;stroke-dashoffset:0;stroke-opacity:1;-inkscape-stroke:none;stop-color:#000000;stop-opacity:1"
       d="m 133.24543,37.565048 c 0,0 1.85822,3.365445 2.58601,7.816087 0.75758,4.632806 0.46843,44.272589 -0.31,88.726585 -0.44698,25.52583 -3.83394,20.57978 -3.95894,23.89228 -0.125,3.3125 6.0625,16.75 8.75,16.43281 2.6875,-0.31719 4.75,-5.51148 4.75,-11.43281 0,-5.92133 -0.3125,-8.375 -0.3125,-20.75 0,-12.375 0.22032,-91.787913 0.22032,-96.412913 0,-4.625 2.15468,-4.337087 2.09218,-5.837087 -0.0625,-1.5 -4.375,-5 -4.375,-5 z"
       id="path83963"
       sodipodi:nodetypes="csssssssscc" />
    <path
       style="font-variation-settings:normal;opacity:1;vector-effect:none;fill:#ffd42a;fill-opacity:0.609231;stroke:none;stroke-width:2.1;stroke-linecap:butt;stroke-linejoin:miter;stroke-miterlimit:4;stroke-dasharray:2.1, 4.2;stroke-dashoffset:0;stroke-opacity:1;-inkscape-stroke:none;stop-color:#000000;stop-opacity:1"
       d="M 42.581086,164.68959 C 94.536416,143.25263 100.73597,98.711543 98.723336,45.744911 98.577574,41.908863 99.802695,42.113399 99.875,40.181758 99.93296,38.63335 95.459416,32.830121 95.459416,32.830121 L 87.5,37.75 c 0,0 5.657005,27.541524 -1,65.55502 -6.96018,39.74472 -44.668544,59.70191 -44.668544,59.70191 z"
       id="path103688"
       sodipodi:nodetypes="cssccscc" />
  </g>
</svg>
