<?xml version="1.0" encoding="UTF-8" standalone="no"?>
<!-- Created with Inkscape (http://www.inkscape.org/) -->

<svg
   width="180"
   height="180"
   viewBox="0 0 180 180"
   version="1.1"
   id="svg5"
   inkscape:version="1.2-alpha (0bd5040e63, 2022-02-05)"
   sodipodi:docname="谿.svg"
   xmlns:inkscape="http://www.inkscape.org/namespaces/inkscape"
   xmlns:sodipodi="http://sodipodi.sourceforge.net/DTD/sodipodi-0.dtd"
   xmlns="http://www.w3.org/2000/svg"
   xmlns:svg="http://www.w3.org/2000/svg">
  <sodipodi:namedview
     id="namedview7"
     pagecolor="#505050"
     bordercolor="#ffffff"
     borderopacity="1"
     inkscape:pageshadow="0"
     inkscape:pageopacity="0"
     inkscape:pagecheckerboard="1"
     inkscape:blackoutopacity="0.0"
     inkscape:document-units="px"
     showgrid="false"
     inkscape:zoom="11.313708"
     inkscape:cx="119.94299"
     inkscape:cy="132.008"
     inkscape:window-width="1920"
     inkscape:window-height="1011"
     inkscape:window-x="-9"
     inkscape:window-y="30"
     inkscape:window-maximized="1"
     inkscape:current-layer="layer2" />
  <defs
     id="defs2" />
  <g
     inkscape:label="图层 1"
     inkscape:groupmode="layer"
     id="layer1"
     style="display:inline"
     sodipodi:insensitive="true">
    <text
       xml:space="preserve"
       style="font-style:normal;font-weight:normal;font-size:175.536px;line-height:1.25;font-family:sans-serif;fill:#000000;fill-opacity:1;stroke:none;stroke-width:4.38838"
       x="2.3197703"
       y="156.70367"
       id="text2280"><tspan
         sodipodi:role="line"
         id="tspan2278"
         x="2.3197703"
         y="156.70367"
         style="font-style:normal;font-variant:normal;font-weight:normal;font-stretch:normal;font-size:175.536px;font-family:'WenYue Juzhen';-inkscape-font-specification:'WenYue Juzhen';font-variant-ligatures:normal;font-variant-caps:normal;font-variant-numeric:normal;font-variant-east-asian:normal;stroke-width:4.38838">谿</tspan></text>
  </g>
  <g
     inkscape:groupmode="layer"
     id="layer2"
     inkscape:label="图层 2"
     style="display:inline">
    <path
       style="font-variation-settings:normal;opacity:1;vector-effect:none;fill:#ffd42a;fill-opacity:0.609231;stroke:none;stroke-width:2.1;stroke-linecap:butt;stroke-linejoin:miter;stroke-miterlimit:4;stroke-dasharray:2.1, 4.2;stroke-dashoffset:0;stroke-opacity:1;-inkscape-stroke:none;stop-color:#000000;stop-opacity:1"
       d="m 26.339728,35.620504 c 0,0 23.511301,-7.336232 33.322407,-11.048543 9.811107,-3.712315 12.506952,-3.270369 12.904699,-3.756505 0.397748,-0.486136 -1.414213,-4.375223 -2.916815,-6.938485 -1.502602,-2.563262 -5.038136,-6.5544288 -5.038136,-6.5544288 l -1.182194,0.3893412 c 0,0 0.166301,3.8957456 -3.369806,7.3141356 C 56.220121,18.737955 51.125001,21.875 25.75,32.6875 Z"
       id="path4040"
       sodipodi:nodetypes="csssccscc" />
    <path
       style="font-variation-settings:normal;opacity:1;vector-effect:none;fill:#ffd42a;fill-opacity:0.609231;stroke:none;stroke-width:2.1;stroke-linecap:butt;stroke-linejoin:miter;stroke-miterlimit:4;stroke-dasharray:2.1, 4.2;stroke-dashoffset:0;stroke-opacity:1;-inkscape-stroke:none;stop-color:#000000;stop-opacity:1"
       d="m 16,22.0625 c 0,0 7.167673,3.140881 12.583947,11.029029 3.405996,4.960423 5.853553,19.196923 6.228553,23.533472 0.276506,3.19755 0.25,7.46875 -1.3125,7.96875 -1.5625,0.5 -8.073223,-8.118718 -8.760723,-10.493718 C 24.051777,51.725033 26.125,49.625 25.375,44.5625 24.625,39.5 22.927522,33.997953 21.077665,30.635723 18.963388,26.792893 15.147097,22.915078 15.147097,22.915078 Z"
       id="path4553"
       sodipodi:nodetypes="csssssscc" />
    <path
       style="font-variation-settings:normal;opacity:1;vector-effect:none;fill:#ffd42a;fill-opacity:0.609231;stroke:none;stroke-width:2.1;stroke-linecap:butt;stroke-linejoin:miter;stroke-miterlimit:4;stroke-dasharray:2.1, 4.2;stroke-dashoffset:0;stroke-opacity:1;-inkscape-stroke:none;stop-color:#000000;stop-opacity:1"
       d="m 43.5625,28.6875 c 6.250001,15.9375 8.179688,23.218751 8.179688,23.218751 l 1.320313,0.03125 c 0,0 2.9375,-4.625001 2.3125,-7.875001 -0.625,-3.25 -10.187501,-16.125 -10.187501,-16.125 z"
       id="path6969"
       sodipodi:nodetypes="cccscc" />
    <path
       style="font-variation-settings:normal;opacity:1;vector-effect:none;fill:#ffd42a;fill-opacity:0.609231;stroke:none;stroke-width:2.1;stroke-linecap:butt;stroke-linejoin:miter;stroke-miterlimit:4;stroke-dasharray:2.1, 4.2;stroke-dashoffset:0;stroke-opacity:1;-inkscape-stroke:none;stop-color:#000000;stop-opacity:1"
       d="m 60.55871,59.330807 c 0,0 18.709681,-20.501431 22.378791,-24.518307 3.955586,-4.330505 4.4375,-3.963389 4.499349,-5.077015 0.07672,-1.381367 -1.780599,-2.84486 -3.186849,-4.40736 -1.330724,-1.478582 -4.4375,-5.765625 -4.4375,-5.765625 l -1.375,0.45234 c 0,0 1.006915,6.286999 -2.78033,12.596296 -5.627477,9.375 -16.09467,25.888865 -16.09467,25.888865 z"
       id="path7229"
       sodipodi:nodetypes="csssccscc" />
    <path
       style="font-variation-settings:normal;opacity:1;vector-effect:none;fill:#ffd42a;fill-opacity:0.609231;stroke:none;stroke-width:2.1;stroke-linecap:butt;stroke-linejoin:miter;stroke-miterlimit:4;stroke-dasharray:2.1, 4.2;stroke-dashoffset:0;stroke-opacity:1;-inkscape-stroke:none;stop-color:#000000;stop-opacity:1"
       d="m 37.875,81.375001 c 0,0 6.75,-10.75 9.75,-15.6875 2.380657,-3.918164 4.562501,-6.3125 4.375001,-7.25 -0.1875,-0.937501 -2.125,-2.375 -3.250001,-3.6875 -1.125,-1.3125 -3.734375,-4.625 -3.734375,-4.625 l -1.129576,0.294194 c 0,0 -0.01105,5.268306 -1.448549,10.268306 -1.4375,5 -7,19.5625 -7,19.5625 z"
       id="path11874"
       sodipodi:nodetypes="csssccscc" />
    <path
       style="font-variation-settings:normal;opacity:1;vector-effect:none;fill:#ffd42a;fill-opacity:0.609231;stroke:none;stroke-width:2.1;stroke-linecap:butt;stroke-linejoin:miter;stroke-miterlimit:4;stroke-dasharray:2.1, 4.2;stroke-dashoffset:0;stroke-opacity:1;-inkscape-stroke:none;stop-color:#000000;stop-opacity:1"
       d="m 15.752468,69.924654 c 20.228053,12.697105 27.751445,23.059797 27.751445,23.059797 l 1.713763,-1.330432 c 0,0 -1.577574,-8.994556 -4.596812,-11.317773 -3.019237,-2.323217 -24.287882,-11.54861 -24.287882,-11.54861 z"
       id="path13527"
       sodipodi:nodetypes="cccscc" />
    <path
       style="font-variation-settings:normal;opacity:1;vector-effect:none;fill:#ffd42a;fill-opacity:0.609231;stroke:none;stroke-width:2.1;stroke-linecap:butt;stroke-linejoin:miter;stroke-miterlimit:4;stroke-dasharray:2.1, 4.2;stroke-dashoffset:0;stroke-opacity:1;-inkscape-stroke:none;stop-color:#000000;stop-opacity:1"
       d="m 35,102.8125 c 0,0 24.875001,-22.999999 30.875001,-28.437499 4.193701,-3.800542 6.125,-3.4375 6.625,-4.4375 0.5,-1 -0.5,-3 -1.75,-4.875 -1.25,-1.875 -3.207031,-5.351563 -3.207031,-5.351563 l -1.410157,-0.02466 c 0,0 -0.778484,2.13637 -6.570312,9.989024 C 54.750001,76.200165 32.0625,101.125 32.0625,101.125 Z"
       id="path17199"
       sodipodi:nodetypes="csssccscc" />
    <path
       style="font-variation-settings:normal;opacity:1;vector-effect:none;fill:#ffd42a;fill-opacity:0.609231;stroke:none;stroke-width:2.1;stroke-linecap:butt;stroke-linejoin:miter;stroke-miterlimit:4;stroke-dasharray:2.1, 4.2;stroke-dashoffset:0;stroke-opacity:1;-inkscape-stroke:none;stop-color:#000000;stop-opacity:1"
       d="m 73.500826,90 0.999175,2.984451 c 0,0 -5.476772,1.14055 -22.153005,6.765549 -17.188574,5.79781 -27.034496,9.875 -30.159496,10 -3.125,0.125 -14.4999999,-8.125 -14.4999999,-8.125 l 0.625,-1.5625 C 17.191338,99.719753 20.927702,101.10299 49.96783,95.620559 71.313899,91.590676 73.500826,90 73.500826,90 Z"
       id="path18125"
       sodipodi:nodetypes="ccssccsc" />
    <path
       style="font-variation-settings:normal;opacity:1;vector-effect:none;fill:#ffd42a;fill-opacity:0.609231;stroke:none;stroke-width:2.1;stroke-linecap:butt;stroke-linejoin:miter;stroke-miterlimit:4;stroke-dasharray:2.1, 4.2;stroke-dashoffset:0;stroke-opacity:1;-inkscape-stroke:none;stop-color:#000000;stop-opacity:1"
       d="m 65.31899,79.019184 c 9.192388,16.086679 13.705555,25.465646 13.705555,25.465646 l 1.34099,0.0107 c 0,0 2.417736,-7.876362 2.152571,-10.08607 -0.265165,-2.209709 -15.88434,-16.35152 -15.88434,-16.35152 z"
       id="path19163"
       sodipodi:nodetypes="cccscc" />
    <path
       style="font-variation-settings:normal;opacity:1;vector-effect:none;fill:#ffd42a;fill-opacity:0.609231;stroke:none;stroke-width:2.1;stroke-linecap:butt;stroke-linejoin:miter;stroke-miterlimit:4;stroke-dasharray:2.1, 4.2;stroke-dashoffset:0;stroke-opacity:1;-inkscape-stroke:none;stop-color:#000000;stop-opacity:1"
       d="m 3.5,131.1875 c 0,0 7.124163,5.97693 10.25,5.875 5.75,-0.1875 5.905354,-2.8634 36.875,-8.4375 28.784068,-5.18072 34.375001,-4.0625 34.750001,-5.0625 0.375,-1 -7.177386,-9.22383 -8.4375,-9.125 -3.1875,0.25 -4.805175,3.87183 -26.817704,8.27589 -30.272484,6.05663 -46.2668783,7.08839 -46.2668783,7.08839 z"
       id="path22578"
       sodipodi:nodetypes="cssssscc" />
    <path
       style="font-variation-settings:normal;opacity:1;vector-effect:none;fill:#ffd42a;fill-opacity:0.609231;stroke:none;stroke-width:2.1;stroke-linecap:butt;stroke-linejoin:miter;stroke-miterlimit:4;stroke-dasharray:2.1, 4.2;stroke-dashoffset:0;stroke-opacity:1;-inkscape-stroke:none;stop-color:#000000;stop-opacity:1"
       d="m 9.5625,172.70312 c 39,-18 40.500001,-43.48437 45.250001,-59.29775 1.401427,-4.66554 4.1875,-5.15537 4.4375,-6.34287 0.25,-1.1875 -2.9375,-3.3125 -5.5,-5.0625 C 51.187501,100.25 48.25,98.250001 48.25,98.250001 l -3.032324,1.625702 c 0,0 2.466805,3.815327 0.6875,15.874297 -1.438436,9.74878 -4.780176,36.4375 -37.0301759,55.5625 z"
       id="path28501"
       sodipodi:nodetypes="csssccscc" />
    <path
       style="font-variation-settings:normal;opacity:1;vector-effect:none;fill:#ffd42a;fill-opacity:0.609231;stroke:none;stroke-width:2.1;stroke-linecap:butt;stroke-linejoin:miter;stroke-miterlimit:4;stroke-dasharray:2.1, 4.2;stroke-dashoffset:0;stroke-opacity:1;-inkscape-stroke:none;stop-color:#000000;stop-opacity:1"
       d="m 47.11099,132.40575 c 21.496451,17.12253 30.86963,28.32846 30.86963,28.32846 l 1.568893,-0.70711 c 0,0 0.926777,-11.38195 -0.929378,-14.0336 C 76.76398,143.34185 48,131.0625 48,131.0625 Z"
       id="path29147"
       sodipodi:nodetypes="cccscc" />
    <path
       style="font-variation-settings:normal;opacity:1;vector-effect:none;fill:#ffd42a;fill-opacity:0.609231;stroke:none;stroke-width:2.1;stroke-linecap:butt;stroke-linejoin:miter;stroke-miterlimit:4;stroke-dasharray:2.1, 4.2;stroke-dashoffset:0;stroke-opacity:1;-inkscape-stroke:none;stop-color:#000000;stop-opacity:1"
       d="m 86.355417,61.341514 c 0,0 11.844034,-16.086679 20.196733,-30.670757 2.43007,-4.242988 5.3475,-4.684583 5.92202,-5.480078 0.57453,-0.795495 -1.32582,-3.447145 -4.33103,-6.938485 -3.0052,-3.49134 -4.72877,-9.4575533 -6.98268,-11.1811261 l -1.10596,0.6747463 c 0,0 3.18489,5.9171558 1.32693,15.5003218 -1.679373,8.662058 -16.152965,37.388271 -16.152965,37.388271 z"
       id="path35713"
       sodipodi:nodetypes="csssccscc" />
    <path
       style="font-variation-settings:normal;opacity:1;vector-effect:none;fill:#ffd42a;fill-opacity:0.609231;stroke:none;stroke-width:2.1;stroke-linecap:butt;stroke-linejoin:miter;stroke-miterlimit:4;stroke-dasharray:2.1, 4.2;stroke-dashoffset:0;stroke-opacity:1;-inkscape-stroke:none;stop-color:#000000;stop-opacity:1"
       d="m 133.35592,13.567612 c 0,0 31.8419,31.466251 32.28384,34.20629 0.44194,2.740039 -4.68458,14.053748 -4.68458,14.053748 l -1.4584,-10e-7 c 0,0 -7.6456,-17.014756 -27.44459,-47.243571 z"
       id="path43484"
       sodipodi:nodetypes="cscccc" />
    <path
       style="font-variation-settings:normal;opacity:1;vector-effect:none;fill:#ffd42a;fill-opacity:0.609231;stroke:none;stroke-width:2.1;stroke-linecap:butt;stroke-linejoin:miter;stroke-miterlimit:4;stroke-dasharray:2.1, 4.2;stroke-dashoffset:0;stroke-opacity:1;-inkscape-stroke:none;stop-color:#000000;stop-opacity:1"
       d="M 86.501651,114.65537 C 100.84472,90.209934 115.02097,61.417339 116.92262,53.815941 c 1.95382,-7.809935 0.97181,-12.803287 0.97181,-12.803287 l 1.73501,-0.832737 c 0,0 3.99556,3.882583 6.43306,6.132583 2.4375,2.25 4.875,4.000001 4.375,5.437501 -0.5,1.4375 -2.51493,1.317734 -7.5,10.077649 C 102.36154,97.984336 88.000001,115.75 88.000001,115.75 Z"
       id="path45144"
       sodipodi:nodetypes="cssscsscc" />
    <path
       style="font-variation-settings:normal;opacity:1;vector-effect:none;fill:#ffd42a;fill-opacity:0.609231;stroke:none;stroke-width:2.1;stroke-linecap:butt;stroke-linejoin:miter;stroke-miterlimit:4;stroke-dasharray:2.1, 4.2;stroke-dashoffset:0;stroke-opacity:1;-inkscape-stroke:none;stop-color:#000000;stop-opacity:1"
       d="m 117.82167,65.407378 c 7.33623,2.121321 32.29143,45.020992 35.70889,46.934212 2.96705,1.66107 22.10704,-2.74003 22.10704,-2.74003 l -0.31931,-3.51345 c 0,0 -11.09274,-1.87825 -16.48443,-5.14862 -7.73838,-4.693766 -31.81981,-36.592773 -39.50958,-38.360539 z"
       id="path55064"
       sodipodi:nodetypes="csccscc" />
    <path
       style="font-variation-settings:normal;opacity:1;vector-effect:none;fill:#ffd42a;fill-opacity:0.609231;stroke:none;stroke-width:2.1;stroke-linecap:butt;stroke-linejoin:miter;stroke-miterlimit:4;stroke-dasharray:2.1, 4.2;stroke-dashoffset:0;stroke-opacity:1;-inkscape-stroke:none;stop-color:#000000;stop-opacity:1"
       d="m 96.343299,109.75141 c 8.662061,6.74443 9.811111,10.72191 9.811111,10.72191 0.61872,15.7673 2.33937,30.66373 2.87798,37.73295 0.57468,7.54263 1.11101,12.82518 -0.52993,13.17874 -1.64095,0.35355 -10.196697,-13.51184 -10.258811,-17.98704 -0.04105,-2.95786 2.452941,-4.53882 2.258351,-13.12881 -0.15319,-6.76246 -0.799943,-13.05688 -1.683826,-18.47002 -0.824297,-5.04822 -3.778602,-11.07063 -3.778602,-11.07063 z"
       id="path57591"
       sodipodi:nodetypes="ccssssscc" />
    <path
       style="font-variation-settings:normal;opacity:1;vector-effect:none;fill:#ffd42a;fill-opacity:0.609231;stroke:none;stroke-width:2.1;stroke-linecap:butt;stroke-linejoin:miter;stroke-miterlimit:4;stroke-dasharray:2.1, 4.2;stroke-dashoffset:0;stroke-opacity:1;-inkscape-stroke:none;stop-color:#000000;stop-opacity:1"
       d="m 103,124.625 c 6.05355,-0.47277 10.29962,-1.27629 20.55557,-3.36807 11.02693,-2.24903 14.5063,-3.32241 15.82034,-2.59846 1.17727,0.6486 0.0433,16.07376 -0.26922,20.57376 -0.3125,4.5 -1.56445,7.31 -1.70776,8.91225 -0.17895,2.00078 2.97607,6.41802 4.28857,6.41802 1.3125,0 3.61227,-4.7272 4,-8.9375 0.33083,-3.59238 1.26031,-12.99143 3,-18.9375 1.29457,-4.4247 4.12056,-6.58839 4.12056,-8.71339 0,-1.6875 -13.52115,-11.42028 -15.71209,-11.39644 -1.83766,0.02 -0.60108,3.80722 -12.83395,7.33306 -10.8594,3.12998 -15.4944,4.04507 -21.94309,4.92452 z"
       id="path62325"
       sodipodi:nodetypes="csssssssssscc" />
    <path
       style="font-variation-settings:normal;opacity:1;vector-effect:none;fill:#ffd42a;fill-opacity:0.609231;stroke:none;stroke-width:2.1;stroke-linecap:butt;stroke-linejoin:miter;stroke-miterlimit:4;stroke-dasharray:2.1, 4.2;stroke-dashoffset:0;stroke-opacity:1;-inkscape-stroke:none;stop-color:#000000;stop-opacity:1"
       d="m 106.11779,153.81717 c 0,0 7.50131,-1.03822 20.16771,-3.30698 10.37143,-1.85769 14.277,-3.38519 15.9645,-3.44769 1.6875,-0.0625 8.29608,4.37618 8.39062,6.95312 0.0625,1.70367 -2.98578,0.64714 -21.26562,3.37555 -13.18023,1.96725 -22.875,3.17133 -22.875,3.17133 z"
       id="path64407"
       sodipodi:nodetypes="csssscc" />
  </g>
</svg>
