<?xml version="1.0" encoding="UTF-8" standalone="no"?>
<!-- Created with Inkscape (http://www.inkscape.org/) -->

<svg
   width="180"
   height="180"
   viewBox="0 0 180 180"
   version="1.1"
   id="svg5"
   inkscape:version="1.2-alpha (0bd5040e63, 2022-02-05)"
   sodipodi:docname="酬.svg"
   xmlns:inkscape="http://www.inkscape.org/namespaces/inkscape"
   xmlns:sodipodi="http://sodipodi.sourceforge.net/DTD/sodipodi-0.dtd"
   xmlns="http://www.w3.org/2000/svg"
   xmlns:svg="http://www.w3.org/2000/svg">
  <sodipodi:namedview
     id="namedview7"
     pagecolor="#505050"
     bordercolor="#ffffff"
     borderopacity="1"
     inkscape:pageshadow="0"
     inkscape:pageopacity="0"
     inkscape:pagecheckerboard="1"
     inkscape:blackoutopacity="0.0"
     inkscape:document-units="px"
     showgrid="false"
     inkscape:zoom="5.6568542"
     inkscape:cx="66.644814"
     inkscape:cy="105.4473"
     inkscape:window-width="1920"
     inkscape:window-height="1011"
     inkscape:window-x="-9"
     inkscape:window-y="30"
     inkscape:window-maximized="1"
     inkscape:current-layer="layer2" />
  <defs
     id="defs2" />
  <g
     inkscape:label="图层 1"
     inkscape:groupmode="layer"
     id="layer1"
     style="display:inline"
     sodipodi:insensitive="true">
    <text
       xml:space="preserve"
       style="font-style:normal;font-weight:normal;font-size:175.536px;line-height:1.25;font-family:sans-serif;fill:#000000;fill-opacity:1;stroke:none;stroke-width:4.38838"
       x="2.3197703"
       y="156.70367"
       id="text2280"><tspan
         sodipodi:role="line"
         id="tspan2278"
         x="2.3197703"
         y="156.70367"
         style="font-style:normal;font-variant:normal;font-weight:normal;font-stretch:normal;font-size:175.536px;font-family:'WenYue Juzhen';-inkscape-font-specification:'WenYue Juzhen';font-variant-ligatures:normal;font-variant-caps:normal;font-variant-numeric:normal;font-variant-east-asian:normal;stroke-width:4.38838">酬</tspan></text>
  </g>
  <g
     inkscape:groupmode="layer"
     id="layer2"
     inkscape:label="图层 2"
     style="display:inline">
    <path
       style="font-variation-settings:normal;opacity:1;vector-effect:none;fill:#ffd42a;fill-opacity:0.609231;stroke:none;stroke-width:2.1;stroke-linecap:butt;stroke-linejoin:miter;stroke-miterlimit:4;stroke-dasharray:2.1, 4.2;stroke-dashoffset:0;stroke-opacity:1;-inkscape-stroke:none;stop-color:#000000;stop-opacity:1"
       d="m 11.404428,29.903371 c 0,0 6.715183,5.142609 9.101669,5.230998 2.386485,0.08839 12.371659,-3.086363 38.252548,-6.658156 28.147786,-3.884645 31.590493,-1.324001 31.839412,-2.843592 0.326445,-1.992874 -10.356602,-12.346641 -12.477922,-12.081476 -2.12132,0.265166 -0.167151,4.881643 -20.512378,8.268549 -28.042709,4.66832 -37.111401,5.173024 -45.984579,6.926665 z"
       id="path2296"
       sodipodi:nodetypes="cssssscc" />
    <path
       style="font-variation-settings:normal;opacity:1;vector-effect:none;fill:#ffd42a;fill-opacity:0.609231;stroke:none;stroke-width:2.1;stroke-linecap:butt;stroke-linejoin:miter;stroke-miterlimit:4;stroke-dasharray:2.1, 4.2;stroke-dashoffset:0;stroke-opacity:1;-inkscape-stroke:none;stop-color:#000000;stop-opacity:1"
       d="m 16.782737,52.237514 c 8.883029,7.689786 11.236369,12.462757 11.236369,12.462757 0,0 -0.265165,4.242641 -0.176776,9.899495 0.08839,5.656854 1.767767,66.644814 1.944543,75.925594 0.176777,9.28077 -0.441941,16.17507 -2.474873,16.7054 -2.032932,0.53033 -9.899496,-13.92117 -9.899496,-17.36832 0,-3.44714 4.065865,-2.43067 4.507806,-12.15339 0.441942,-9.72272 0.530331,-61.69507 -0.707106,-68.766138 -1.237437,-7.071068 -5.480078,-15.998291 -5.480078,-15.998291 z"
       id="path2652"
       sodipodi:nodetypes="ccsssssscc" />
    <path
       style="font-variation-settings:normal;opacity:1;vector-effect:none;fill:#ffd42a;fill-opacity:0.609231;stroke:none;stroke-width:2.1;stroke-linecap:butt;stroke-linejoin:miter;stroke-miterlimit:4;stroke-dasharray:2.1, 4.2;stroke-dashoffset:0;stroke-opacity:1;-inkscape-stroke:none;stop-color:#000000;stop-opacity:1"
       d="m 22.774332,61.250001 c 7.538168,-0.1875 13.038168,-0.875 32.538169,-3.8125 19.5,-2.9375 21.25,-9.062501 22.6875,-9.125001 1.4375,-0.0625 8.5625,8.500001 8.75,10.187501 0.200633,1.805693 -2.9375,-0.75 -3.6875,8.5625 -0.75,9.3125 -3.3125,80.608829 -3.3125,85.124999 0,4.51617 -1.3125,12.4375 -3.4375,12.4375 -2.125,0 -6.5625,-16 -6.75,-18 -0.1875,-2 3.5625,-2.4375 3.9375,-11.5625 0.375,-9.125 2.730393,-70.689339 1.192862,-72.532169 -1.47347,-1.766048 -7.380362,-0.46783 -23.817862,1.71967 -16.437501,2.1875 -25.750001,3.3125 -25.750001,3.3125 z"
       id="path2996"
       sodipodi:nodetypes="csssssssssscc" />
    <path
       style="font-variation-settings:normal;opacity:1;vector-effect:none;fill:#ffd42a;fill-opacity:0.609231;stroke:none;stroke-width:2.1;stroke-linecap:butt;stroke-linejoin:miter;stroke-miterlimit:4;stroke-dasharray:2.1, 4.2;stroke-dashoffset:0;stroke-opacity:1;-inkscape-stroke:none;stop-color:#000000;stop-opacity:1"
       d="M 29.624132,113.06354 C 47.543223,99.386758 46,43.9375 45.75,37.3125 45.5,30.6875 48.25,31.580121 48.035981,30.066347 47.647925,27.321594 43.625,26.75 43.625,26.75 l -8.375,2 c 0,0 3.25,5.375 3.875,11.75 0.625,6.375 3.493036,51.272366 -10.639953,71.2457 z"
       id="path3342"
       sodipodi:nodetypes="cssccscc" />
    <path
       style="font-variation-settings:normal;opacity:1;vector-effect:none;fill:#ffd42a;fill-opacity:0.609231;stroke:none;stroke-width:2.1;stroke-linecap:butt;stroke-linejoin:miter;stroke-miterlimit:4;stroke-dasharray:2.1, 4.2;stroke-dashoffset:0;stroke-opacity:1;-inkscape-stroke:none;stop-color:#000000;stop-opacity:1"
       d="m 55.419494,25.455844 c 0,0 1.652706,5.677599 2.12132,10.960155 0.972272,10.960155 -0.883883,54.106994 -0.707107,58.438023 0.176777,4.331028 1.862279,6.482298 5.102857,7.002818 0.932807,0.14983 11.016373,-0.58524 11.518594,-1.28162 0.532932,-0.738964 -2.443349,-6.914858 -3.914055,-6.904098 -1.503211,0.011 -5.085206,1.898237 -6.122464,1.036993 -1.467055,-1.218109 -0.321922,-33.255281 1.06066,-57.761786 0.211726,-3.752876 2.032932,-4.640388 2.165515,-6.14299 0.132583,-1.502602 -3.977476,-5.877825 -3.977476,-5.877825 z"
       id="path3860"
       sodipodi:nodetypes="csssssssscc" />
    <path
       style="font-variation-settings:normal;opacity:1;vector-effect:none;fill:#ffd42a;fill-opacity:0.609231;stroke:none;stroke-width:2.1;stroke-linecap:butt;stroke-linejoin:miter;stroke-miterlimit:4;stroke-dasharray:2.1, 4.2;stroke-dashoffset:0;stroke-opacity:1;-inkscape-stroke:none;stop-color:#000000;stop-opacity:1"
       d="m 29.815538,122.21875 c 0,0 6.246908,4.48595 9.163723,4.66272 2.916816,0.17678 7.327566,-1.59868 16.705398,-3.27037 10.16466,-1.81195 14.230524,-1.37002 14.407301,-2.56326 0.176776,-1.19324 -5.656855,-7.20365 -7.999146,-6.8059 -2.342291,0.39775 -1.293458,1.64891 -11.932427,4.19844 -13.486538,3.23193 -20.019961,2.12133 -20.019961,2.12133 z"
       id="path8705"
       sodipodi:nodetypes="cssssscc" />
    <path
       style="font-variation-settings:normal;opacity:1;vector-effect:none;fill:#ffd42a;fill-opacity:0.609231;stroke:none;stroke-width:2.1;stroke-linecap:butt;stroke-linejoin:miter;stroke-miterlimit:4;stroke-dasharray:2.1, 4.2;stroke-dashoffset:0;stroke-opacity:1;-inkscape-stroke:none;stop-color:#000000;stop-opacity:1"
       d="m 26.070083,147.94952 c 5.224112,0.53975 14.304221,-0.73169 28.696685,-2.82452 C 66.357784,143.43953 64.9375,142 67.75,142.0625 c 2.8125,0.0625 9.306757,6.21209 8.994257,7.39959 -0.3125,1.1875 -5.96072,0.16291 -21.977489,2.22541 C 38.75,153.75 25.695083,155.44952 25.695083,155.44952 Z"
       id="path9033"
       sodipodi:nodetypes="csssscc" />
    <path
       style="font-variation-settings:normal;opacity:1;vector-effect:none;fill:#ffd42a;fill-opacity:0.609231;stroke:none;stroke-width:2.1;stroke-linecap:butt;stroke-linejoin:miter;stroke-miterlimit:4;stroke-dasharray:2.1, 4.2;stroke-dashoffset:0;stroke-opacity:1;-inkscape-stroke:none;stop-color:#000000;stop-opacity:1"
       d="M 79.969357,171.4071 C 119.86023,141.25672 113.57903,46.403882 113.84419,39.951533 c 0.26517,-6.452349 3.84489,-9.236582 3.97748,-10.783378 0.13258,-1.546796 -3.44715,-3.49134 -5.70105,-5.435884 -2.06165,-1.778675 -5.17072,-5.347495 -13.214059,-10.915961 l -0.961223,0.884511 c 0,0 7.179662,9.576907 7.554662,23.951907 0.375,14.375 5.30736,97.228762 -27.055341,131.854022 z"
       id="path14718"
       sodipodi:nodetypes="csssccscc" />
    <path
       style="font-variation-settings:normal;opacity:1;vector-effect:none;fill:#ffd42a;fill-opacity:0.609231;stroke:none;stroke-width:2.1;stroke-linecap:butt;stroke-linejoin:miter;stroke-miterlimit:4;stroke-dasharray:2.1, 4.2;stroke-dashoffset:0;stroke-opacity:1;-inkscape-stroke:none;stop-color:#000000;stop-opacity:1"
       d="m 90.873944,58.564863 c 1.502602,8.396893 1.757044,14.974242 0.431219,24.962125 -1.009951,7.6083 -2.578427,4.772971 -2.401651,7.689787 0.176777,2.916815 4.48636,12.025255 5.988961,12.025255 1.502602,0 2.261486,-4.356916 2.526651,-9.041498 0.265165,-4.684583 1.354854,-18.36333 1.089689,-21.280145 -0.265165,-2.916816 -6.181172,-14.764646 -6.181172,-14.764646 z"
       id="path26844"
       sodipodi:nodetypes="cssssscc" />
    <path
       style="font-variation-settings:normal;opacity:1;vector-effect:none;fill:#ffd42a;fill-opacity:0.609231;stroke:none;stroke-width:2.1;stroke-linecap:butt;stroke-linejoin:miter;stroke-miterlimit:4;stroke-dasharray:2.1, 4.2;stroke-dashoffset:0;stroke-opacity:1;-inkscape-stroke:none;stop-color:#000000;stop-opacity:1"
       d="m 124.4375,13.639891 c 0,0 7.9375,7.860109 10.1875,10.110109 2.25,2.25 4.5625,4.875 4.5625,6.25 0,1.375 -3.125,3.25 -3.1875,10.5 -0.0625,7.25 0.5625,100.125 0.5,106.875 -0.0625,6.75 -1.25,11.375 -3,11.5 -1.75,0.125 -9.07213,-10.13284 -9.07322,-13.5795 -10e-4,-3.44202 4.65683,-3.84448 4.89645,-15.88021 0.54035,-27.14052 -0.0306,-88.400884 -1.14017,-96.777727 -1.1608,-8.763513 -5.08931,-18.231313 -5.08931,-18.231313 z"
       id="path32464"
       sodipodi:nodetypes="csssssssscc" />
    <path
       style="font-variation-settings:normal;opacity:1;vector-effect:none;fill:#ffd42a;fill-opacity:0.609231;stroke:none;stroke-width:2.1;stroke-linecap:butt;stroke-linejoin:miter;stroke-miterlimit:4;stroke-dasharray:2.1, 4.2;stroke-dashoffset:0;stroke-opacity:1;-inkscape-stroke:none;stop-color:#000000;stop-opacity:1"
       d="m 150.5,5.7427182 c 0,0 7.75,5.0697818 11.5,8.2572818 3.75,3.1875 5.25,6.125 5.25,7.4375 0,1.3125 -3.2226,4.351016 -2.98483,13.212536 2.1731,80.988714 3.27361,115.515864 3.63128,122.053634 0.39198,7.16505 0.63303,18.02751 -2.39645,18.29633 -2.64645,0.23483 -10.32322,-13.17844 -10.28661,-15.55629 0.0571,-3.70534 4.03661,-2.73921 3.91161,-12.48921 -0.125,-9.75 -2.875,-117.52081 -4.8125,-128.142 -1.20718,-6.617631 -5,-12 -5,-12 z"
       id="path39688"
       sodipodi:nodetypes="csssssssscc" />
    <path
       style="font-variation-settings:normal;opacity:1;vector-effect:none;fill:#ffd42a;fill-opacity:0.609231;stroke:none;stroke-width:2.1;stroke-linecap:butt;stroke-linejoin:miter;stroke-miterlimit:4;stroke-dasharray:2.1, 4.2;stroke-dashoffset:0;stroke-opacity:1;-inkscape-stroke:none;stop-color:#000000;stop-opacity:1"
       d="m 110.69706,69.886074 c 11.55498,21.389981 13.01852,33.354576 13.01852,33.354576 l 1.51554,0.17632 c 0,0 4.5382,-9.195201 2.2981,-14.916974 -2.2401,-5.721773 -16.08668,-19.377706 -16.08668,-19.377706 z"
       id="path43720"
       sodipodi:nodetypes="cccscc" />
    <path
       style="font-variation-settings:normal;opacity:1;vector-effect:none;fill:#ffd42a;fill-opacity:0.609231;stroke:none;stroke-width:2.1;stroke-linecap:butt;stroke-linejoin:miter;stroke-miterlimit:4;stroke-dasharray:2.1, 4.2;stroke-dashoffset:0;stroke-opacity:1;-inkscape-stroke:none;stop-color:#000000;stop-opacity:1"
       d="m 134.2619,68.90132 c 0,0 17.41168,10.215775 20.81815,15.634701 2.42861,3.863374 -2.0586,15.528339 -2.0586,15.528339 l -1.56499,-0.0139 c 0,0 -5.28171,-19.24022 -18.26896,-29.74022 z"
       id="path45253"
       sodipodi:nodetypes="cscccc" />
  </g>
</svg>
