<?xml version="1.0" encoding="UTF-8" standalone="no"?>
<!-- Created with Inkscape (http://www.inkscape.org/) -->

<svg
   width="180"
   height="180"
   viewBox="0 0 180 180"
   version="1.1"
   id="svg5"
   inkscape:version="1.2-alpha (0bd5040e63, 2022-02-05)"
   sodipodi:docname="靈.svg"
   xmlns:inkscape="http://www.inkscape.org/namespaces/inkscape"
   xmlns:sodipodi="http://sodipodi.sourceforge.net/DTD/sodipodi-0.dtd"
   xmlns="http://www.w3.org/2000/svg"
   xmlns:svg="http://www.w3.org/2000/svg">
  <sodipodi:namedview
     id="namedview7"
     pagecolor="#505050"
     bordercolor="#ffffff"
     borderopacity="1"
     inkscape:pageshadow="0"
     inkscape:pageopacity="0"
     inkscape:pagecheckerboard="1"
     inkscape:blackoutopacity="0.0"
     inkscape:document-units="px"
     showgrid="false"
     inkscape:zoom="7.9999996"
     inkscape:cx="95.250005"
     inkscape:cy="112.43751"
     inkscape:window-width="1920"
     inkscape:window-height="1011"
     inkscape:window-x="-9"
     inkscape:window-y="30"
     inkscape:window-maximized="1"
     inkscape:current-layer="layer2" />
  <defs
     id="defs2" />
  <g
     inkscape:label="图层 1"
     inkscape:groupmode="layer"
     id="layer1"
     style="display:inline"
     sodipodi:insensitive="true">
    <text
       xml:space="preserve"
       style="font-style:normal;font-weight:normal;font-size:175.536px;line-height:1.25;font-family:sans-serif;fill:#000000;fill-opacity:1;stroke:none;stroke-width:4.38838"
       x="2.3197703"
       y="156.70367"
       id="text2280"><tspan
         sodipodi:role="line"
         id="tspan2278"
         x="2.3197703"
         y="156.70367"
         style="font-style:normal;font-variant:normal;font-weight:normal;font-stretch:normal;font-size:175.536px;font-family:'WenYue Juzhen';-inkscape-font-specification:'WenYue Juzhen';font-variant-ligatures:normal;font-variant-caps:normal;font-variant-numeric:normal;font-variant-east-asian:normal;stroke-width:4.38838">靈</tspan></text>
  </g>
  <g
     inkscape:groupmode="layer"
     id="layer2"
     inkscape:label="图层 2"
     style="display:inline">
    <path
       style="font-variation-settings:normal;opacity:1;vector-effect:none;fill:#ffd42a;fill-opacity:0.609231;stroke:none;stroke-width:2.1;stroke-linecap:butt;stroke-linejoin:miter;stroke-miterlimit:4;stroke-dasharray:2.1, 4.2;stroke-dashoffset:0;stroke-opacity:1;-inkscape-stroke:none;stop-color:#000000;stop-opacity:1"
       d="m 32.684734,22.471168 c 0,0 8.91401,6.023352 13.200845,6.465294 4.286835,0.441942 17.468185,-2.939563 56.170801,-7.999146 36.31937,-4.748022 44.00537,-4.276111 44.35892,-6.220655 0.35356,-1.944544 -10.38563,-9.678525 -13.12567,-9.678525 -2.74003,0 -1.41421,4.6845827 -33.23402,9.104 -31.819802,4.419418 -50.536687,5.008132 -66.951032,6.481705 z"
       id="path3567"
       sodipodi:nodetypes="cssssscc" />
    <path
       style="font-variation-settings:normal;opacity:1;vector-effect:none;fill:#ffd42a;fill-opacity:0.609231;stroke:none;stroke-width:2.1;stroke-linecap:butt;stroke-linejoin:miter;stroke-miterlimit:4;stroke-dasharray:2.1, 4.2;stroke-dashoffset:0;stroke-opacity:1;-inkscape-stroke:none;stop-color:#000000;stop-opacity:1"
       d="m 22.250001,19.500001 c 0,0 7.421579,12.113662 7.875,19.242054 0.375,5.89551 -3.625,18.632948 -4.875,22.257948 -1.25,3.625 -4.25,9.5 -6.375,9.75 -2.125,0.25 -7,-10.875 -6.5,-13.125 0.5,-2.25 4.75,-1.875 7.125,-8.625001 2.375,-6.75 3.077665,-10.093916 3.077665,-15.368718 0,-5.274803 -2.171415,-13.350033 -2.171415,-13.350033 z"
       id="path9706"
       sodipodi:nodetypes="csssssscc" />
    <path
       style="font-variation-settings:normal;opacity:1;vector-effect:none;fill:#ffd42a;fill-opacity:0.609231;stroke:none;stroke-width:2.1;stroke-linecap:butt;stroke-linejoin:miter;stroke-miterlimit:4;stroke-dasharray:2.1, 4.2;stroke-dashoffset:0;stroke-opacity:1;-inkscape-stroke:none;stop-color:#000000;stop-opacity:1"
       d="m 25.809398,37.25569 c 9.855302,0.132583 45.671367,-4.02013 85.427342,-8.58985 44.45934,-5.110344 41.85189,-9.662344 45.38742,-9.573956 3.53553,0.08839 13.18722,12.293509 12.98141,14.584078 -0.23805,2.64943 -5.02646,2.828427 -9.71104,7.247845 -4.68458,4.419417 -10.6066,9.987884 -10.6066,9.987884 l -1.28164,-0.83969 c 0,0 1.32583,-4.905553 2.38649,-8.396893 1.06066,-3.49134 2.90087,-9.340994 0.97227,-10.208855 -2.59785,-1.169024 -5.06029,0.36625 -53.857533,5.863962 -45.350181,5.109351 -70.991011,7.796861 -70.991011,7.796861 z"
       id="path13560"
       sodipodi:nodetypes="cssssccssscc" />
    <path
       style="font-variation-settings:normal;opacity:1;vector-effect:none;fill:#ffd42a;fill-opacity:0.609231;stroke:none;stroke-width:2.1;stroke-linecap:butt;stroke-linejoin:miter;stroke-miterlimit:4;stroke-dasharray:2.1, 4.2;stroke-dashoffset:0;stroke-opacity:1;-inkscape-stroke:none;stop-color:#000000;stop-opacity:1"
       d="m 82.201167,20.771263 c 0,0 1.80199,5.467037 2.121321,8.203936 0.752585,6.45021 0.883883,13.893153 0.707106,21.936492 -0.0874,3.976515 -1.149048,6.717514 -0.883883,8.927223 0.265165,2.209709 6.67332,10.914513 8.441088,10.605878 1.974349,-0.344703 1.024508,-9.329473 0.839688,-12.594616 -0.265165,-4.684582 -0.82617,-27.211107 -0.795494,-29.74268 0.04091,-3.376093 1.149048,-8.607495 1.149048,-8.607495 z"
       id="path20435"
       sodipodi:nodetypes="csssssscc" />
    <path
       style="font-variation-settings:normal;opacity:1;vector-effect:none;fill:#ffd42a;fill-opacity:0.609231;stroke:none;stroke-width:2.1;stroke-linecap:butt;stroke-linejoin:miter;stroke-miterlimit:4;stroke-dasharray:2.1, 4.2;stroke-dashoffset:0;stroke-opacity:1;-inkscape-stroke:none;stop-color:#000000;stop-opacity:1"
       d="m 35.36719,54.27344 c 0,0 7.007812,4.851563 9.007812,4.789063 2,-0.0625 12.576762,-3.691416 18.937501,-5.437501 9.5625,-2.625 14.750001,-3.0625 15.000001,-3.875 0.25,-0.8125 -2.845972,-5.521447 -4.595972,-5.458947 -1.75,0.0625 -0.529029,0.646447 -14.279029,3.896447 -9.758042,2.306446 -19.718751,3.90625 -23.968751,4.71875 z"
       id="path22411"
       sodipodi:nodetypes="cssssscc" />
    <path
       style="font-variation-settings:normal;opacity:1;vector-effect:none;fill:#ffd42a;fill-opacity:0.609231;stroke:none;stroke-width:2.1;stroke-linecap:butt;stroke-linejoin:miter;stroke-miterlimit:4;stroke-dasharray:2.1, 4.2;stroke-dashoffset:0;stroke-opacity:1;-inkscape-stroke:none;stop-color:#000000;stop-opacity:1"
       d="m 98.147102,45.864279 c 0,0 4.102898,4.363053 7.040398,4.363053 2.93751,0 7.81251,-0.97733 19.87501,-3.28983 12.0625,-2.3125 16.875,-2.4375 17.3125,-3.375 0.4375,-0.9375 -4.8125,-7.1875 -6.6875,-7 -1.875,0.1875 -3.375,1.5 -15.1875,3.9375 -11.81251,2.4375 -17.6594,3.3125 -21.721896,3.9375 z"
       id="path24198"
       sodipodi:nodetypes="cssssscc" />
    <path
       style="font-variation-settings:normal;opacity:1;vector-effect:none;fill:#ffd42a;fill-opacity:0.609231;stroke:none;stroke-width:2.1;stroke-linecap:butt;stroke-linejoin:miter;stroke-miterlimit:4;stroke-dasharray:2.1, 4.2;stroke-dashoffset:0;stroke-opacity:1;-inkscape-stroke:none;stop-color:#000000;stop-opacity:1"
       d="m 32.875002,69.562503 c 0,0 11.4375,4.25 14.375,3.8125 2.9375,-0.4375 39.812502,-19.125 39.812502,-19.125 l -0.5,-1.515166 c -9.050012,2.949526 -15.184205,4.979661 -21.501453,7.010095 -16.772217,5.390776 -26.463403,6.733529 -32.248549,8.380071 z"
       id="path25774"
       sodipodi:nodetypes="csccscc" />
    <path
       style="font-variation-settings:normal;opacity:1;vector-effect:none;fill:#ffd42a;fill-opacity:0.609231;stroke:none;stroke-width:2.1;stroke-linecap:butt;stroke-linejoin:miter;stroke-miterlimit:4;stroke-dasharray:2.1, 4.2;stroke-dashoffset:0;stroke-opacity:1;-inkscape-stroke:none;stop-color:#000000;stop-opacity:1"
       d="m 99.478558,59.654032 c 0,0 3.208942,3.783471 5.208942,4.095971 2,0.3125 15.12501,-2.375 25.62501,-3.75 10.5,-1.375 16.5,-1.5625 16.9375,-2.4375 0.4375,-0.875 -4.5,-8.812501 -7.125,-8.625001 -2.625,0.1875 -1.9375,2.0625 -15.625,4.875 -13.6875,2.812501 -24.4277,4.21653 -24.4277,4.21653 z"
       id="path28600"
       sodipodi:nodetypes="cssssscc" />
    <path
       style="font-variation-settings:normal;opacity:1;vector-effect:none;fill:#ffd42a;fill-opacity:0.609231;stroke:none;stroke-width:2.1;stroke-linecap:butt;stroke-linejoin:miter;stroke-miterlimit:4;stroke-dasharray:2.1, 4.2;stroke-dashoffset:0;stroke-opacity:1;-inkscape-stroke:none;stop-color:#000000;stop-opacity:1"
       d="m 25.858954,73.60697 c 3.389627,6.867102 5.829735,13.70929 6.320692,22.650403 0.372887,6.790877 -1.798097,4.903637 -1.055829,8.301607 1.032987,4.72883 8.209004,14.14658 9.976771,13.52786 1.767767,-0.61872 1.633413,-5.78152 0.825825,-11.33148 -1.233664,-7.688749 -3.499382,-15.835481 -3.546262,-21.983887 0,0 -3.499097,-5.487122 -11.023956,-12.248754 z"
       id="path29142"
       sodipodi:nodetypes="cssscccc" />
    <path
       style="font-variation-settings:normal;opacity:1;vector-effect:none;fill:#ffd42a;fill-opacity:0.609231;stroke:none;stroke-width:2.1;stroke-linecap:butt;stroke-linejoin:miter;stroke-miterlimit:4;stroke-dasharray:2.1, 4.2;stroke-dashoffset:0;stroke-opacity:1;-inkscape-stroke:none;stop-color:#000000;stop-opacity:1"
       d="m 58.898812,100.45827 c 0,0 2.081568,-10.032079 3.186423,-13.96536 1.104854,-3.933282 4.154252,-3.314563 4.375223,-4.905554 0.220971,-1.59099 -5.163136,-8.490185 -6.522955,-8.445995 -1.359819,0.04419 -1.25405,2.695883 -10.049861,5.236359 -6.431015,1.857457 -10.670022,3.017229 -16.169707,3.6132 l 1.328046,5.071607 c 4.640389,0.353553 6.739613,-0.640816 11.667263,-1.856156 4.475039,-1.103709 8.099558,-1.586086 8.762471,-0.613814 0.662913,0.972272 -2.386485,15.865713 -2.386485,15.865713 z"
       id="path32476"
       sodipodi:nodetypes="cssssccsscc" />
    <path
       style="font-variation-settings:normal;opacity:1;vector-effect:none;fill:#ffd42a;fill-opacity:0.609231;stroke:none;stroke-width:2.1;stroke-linecap:butt;stroke-linejoin:miter;stroke-miterlimit:4;stroke-dasharray:2.1, 4.2;stroke-dashoffset:0;stroke-opacity:1;-inkscape-stroke:none;stop-color:#000000;stop-opacity:1"
       d="m 38.051185,101.07208 c 0,0 2.353931,-0.0818 12.683729,-2.474874 7.373963,-1.708322 7.408743,-2.44018 9.109551,-2.578563 1.700807,-0.138383 7.374876,4.302137 7.242294,5.186017 -0.132583,0.88389 -4.419418,1.41422 -12.683729,3.35876 -8.463015,1.99129 -14.849243,3.62392 -14.849243,3.62392 z"
       id="path32478"
       sodipodi:nodetypes="csssscc" />
    <path
       style="font-variation-settings:normal;opacity:1;vector-effect:none;fill:#ffd42a;fill-opacity:0.609231;stroke:none;stroke-width:2.1;stroke-linecap:butt;stroke-linejoin:miter;stroke-miterlimit:4;stroke-dasharray:2.1, 4.2;stroke-dashoffset:0;stroke-opacity:1;-inkscape-stroke:none;stop-color:#000000;stop-opacity:1"
       d="m 70.533905,73.406603 c 5.432743,4.859981 7.105363,9.557889 7.105363,9.557889 0,0 3.678016,16.295627 3.854792,20.449878 0.176777,4.15425 1.06066,10.87177 -0.618718,11.4021 -1.679379,0.53033 -7.954952,-6.93848 -8.750447,-10.69499 -0.795495,-3.75651 1.944544,-1.60673 1.59099,-7.864107 C 73.362332,90 72.92039,86.929944 72.124895,83.438604 71.3294,79.947264 68.942914,74.51138 68.942914,74.51138 Z"
       id="path33540"
       sodipodi:nodetypes="ccssssscc" />
    <path
       style="font-variation-settings:normal;opacity:1;vector-effect:none;fill:#ffd42a;fill-opacity:0.609231;stroke:none;stroke-width:2.1;stroke-linecap:butt;stroke-linejoin:miter;stroke-miterlimit:4;stroke-dasharray:2.1, 4.2;stroke-dashoffset:0;stroke-opacity:1;-inkscape-stroke:none;stop-color:#000000;stop-opacity:1"
       d="m 110.68751,69.375003 c 5.83709,4.708947 7,8.312501 7,8.312501 0,0 1.625,14.5625 1.8125,19.875 0.1875,5.312496 0.15966,10.459836 -1.375,10.874996 -1.7744,0.48001 -7.4375,-8.555126 -7.5625,-12.180127 -0.125,-3.625 1.375,-0.507369 1.4375,-6.694869 0.0625,-6.1875 -0.4375,-14.906912 -2.625,-19.109706 z"
       id="path34799"
       sodipodi:nodetypes="ccsssscc" />
    <path
       style="font-variation-settings:normal;opacity:1;vector-effect:none;fill:#ffd42a;fill-opacity:0.609231;stroke:none;stroke-width:2.1;stroke-linecap:butt;stroke-linejoin:miter;stroke-miterlimit:4;stroke-dasharray:2.1, 4.2;stroke-dashoffset:0;stroke-opacity:1;-inkscape-stroke:none;stop-color:#000000;stop-opacity:1"
       d="m 100.9837,97.271381 c 0,0 1.81195,-10.562517 3.0052,-13.832777 1.13893,-3.1214 3.44713,-4.021669 3.53553,-5.259106 0.0884,-1.237437 -3.85117,-6.786138 -5.65685,-6.629127 -2.032937,0.176771 -0.92418,2.451216 -11.446296,5.391689 -9.054623,2.530373 -12.197592,3.358753 -16.61701,3.623922 l 1.60927,5.92202 c 4.110058,-0.309468 6.546398,-0.951149 11.030264,-1.988738 5.347495,-1.237437 8.88303,-2.474874 10.032078,-1.37002 1.149049,1.104855 -2.253903,14.937632 -2.253903,14.937632 z"
       id="path35407"
       sodipodi:nodetypes="cssssccsscc" />
    <path
       style="font-variation-settings:normal;opacity:1;vector-effect:none;fill:#ffd42a;fill-opacity:0.609231;stroke:none;stroke-width:2.1;stroke-linecap:butt;stroke-linejoin:miter;stroke-miterlimit:4;stroke-dasharray:2.1, 4.2;stroke-dashoffset:0;stroke-opacity:1;-inkscape-stroke:none;stop-color:#000000;stop-opacity:1"
       d="m 78.375004,99.750005 c 0,0 3.124992,-0.444869 11.624996,-2.312501 6.392298,-1.404524 9.031234,-2.72577 10.85937,-2.831635 1.82813,-0.105865 6.8582,4.394136 6.45313,5.394131 -0.40506,1 -3.6875,0.8125 -14.624996,3.25 -7.417882,1.65313 -12.8125,3.0625 -12.8125,3.0625 z"
       id="path37910"
       sodipodi:nodetypes="csssscc" />
    <path
       style="font-variation-settings:normal;opacity:1;vector-effect:none;fill:#ffd42a;fill-opacity:0.609231;stroke:none;stroke-width:2.1;stroke-linecap:butt;stroke-linejoin:miter;stroke-miterlimit:4;stroke-dasharray:2.1, 4.2;stroke-dashoffset:0;stroke-opacity:1;-inkscape-stroke:none;stop-color:#000000;stop-opacity:1"
       d="m 143.81251,91.062504 c 0,0 1.3125,-6.255489 2.4375,-10.4375 1.125,-4.182012 5.625,-3.09375 5.8125,-4.968751 0.1875,-1.875 -7.75,-11.88119 -9.75,-11.88119 -2,0 -2.625,5.59994 -10.0625,7.772091 -7.4375,2.172151 -11.5,3.265349 -17.64746,4.327849 l 1.02246,6.000001 c 0,0 7.8125,-1.75 12.0625,-2.75 4.25,-1 9.5,-2.500001 10.4375,-1.562501 0.9375,0.937501 0,14.125001 0,14.125001 z"
       id="path37942"
       sodipodi:nodetypes="cssssccsscc" />
    <path
       style="font-variation-settings:normal;opacity:1;vector-effect:none;fill:#ffd42a;fill-opacity:0.609231;stroke:none;stroke-width:2.1;stroke-linecap:butt;stroke-linejoin:miter;stroke-miterlimit:4;stroke-dasharray:2.1, 4.2;stroke-dashoffset:0;stroke-opacity:1;-inkscape-stroke:none;stop-color:#000000;stop-opacity:1"
       d="m 116.12501,94.957585 c 0,0 5.90625,-0.703139 15.73614,-3.004916 9.07723,-2.125534 10.52571,-4.344342 12.6667,-4.176653 1.17794,0.09226 5.69941,6.259299 5.26191,7.071799 -0.4375,0.8125 -3.13523,0.60294 -15.51746,2.87309 -12.57741,2.305935 -17.32885,3.311275 -17.32885,3.311275 z"
       id="path39361"
       sodipodi:nodetypes="csssscc" />
    <path
       style="font-variation-settings:normal;opacity:1;vector-effect:none;fill:#ffd42a;fill-opacity:0.609231;stroke:none;stroke-width:2.1;stroke-linecap:butt;stroke-linejoin:miter;stroke-miterlimit:4;stroke-dasharray:2.1, 4.2;stroke-dashoffset:0;stroke-opacity:1;-inkscape-stroke:none;stop-color:#000000;stop-opacity:1"
       d="m 24.273651,123.57796 c 0,0 10.553937,7.07519 14.336894,6.9868 3.782957,-0.0884 12.985712,-3.03353 59.412137,-9.20755 49.117278,-6.53186 53.872698,-4.50781 54.447228,-5.83363 0.57452,-1.32583 -7.68979,-10.51822 -11.31371,-10.25305 -3.62392,0.26516 -2.20322,3.12004 -38.97927,8.35584 -66.991341,9.53754 -63.497715,7.68664 -77.494483,8.21697 z"
       id="path44045"
       sodipodi:nodetypes="cssssscc" />
    <path
       style="font-variation-settings:normal;opacity:1;vector-effect:none;fill:#ffd42a;fill-opacity:0.609231;stroke:none;stroke-width:2.1;stroke-linecap:butt;stroke-linejoin:miter;stroke-miterlimit:4;stroke-dasharray:2.1, 4.2;stroke-dashoffset:0;stroke-opacity:1;-inkscape-stroke:none;stop-color:#000000;stop-opacity:1"
       d="M 30.482933,161.85012 C 46.74639,151.59707 55.419497,142.6588 58.689866,138.8581 c 3.270369,-3.8007 5.723796,-3.29134 6.696068,-4.77297 0.972272,-1.48164 -4.044418,-9.54594 -4.044418,-9.54594 h -4.684583 c 0,0 -0.972271,4.27455 -2.209708,6.4683 -1.237437,2.19376 -7.408537,13.07111 -25.086207,29.42295 z"
       id="path45120"
       sodipodi:nodetypes="cssccscc" />
    <path
       style="font-variation-settings:normal;opacity:1;vector-effect:none;fill:#ffd42a;fill-opacity:0.609231;stroke:none;stroke-width:2.1;stroke-linecap:butt;stroke-linejoin:miter;stroke-miterlimit:4;stroke-dasharray:2.1, 4.2;stroke-dashoffset:0;stroke-opacity:1;-inkscape-stroke:none;stop-color:#000000;stop-opacity:1"
       d="m 53.375002,142.06251 c 11.937501,7.625 22.546876,15.5625 22.546876,15.5625 l 1.27811,-0.76666 c 0,0 -1.262485,-9.10834 -3.137485,-11.10834 -1.875,-2 -19.5625,-5.25 -19.5625,-5.25 z"
       id="path45684"
       sodipodi:nodetypes="cccscc" />
    <path
       style="font-variation-settings:normal;opacity:1;vector-effect:none;fill:#ffd42a;fill-opacity:0.609231;stroke:none;stroke-width:2.1;stroke-linecap:butt;stroke-linejoin:miter;stroke-miterlimit:4;stroke-dasharray:2.1, 4.2;stroke-dashoffset:0;stroke-opacity:1;-inkscape-stroke:none;stop-color:#000000;stop-opacity:1"
       d="m 100.93506,150.69234 c 12.63953,-8.30851 20.02126,-15.84833 24.88262,-20.53291 4.86136,-4.68458 7.03001,-3.6315 8.26745,-5.31088 1.23744,-1.67938 -4.06586,-9.32497 -4.06586,-9.32497 l -7.77818,0.88388 c 0,0 -0.28388,4.06587 -2.66101,8.13173 -2.37713,4.06586 -6.70724,11.60123 -19.965488,24.55457 z"
       id="path46774"
       sodipodi:nodetypes="cssccscc" />
    <path
       style="font-variation-settings:normal;opacity:1;vector-effect:none;fill:#ffd42a;fill-opacity:0.609231;stroke:none;stroke-width:2.1;stroke-linecap:butt;stroke-linejoin:miter;stroke-miterlimit:4;stroke-dasharray:2.1, 4.2;stroke-dashoffset:0;stroke-opacity:1;-inkscape-stroke:none;stop-color:#000000;stop-opacity:1"
       d="m 119.01488,134.46664 c 17.12563,12.79412 24.15613,20.98244 24.15613,20.98244 l 1.53186,-0.88448 c 0,0 0.41429,-10.05416 -0.91398,-11.41393 -1.32826,-1.35978 -22.79932,-10.04271 -22.79932,-10.04271 z"
       id="path47114" />
    <path
       style="font-variation-settings:normal;opacity:1;vector-effect:none;fill:#ffd42a;fill-opacity:0.609231;stroke:none;stroke-width:2.1;stroke-linecap:butt;stroke-linejoin:miter;stroke-miterlimit:4;stroke-dasharray:2.1, 4.2;stroke-dashoffset:0;stroke-opacity:1;-inkscape-stroke:none;stop-color:#000000;stop-opacity:1"
       d="m 10.394426,166.9656 c 0,0 12.043075,7.64275 18.355575,7.64275 6.312501,0 23.831741,-4.31968 81.817549,-10.06585 51.00265,-5.05417 57.43536,-2.87133 59.03802,-5.35508 1.60267,-2.48375 -7.81827,-13.78858 -10.29315,-13.52342 -2.47487,0.26517 -1.05799,5.5199 -48.5252,11.03967 -67.704032,7.87304 -82.132045,7.34595 -99.915453,8.40577 z"
       id="path49789"
       sodipodi:nodetypes="cssssscc" />
    <path
       style="font-variation-settings:normal;opacity:1;vector-effect:none;fill:#ffd42a;fill-opacity:0.609231;stroke:none;stroke-width:2.1;stroke-linecap:butt;stroke-linejoin:miter;stroke-miterlimit:4;stroke-dasharray:2.1, 4.2;stroke-dashoffset:0;stroke-opacity:1;-inkscape-stroke:none;stop-color:#000000;stop-opacity:1"
       d="m 85.375004,162.62501 c 0,0 -1.25,-26 -1.75,-31.61754 -0.5,-5.61753 -1.74083,-9.88246 -1.74083,-9.88246 l 9.86583,-1.75 c 0,0 3.928487,0.68272 3.932994,2.65386 0.0045,1.97114 -2.827691,3.12904 -2.827691,8.34395 0,5.21491 0.747957,31.4773 0.747957,31.4773 z"
       id="path51321" />
  </g>
</svg>
