<?xml version="1.0" encoding="UTF-8" standalone="no"?>
<!-- Created with Inkscape (http://www.inkscape.org/) -->

<svg
   width="180"
   height="180"
   viewBox="0 0 180 180"
   version="1.1"
   id="svg5"
   inkscape:version="1.2-alpha (0bd5040e63, 2022-02-05)"
   sodipodi:docname="鷹.svg"
   xmlns:inkscape="http://www.inkscape.org/namespaces/inkscape"
   xmlns:sodipodi="http://sodipodi.sourceforge.net/DTD/sodipodi-0.dtd"
   xmlns="http://www.w3.org/2000/svg"
   xmlns:svg="http://www.w3.org/2000/svg">
  <sodipodi:namedview
     id="namedview7"
     pagecolor="#505050"
     bordercolor="#ffffff"
     borderopacity="1"
     inkscape:pageshadow="0"
     inkscape:pageopacity="0"
     inkscape:pagecheckerboard="1"
     inkscape:blackoutopacity="0.0"
     inkscape:document-units="px"
     showgrid="false"
     inkscape:zoom="7.9999996"
     inkscape:cx="91.000004"
     inkscape:cy="115.93751"
     inkscape:window-width="1920"
     inkscape:window-height="1011"
     inkscape:window-x="-9"
     inkscape:window-y="30"
     inkscape:window-maximized="1"
     inkscape:current-layer="layer2" />
  <defs
     id="defs2" />
  <g
     inkscape:label="图层 1"
     inkscape:groupmode="layer"
     id="layer1"
     style="display:inline"
     sodipodi:insensitive="true">
    <text
       xml:space="preserve"
       style="font-style:normal;font-weight:normal;font-size:175.536px;line-height:1.25;font-family:sans-serif;fill:#000000;fill-opacity:1;stroke:none;stroke-width:4.38838"
       x="2.3197703"
       y="156.70367"
       id="text2280"><tspan
         sodipodi:role="line"
         id="tspan2278"
         x="2.3197703"
         y="156.70367"
         style="font-style:normal;font-variant:normal;font-weight:normal;font-stretch:normal;font-size:175.536px;font-family:'WenYue Juzhen';-inkscape-font-specification:'WenYue Juzhen';font-variant-ligatures:normal;font-variant-caps:normal;font-variant-numeric:normal;font-variant-east-asian:normal;stroke-width:4.38838">鷹</tspan></text>
  </g>
  <g
     inkscape:groupmode="layer"
     id="layer2"
     inkscape:label="图层 2"
     style="display:inline">
    <path
       style="font-variation-settings:normal;opacity:1;vector-effect:none;fill:#ffd42a;fill-opacity:0.609231;stroke:none;stroke-width:2.1;stroke-linecap:butt;stroke-linejoin:miter;stroke-miterlimit:4;stroke-dasharray:2.1, 4.2;stroke-dashoffset:0;stroke-opacity:1;-inkscape-stroke:none;stop-color:#000000;stop-opacity:1"
       d="M 8.9901382,141.86329 C 51.404553,102.97243 50.337165,49.210214 51.265242,38.515223 c 0.359651,-4.14455 1.856155,-5.899922 1.856155,-5.899922 0,0 -3.483757,-7.726398 -14.00197,-18.067835 l -1.213177,0.905659 c 0,0 4.873711,9.29253 4.962099,22.730642 0.08255,12.550874 -1.599124,63.560383 -35.1213798,102.451623 z"
       id="path12783"
       sodipodi:nodetypes="cscccscc" />
    <path
       style="font-variation-settings:normal;opacity:1;vector-effect:none;fill:#ffd42a;fill-opacity:0.609231;stroke:none;stroke-width:2.1;stroke-linecap:butt;stroke-linejoin:miter;stroke-miterlimit:4;stroke-dasharray:2.1, 4.2;stroke-dashoffset:0;stroke-opacity:1;-inkscape-stroke:none;stop-color:#000000;stop-opacity:1"
       d="m 105.46875,22.09375 c 0,0 0.125,-2.96875 0.25,-6.15625 0.125,-3.1875 2.65625,-3.78125 2.65625,-4.71875 0,-0.9375 -1.65921,-2.6546833 -5.24057,-4.6325824 C 98.787151,4.1852791 93.708948,4.1628942 93.708948,4.1628942 l -0.625,1.2746059 c 0,0 5.230183,2.4848165 5.518306,8.8006069 0.241841,5.301283 0.231694,8.074393 0.231694,8.074393 z"
       id="path18841"
       sodipodi:nodetypes="csssccscc" />
    <path
       style="font-variation-settings:normal;opacity:1;vector-effect:none;fill:#ffd42a;fill-opacity:0.609231;stroke:none;stroke-width:2.1;stroke-linecap:butt;stroke-linejoin:miter;stroke-miterlimit:4;stroke-dasharray:2.1, 4.2;stroke-dashoffset:0;stroke-opacity:1;-inkscape-stroke:none;stop-color:#000000;stop-opacity:1"
       d="M 46.625,27.25 C 54.687501,26.8125 93.422372,21.450812 121.93306,17.133502 150.87056,12.751561 154.625,7.1250001 156.75,7.0625001 158.875,7.0000001 167.1875,15.375 166.5625,17.0625 165.9375,18.75 164.81864,16.761337 119.25,23.5 75.551034,29.962177 47.5,34.5 47.5,34.5 Z"
       id="path20073"
       sodipodi:nodetypes="csssscc" />
    <path
       style="font-variation-settings:normal;opacity:1;vector-effect:none;fill:#ffd42a;fill-opacity:0.609231;stroke:none;stroke-width:2.1;stroke-linecap:butt;stroke-linejoin:miter;stroke-miterlimit:4;stroke-dasharray:2.1, 4.2;stroke-dashoffset:0;stroke-opacity:1;-inkscape-stroke:none;stop-color:#000000;stop-opacity:1"
       d="M 53.580075,65.080824 C 66.484774,54.297445 73.000001,46.59375 77.031251,42.53125 c 3.95646,-3.98713 5.875,-2.9375 6.25,-3.375 0.375,-0.4375 0.1875,-2.1875 -1.46875,-4.375 -1.65625,-2.1875 -6.0625,-6.09375 -6.0625,-6.09375 l -2.255089,0.392267 c 0,0 0.578312,4.915791 -2.171688,9.540791 -2.75,4.625 -7.17538,13.351791 -18.842642,25.19583 z"
       id="path22727"
       sodipodi:nodetypes="csssccscc" />
    <path
       style="font-variation-settings:normal;opacity:1;vector-effect:none;fill:#ffd42a;fill-opacity:0.609231;stroke:none;stroke-width:2.1;stroke-linecap:butt;stroke-linejoin:miter;stroke-miterlimit:4;stroke-dasharray:2.1, 4.2;stroke-dashoffset:0;stroke-opacity:1;-inkscape-stroke:none;stop-color:#000000;stop-opacity:1"
       d="m 73.406251,43.75 c 0,0 -0.659297,2.628535 -0.4375,7.375001 0.9375,20.0625 1.525888,22.182138 1.619638,24.775888 0.126444,3.498274 0.632583,5.833947 -1.117417,6.208947 -1.75,0.375 -6.453628,-6.411247 -6.71875,-8.497779 -0.217934,-1.715157 1.210154,-1.149969 1.210154,-5.962469 0,-4.8125 -0.201035,-7.323986 -0.712375,-11.899587 -0.299497,-2.679977 -0.987976,-4.162913 -0.987976,-4.162913 z"
       id="path24807"
       sodipodi:nodetypes="csssssscc" />
    <path
       style="font-variation-settings:normal;opacity:1;vector-effect:none;fill:#ffd42a;fill-opacity:0.609231;stroke:none;stroke-width:2.1;stroke-linecap:butt;stroke-linejoin:miter;stroke-miterlimit:4;stroke-dasharray:2.1, 4.2;stroke-dashoffset:0;stroke-opacity:1;-inkscape-stroke:none;stop-color:#000000;stop-opacity:1"
       d="m 77.737552,57.054679 c 0,0 19.622214,-16.628058 24.306798,-21.356835 4.68458,-4.728775 4.94975,-3.502388 5.48008,-4.253689 0.53033,-0.751301 -0.59663,-2.187612 -1.81197,-3.623922 -1.21533,-1.436311 -3.97747,-4.220544 -3.97747,-4.220544 L 99.156251,23.21875 c 0,0 -0.223351,5.245476 -2.15625,8.1875 -3.224493,4.907932 -20.160204,24.762945 -20.160204,24.762945 z"
       id="path30072"
       sodipodi:nodetypes="csssccscc" />
    <path
       style="font-variation-settings:normal;opacity:1;vector-effect:none;fill:#ffd42a;fill-opacity:0.609231;stroke:none;stroke-width:2.1;stroke-linecap:butt;stroke-linejoin:miter;stroke-miterlimit:4;stroke-dasharray:2.1, 4.2;stroke-dashoffset:0;stroke-opacity:1;-inkscape-stroke:none;stop-color:#000000;stop-opacity:1"
       d="m 91.216776,42.161242 c 0,0 1.376975,1.338758 1.689475,7.213758 0.3125,5.875001 0.40625,14.875001 0.40625,19.062501 0,4.1875 -3.1875,4.875 -2.8125,7.0625 0.375,2.1875 6.1875,10.5625 7.75,10.5 1.5625,-0.0625 2.087089,-8.49816 1.962089,-11.06066 -0.125,-2.5625 -1.411497,-8.097601 -1.439342,-26.958186 -0.0102,-6.906262 0.886601,-12.863054 0.886601,-12.863054 z"
       id="path30616"
       sodipodi:nodetypes="csssssscc" />
    <path
       style="font-variation-settings:normal;opacity:1;vector-effect:none;fill:#ffd42a;fill-opacity:0.609231;stroke:none;stroke-width:2.1;stroke-linecap:butt;stroke-linejoin:miter;stroke-miterlimit:4;stroke-dasharray:2.1, 4.2;stroke-dashoffset:0;stroke-opacity:1;-inkscape-stroke:none;stop-color:#000000;stop-opacity:1"
       d="m 128.9375,37.125 c 0,0 0.26017,-2.443133 1.12121,-6.818782 0.46688,-2.372617 3.22293,-2.56472 3.53007,-3.732995 0.16089,-0.611969 -0.43253,-1.729473 -2.52628,-3.135723 -2.09375,-1.40625 -6.2636,-2.766909 -6.2636,-2.766909 l -0.94473,0.962457 c 0,0 1.3128,1.273202 0.84405,5.679452 -0.46875,4.40625 -1.34375,9.9375 -1.34375,9.9375 z"
       id="path33736"
       sodipodi:nodetypes="csssccscc" />
    <path
       style="font-variation-settings:normal;opacity:1;vector-effect:none;fill:#ffd42a;fill-opacity:0.609231;stroke:none;stroke-width:2.1;stroke-linecap:butt;stroke-linejoin:miter;stroke-miterlimit:4;stroke-dasharray:2.1, 4.2;stroke-dashoffset:0;stroke-opacity:1;-inkscape-stroke:none;stop-color:#000000;stop-opacity:1"
       d="m 98.562168,38.971769 c 0,0 3.841332,3.496981 6.469082,3.778231 2.62775,0.28125 15.23875,-2.655155 33.52063,-5.5 20.48389,-3.1875 22.84524,-1.496913 23.24299,-2.469185 0.39775,-0.972272 -5.92202,-8.794641 -8.48528,-8.441087 -2.56326,0.353553 -0.87156,2.683366 -19.55535,6.472772 -21.87924,4.4375 -35.129239,4.875 -35.129239,4.875 z"
       id="path36854"
       sodipodi:nodetypes="cssssscc" />
    <path
       style="font-variation-settings:normal;opacity:1;vector-effect:none;fill:#ffd42a;fill-opacity:0.609231;stroke:none;stroke-width:2.1;stroke-linecap:butt;stroke-linejoin:miter;stroke-miterlimit:4;stroke-dasharray:2.1, 4.2;stroke-dashoffset:0;stroke-opacity:1;-inkscape-stroke:none;stop-color:#000000;stop-opacity:1"
       d="m 101.70613,50.685375 c 0,0 4.1398,2.846894 7.54187,2.612799 5.02795,-0.345971 12.55009,-2.317299 31.66447,-5.380966 18.04871,-2.89286 24.28535,-1.645908 24.55052,-2.618179 0.26516,-0.972272 -5.78944,-6.319767 -7.86656,-6.319767 -2.07713,0 -2.81937,1.357838 -18.78031,4.676988 -16.12329,3.352912 -30.47251,4.869183 -36.95391,5.937426 z"
       id="path38799"
       sodipodi:nodetypes="cssssscc" />
    <path
       style="font-variation-settings:normal;opacity:1;vector-effect:none;fill:#ffd42a;fill-opacity:0.609231;stroke:none;stroke-width:2.1;stroke-linecap:butt;stroke-linejoin:miter;stroke-miterlimit:4;stroke-dasharray:2.1, 4.2;stroke-dashoffset:0;stroke-opacity:1;-inkscape-stroke:none;stop-color:#000000;stop-opacity:1"
       d="m 102.2743,61.459761 c 8.4375,-1.3125 19.1007,-2.08476 36.4132,-5.52226 17.3125,-3.4375 15.4375,-5.40625 16.9375,-5.46875 1.5,-0.0625 6.625,5.34375 6.18781,6.585928 -0.43718,1.242178 -5.02063,1.316614 -22.18781,3.504546 -20.57456,2.622197 -31.3125,4.159526 -33.53125,4.097026 -2.21875,-0.0625 -4.03662,-2.110771 -4.03662,-2.110771 z"
       id="path42387"
       sodipodi:nodetypes="cssssscc" />
    <path
       style="font-variation-settings:normal;opacity:1;vector-effect:none;fill:#ffd42a;fill-opacity:0.609231;stroke:none;stroke-width:2.1;stroke-linecap:butt;stroke-linejoin:miter;stroke-miterlimit:4;stroke-dasharray:2.1, 4.2;stroke-dashoffset:0;stroke-opacity:1;-inkscape-stroke:none;stop-color:#000000;stop-opacity:1"
       d="m 102.26766,74.573875 c 15.11504,-1.84283 19.3382,-1.741168 40.50379,-5.440832 18.02133,-3.15006 17.97855,-6.758042 20.91605,-7.070542 2.9375,-0.3125 7.75,6.6875 7.32236,8.0625 -0.42764,1.375 -2.94736,0.5 -27.13486,3.9375 -21.2754,3.023636 -32.9375,5.375 -36.216,4.875 -3.2785,-0.5 -5.60187,-3.125 -5.60187,-3.125 z"
       id="path45267"
       sodipodi:nodetypes="cssssscc" />
    <path
       style="font-variation-settings:normal;opacity:1;vector-effect:none;fill:#ffd42a;fill-opacity:0.609231;stroke:none;stroke-width:2.1;stroke-linecap:butt;stroke-linejoin:miter;stroke-miterlimit:4;stroke-dasharray:2.1, 4.2;stroke-dashoffset:0;stroke-opacity:1;-inkscape-stroke:none;stop-color:#000000;stop-opacity:1"
       d="m 124.57579,74.422989 c 0,0 0.0729,-23.127224 -1.67712,-36.502224 l 7.59015,-1.062824 c -1.27308,6.220142 0.40579,36.857942 0.40579,36.857942 z"
       id="path48811"
       sodipodi:nodetypes="ccccc" />
    <path
       style="font-variation-settings:normal;opacity:1;vector-effect:none;fill:#ffd42a;fill-opacity:0.609231;stroke:none;stroke-width:2.1;stroke-linecap:butt;stroke-linejoin:miter;stroke-miterlimit:4;stroke-dasharray:2.1, 4.2;stroke-dashoffset:0;stroke-opacity:1;-inkscape-stroke:none;stop-color:#000000;stop-opacity:1"
       d="m 35,118.25 c 22.875001,-10.875 40.662533,-27.896447 45.656251,-32.249651 4.468282,-3.895162 5.040403,-4.184924 5.540403,-4.809707 0.5,-0.624783 0.05498,-2.087725 -0.571653,-2.985264 -1.367148,-1.958186 -4.75,-4.517877 -4.75,-4.517877 l -1.259196,0.868071 c 0,0 2.099816,2.100291 -4.916587,9.236582 -7.083464,7.204499 -19.558592,20.629726 -40.433593,33.129726 z"
       id="path49657"
       sodipodi:nodetypes="csssccscc" />
    <path
       style="font-variation-settings:normal;opacity:1;vector-effect:none;fill:#ffd42a;fill-opacity:0.609231;stroke:none;stroke-width:2.1;stroke-linecap:butt;stroke-linejoin:miter;stroke-miterlimit:4;stroke-dasharray:2.1, 4.2;stroke-dashoffset:0;stroke-opacity:1;-inkscape-stroke:none;stop-color:#000000;stop-opacity:1"
       d="m 65.437501,93.934585 c 0,0 1.5625,3.190416 2.4375,10.440415 0.875,7.25 1.046375,11.82361 0.768306,15.69064 -0.434359,6.04051 -2.955806,7.46117 -2.955806,10.09061 0,2.1875 5.875,12.71875 7.5625,12.46875 1.6875,-0.25 1.9375,-8 1.8125,-12.125 -0.125,-4.125 -1.90671,-25.51072 -3.40671,-33.245093 l -4.78079,-4.536156 z"
       id="path55905"
       sodipodi:nodetypes="csssssccc" />
    <path
       style="font-variation-settings:normal;opacity:1;vector-effect:none;fill:#ffd42a;fill-opacity:0.609231;stroke:none;stroke-width:2.1;stroke-linecap:butt;stroke-linejoin:miter;stroke-miterlimit:4;stroke-dasharray:2.1, 4.2;stroke-dashoffset:0;stroke-opacity:1;-inkscape-stroke:none;stop-color:#000000;stop-opacity:1"
       d="m 132.375,108.75 c 0,0 0.767,-8.37776 2.625,-15.656249 1.43109,-5.606118 5.62587,-5.721868 5.58167,-7.445441 -0.0442,-1.723573 -7.38043,-7.159452 -9.23658,-7.115262 -1.85616,0.04419 -1.96415,3.466736 -25.63263,8.175922 -22.983223,4.572845 -30.507837,5.951048 -38.931207,7.322281 l -0.04805,1.937499 c 0,0 3.929147,2.407486 6.14299,2.451676 2.213843,0.04419 19.489631,-3.579728 33.366597,-6.761709 13.87698,-3.18198 19.97577,-5.303301 21.12482,-4.419417 1.14905,0.883883 -1.01647,22.09709 -1.01647,22.09709 z"
       id="path64073"
       sodipodi:nodetypes="csssccssssc" />
    <path
       style="font-variation-settings:normal;opacity:1;vector-effect:none;fill:#ffd42a;fill-opacity:0.609231;stroke:none;stroke-width:2.1;stroke-linecap:butt;stroke-linejoin:miter;stroke-miterlimit:4;stroke-dasharray:2.1, 4.2;stroke-dashoffset:0;stroke-opacity:1;-inkscape-stroke:none;stop-color:#000000;stop-opacity:1"
       d="m 70.232519,106.88887 c 0,0 8.578412,-1.37168 30.309781,-6.45137 12.76695,-2.984266 13.0827,-3.812499 14.5202,-3.937499 1.4375,-0.125 6.51947,2.934464 5.9375,4.187499 -0.50748,1.09266 -0.89725,0.10225 -23.343749,4.9375 -19.430961,4.18567 -26.473192,6.11742 -26.473192,6.11742 z"
       id="path67097"
       sodipodi:nodetypes="csssscc" />
    <path
       style="font-variation-settings:normal;opacity:1;vector-effect:none;fill:#ffd42a;fill-opacity:0.609231;stroke:none;stroke-width:2.1;stroke-linecap:butt;stroke-linejoin:miter;stroke-miterlimit:4;stroke-dasharray:2.1, 4.2;stroke-dashoffset:0;stroke-opacity:1;-inkscape-stroke:none;stop-color:#000000;stop-opacity:1"
       d="m 71.750001,122.875 c 0,0 12.532717,-2.23977 38.529029,-7.63258 28.2539,-5.86113 30.39139,-5.12186 30.30299,-5.90603 -0.0878,-0.77923 -5.53913,-5.45382 -7.63041,-5.40562 -2.80349,0.0646 -2.15688,2.91648 -25.47138,7.81165 -21.881867,4.59437 -29.262399,6.07322 -36.373535,6.86113 z"
       id="path67794"
       sodipodi:nodetypes="cssssc" />
    <path
       style="font-variation-settings:normal;opacity:1;vector-effect:none;fill:#ffd42a;fill-opacity:0.609231;stroke:none;stroke-width:2.1;stroke-linecap:butt;stroke-linejoin:miter;stroke-miterlimit:4;stroke-dasharray:2.1, 4.2;stroke-dashoffset:0;stroke-opacity:1;-inkscape-stroke:none;stop-color:#000000;stop-opacity:1"
       d="m 73.750001,129.90625 c 0,0 3.103668,1.61561 6.462425,1.65981 3.358758,0.0442 14.754968,-2.94106 40.833774,-7.69106 26.0788,-4.75 31.2663,-3.4375 31.6413,-4.4375 0.375,-1 -5.6875,-7.4375 -8,-7.1875 -2.3125,0.25 0.15489,2.5 -23.6413,7.25 -23.796199,4.75 -39.695245,7.50306 -47.483699,9.375 z"
       id="path71104" />
    <path
       style="font-variation-settings:normal;opacity:1;vector-effect:none;fill:#ffd42a;fill-opacity:0.609231;stroke:none;stroke-width:2.1;stroke-linecap:butt;stroke-linejoin:miter;stroke-miterlimit:4;stroke-dasharray:2.1, 4.2;stroke-dashoffset:0;stroke-opacity:1;-inkscape-stroke:none;stop-color:#000000;stop-opacity:1"
       d="m 127.85375,163.47425 c 0,0 10.93215,3.72277 13.29324,3.24134 1.59633,-0.32549 3.10279,-3.10876 5.22412,-10.01192 2.12132,-6.90315 6.15371,-20.09412 5.4908,-22.12705 -0.66292,-2.03293 -8.83731,-0.42845 -34.83574,3.66276 -38.148469,6.00319 -45.088778,8.0844 -47.917205,7.996 -2.828427,-0.0884 -10.330713,-5.65371 -10.330713,-5.65371 l 0.441942,-1.23744 c 0,0 11.085944,0.89426 59.043406,-6.93848 39.15404,-6.39491 33.87616,-10.39882 37.76236,-10.50102 1.62104,-0.0426 10.28654,8.41586 10.16154,9.66181 -0.16851,1.67966 -4.375,2.66004 -6.625,10.29675 -2.25,7.63671 -7.5,23.63671 -9,26.94921 -1.5,3.3125 -6.1875,6.61169 -8,7.0246 -1.8125,0.4129 -2.97244,-3.04976 -6.5625,-5.85985 -3.86742,-3.02719 -8.62278,-5.34375 -8.62278,-5.34375 z"
       id="path71785"
       sodipodi:nodetypes="csssssccssssssscc" />
    <path
       style="font-variation-settings:normal;opacity:1;vector-effect:none;fill:#ffd42a;fill-opacity:0.609231;stroke:none;stroke-width:2.1;stroke-linecap:butt;stroke-linejoin:miter;stroke-miterlimit:4;stroke-dasharray:2.1, 4.2;stroke-dashoffset:0;stroke-opacity:1;-inkscape-stroke:none;stop-color:#000000;stop-opacity:1"
       d="m 50.204582,144.42656 c 0,0 0.586184,10.93763 -2.740039,18.03122 -2.396155,5.1101 -3.544797,1.69249 -4.294417,5.18811 -0.53033,2.47303 0.02154,8.23109 1.200825,8.84364 1.701475,0.88379 7.186584,-3.56422 8.750446,-8.55167 3.270369,-10.42982 -1.237436,-23.77646 -1.237436,-23.77646 z"
       id="path84305"
       sodipodi:nodetypes="csssscc" />
    <path
       style="font-variation-settings:normal;opacity:1;vector-effect:none;fill:#ffd42a;fill-opacity:0.609231;stroke:none;stroke-width:2.1;stroke-linecap:butt;stroke-linejoin:miter;stroke-miterlimit:4;stroke-dasharray:2.1, 4.2;stroke-dashoffset:0;stroke-opacity:1;-inkscape-stroke:none;stop-color:#000000;stop-opacity:1"
       d="m 71.437501,149.375 c 0,0 11.125,10.75 10.5,15 -0.625,4.25 -5.650888,9.78661 -5.650888,9.78661 l -1.245559,-0.52144 c 0,0 -1.513517,-10.51517 -4.808535,-23.70267 z"
       id="path86262"
       sodipodi:nodetypes="cscccc" />
    <path
       style="font-variation-settings:normal;opacity:1;vector-effect:none;fill:#ffd42a;fill-opacity:0.609231;stroke:none;stroke-width:2.1;stroke-linecap:butt;stroke-linejoin:miter;stroke-miterlimit:4;stroke-dasharray:2.1, 4.2;stroke-dashoffset:0;stroke-opacity:1;-inkscape-stroke:none;stop-color:#000000;stop-opacity:1"
       d="m 89.312501,146.75 c 0,0 13.133919,5.4627 16.187499,11.59375 0.94923,1.90589 -3.90625,9.87232 -3.90625,9.87232 L 100.125,168.0625 c 0,0 -3.514514,-10.27903 -11.639514,-20.34153 z"
       id="path86264"
       sodipodi:nodetypes="cscccc" />
    <path
       style="font-variation-settings:normal;opacity:1;vector-effect:none;fill:#ffd42a;fill-opacity:0.609231;stroke:none;stroke-width:2.1;stroke-linecap:butt;stroke-linejoin:miter;stroke-miterlimit:4;stroke-dasharray:2.1, 4.2;stroke-dashoffset:0;stroke-opacity:1;-inkscape-stroke:none;stop-color:#000000;stop-opacity:1"
       d="m 109.21875,141.59375 c 8.74112,9.77329 13.46875,20.04955 13.46875,20.04955 l 1.8125,0.125 c 0,0 4.375,-6.7683 3.9375,-9.8933 C 128,148.75 110.18994,140.34997 110.18994,140.34997 Z"
       id="path86965"
       sodipodi:nodetypes="cccscc" />
  </g>
</svg>
