<?xml version="1.0" encoding="UTF-8" standalone="no"?>
<!-- Created with Inkscape (http://www.inkscape.org/) -->

<svg
   width="180"
   height="180"
   viewBox="0 0 180 180"
   version="1.1"
   id="svg5"
   inkscape:version="1.2-alpha (0bd5040e63, 2022-02-05)"
   sodipodi:docname="𤃄.svg"
   xmlns:inkscape="http://www.inkscape.org/namespaces/inkscape"
   xmlns:sodipodi="http://sodipodi.sourceforge.net/DTD/sodipodi-0.dtd"
   xmlns="http://www.w3.org/2000/svg"
   xmlns:svg="http://www.w3.org/2000/svg">
  <sodipodi:namedview
     id="namedview7"
     pagecolor="#505050"
     bordercolor="#ffffff"
     borderopacity="1"
     inkscape:pageshadow="0"
     inkscape:pageopacity="0"
     inkscape:pagecheckerboard="1"
     inkscape:blackoutopacity="0.0"
     inkscape:document-units="px"
     showgrid="false"
     inkscape:zoom="2.8284271"
     inkscape:cx="89.095455"
     inkscape:cy="62.755728"
     inkscape:window-width="1920"
     inkscape:window-height="1011"
     inkscape:window-x="-9"
     inkscape:window-y="30"
     inkscape:window-maximized="1"
     inkscape:current-layer="layer2" />
  <defs
     id="defs2" />
  <g
     inkscape:label="图层 1"
     inkscape:groupmode="layer"
     id="layer1"
     style="display:inline"
     sodipodi:insensitive="true">
    <text
       xml:space="preserve"
       style="font-style:normal;font-weight:normal;font-size:175.536px;line-height:1.25;font-family:sans-serif;fill:#000000;fill-opacity:1;stroke:none;stroke-width:4.38838"
       x="2.3197703"
       y="156.70367"
       id="text2280"><tspan
         sodipodi:role="line"
         id="tspan2278"
         x="2.3197703"
         y="156.70367"
         style="font-style:normal;font-variant:normal;font-weight:normal;font-stretch:normal;font-size:175.536px;font-family:'WenYue Juzhen';-inkscape-font-specification:'WenYue Juzhen';font-variant-ligatures:normal;font-variant-caps:normal;font-variant-numeric:normal;font-variant-east-asian:normal;stroke-width:4.38838">𤃄</tspan></text>
  </g>
  <g
     inkscape:groupmode="layer"
     id="layer2"
     inkscape:label="图层 2"
     style="display:inline"
     transform="translate(-174.5)">
    <path
       style="font-variation-settings:normal;opacity:1;vector-effect:none;fill:#ffd42a;fill-opacity:0.609231;stroke:none;stroke-width:2.0793;stroke-linecap:butt;stroke-linejoin:miter;stroke-miterlimit:4;stroke-dasharray:2.0793, 4.1586;stroke-dashoffset:0;stroke-opacity:1;-inkscape-stroke:none;stop-color:#000000;stop-opacity:1"
       d="m 229.05795,41.258404 c 0,0 11.8698,5.549006 13.62829,5.244116 1.75848,-0.304891 3.45418,-3.231839 6.46874,-9.634539 3.01454,-6.4027 4.27061,-14.085939 3.39137,-14.634742 -0.87925,-0.548803 -7.59919,1.036628 -19.97143,3.17086 -12.37223,2.134234 -22.94918,5.290299 -24.89608,5.229321 -1.9469,-0.06098 -11.69524,-6.323414 -11.69524,-6.323414 l 0.28938,-1.290181 c 15.5752,-1.28054 22.48944,-0.694693 48.04615,-5.298965 11.11543,-2.002547 12.37222,-6.219766 13.8795,-6.341722 1.50728,-0.121956 8.79246,6.829546 8.66685,8.353999 -0.12561,1.524453 -5.8407,1.829342 -8.79246,9.756495 -2.95175,7.927153 -7.47024,17.806134 -9.48445,21.152377 -2.07697,3.450494 -5.1487,5.434072 -6.40475,5.129181 -1.25607,-0.30489 -1.13047,-3.780642 -4.71024,-6.585634 -3.57979,-2.804992 -9.20649,-6.54144 -9.20649,-6.54144 z"
       id="path3314"
       sodipodi:nodetypes="csssssccssssssscc" />
    <path
       style="font-variation-settings:normal;opacity:1;vector-effect:none;fill:#ffd42a;fill-opacity:0.609231;stroke:none;stroke-width:2.1365;stroke-linecap:butt;stroke-linejoin:miter;stroke-miterlimit:4;stroke-dasharray:2.1365, 4.273;stroke-dashoffset:0;stroke-opacity:1;-inkscape-stroke:none;stop-color:#000000;stop-opacity:1"
       d="m 185.24607,67.167727 c 22.18291,-9.470942 37.13846,-21.9559 44.98293,-30.535855 5.8453,-6.393345 6.43659,-4.270417 6.75452,-5.669316 0.31793,-1.3989 -5.13213,-8.384747 -5.13213,-8.384747 l -3.48934,0.533745 c 0,0 0.12286,4.203074 -3.77685,9.530714 -3.95029,5.39678 -16.63336,19.661238 -40.0401,33.207132 z"
       id="path19625"
       sodipodi:nodetypes="cssccscc" />
    <path
       style="font-variation-settings:normal;opacity:1;vector-effect:none;fill:#ffd42a;fill-opacity:0.609231;stroke:none;stroke-width:2.1365;stroke-linecap:butt;stroke-linejoin:miter;stroke-miterlimit:4;stroke-dasharray:2.1365, 4.273;stroke-dashoffset:0;stroke-opacity:1;-inkscape-stroke:none;stop-color:#000000;stop-opacity:1"
       d="m 184.11911,124.11425 c 25.06782,-18.33153 27.22822,-50.778648 27.48256,-56.946523 0.25434,-6.167874 3.72131,-8.535933 3.72131,-8.535933 0,0 -4.94587,-6.474576 -15.15232,-11.708828 l -1.08216,1.433014 c 0,0 6.43268,5.519052 6.07299,15.675917 -0.35971,10.156862 -0.7891,34.757719 -22.15411,58.920523 z"
       id="path27398"
       sodipodi:nodetypes="cscccscc" />
    <path
       style="font-variation-settings:normal;opacity:1;vector-effect:none;fill:#ffd42a;fill-opacity:0.609231;stroke:none;stroke-width:2.1365;stroke-linecap:butt;stroke-linejoin:miter;stroke-miterlimit:4;stroke-dasharray:2.1365, 4.273;stroke-dashoffset:0;stroke-opacity:1;-inkscape-stroke:none;stop-color:#000000;stop-opacity:1"
       d="m 209.91124,62.351062 c 0,0 7.32228,-0.07334 33.23019,-4.482836 22.17412,-3.77401 24.09922,-3.052145 24.60954,-4.00594 0.5103,-0.953795 -4.38909,-8.647742 -6.80537,-8.584155 -2.41628,0.06358 -3.26957,3.939379 -18.4137,6.938626 -23.81127,4.715749 -33.00217,4.379741 -33.00217,4.379741 z"
       id="path30879"
       sodipodi:nodetypes="csssscc" />
    <path
       style="font-variation-settings:normal;opacity:1;vector-effect:none;fill:#ffd42a;fill-opacity:0.609231;stroke:none;stroke-width:2.1365;stroke-linecap:butt;stroke-linejoin:miter;stroke-miterlimit:4;stroke-dasharray:2.1365, 4.273;stroke-dashoffset:0;stroke-opacity:1;-inkscape-stroke:none;stop-color:#000000;stop-opacity:1"
       d="m 219.55089,66.325208 c 4.38746,6.549393 5.72278,10.618918 5.72278,11.890645 0,1.271726 -3.94235,16.405275 -4.95973,19.012314 -1.01738,2.60704 -3.49726,6.104293 -4.64181,5.913523 -1.14455,-0.19075 -3.59808,-6.597544 -3.08939,-8.377961 0.50869,-1.780418 1.94792,-1.186785 3.99504,-5.356681 2.06562,-4.207608 3.37498,-8.8605 3.41184,-13.513032 0.0418,-5.271275 -1.83761,-8.885255 -1.83761,-8.885255 z"
       id="path35051"
       sodipodi:nodetypes="csssssscc" />
    <path
       style="font-variation-settings:normal;opacity:1;vector-effect:none;fill:#ffd42a;fill-opacity:0.609231;stroke:none;stroke-width:2.1365;stroke-linecap:butt;stroke-linejoin:miter;stroke-miterlimit:4;stroke-dasharray:2.1365, 4.273;stroke-dashoffset:0;stroke-opacity:1;-inkscape-stroke:none;stop-color:#000000;stop-opacity:1"
       d="m 237.28916,91.00467 c 8.2219,-4.976903 13.67115,-10.399671 20.84147,-16.24524 2.50429,-2.041608 3.8859,-1.852645 4.39693,-2.539427 0.36509,-0.490625 -1.8225,-3.003901 -2.82405,-4.121704 -0.63666,-0.710554 -3.6013,-3.735697 -3.6013,-3.735697 l -1.13273,0.552152 c 0,0 -0.0339,2.681359 -4.03634,8.284835 -6.74435,9.44209 -14.45916,16.565776 -14.45916,16.565776 z"
       id="path37212"
       sodipodi:nodetypes="csssccscc" />
    <path
       style="font-variation-settings:normal;opacity:1;vector-effect:none;fill:#ffd42a;fill-opacity:0.609231;stroke:none;stroke-width:2.1365;stroke-linecap:butt;stroke-linejoin:miter;stroke-miterlimit:4;stroke-dasharray:2.1365, 4.273;stroke-dashoffset:0;stroke-opacity:1;-inkscape-stroke:none;stop-color:#000000;stop-opacity:1"
       d="m 214.09889,119.54964 c 27.59926,-19.779688 26.85261,-41.314271 27.75185,-46.70975 0.89925,-5.39548 3.1024,-6.069915 3.1024,-7.193973 0,-1.124058 -3.19233,-1.61402 -5.35052,-2.452336 -2.15819,-0.838315 -7.75123,-5.910657 -7.75123,-5.910657 l -1.1093,1.284752 c 0,0 4.26029,3.942352 4.38746,13.098784 0.12718,9.156433 -1.83577,27.681174 -22.0181,46.62989 z"
       id="path45274"
       sodipodi:nodetypes="csssccscc" />
    <path
       style="font-variation-settings:normal;opacity:1;vector-effect:none;fill:#ffd42a;fill-opacity:0.609231;stroke:none;stroke-width:2.1365;stroke-linecap:butt;stroke-linejoin:miter;stroke-miterlimit:4;stroke-dasharray:2.1365, 4.273;stroke-dashoffset:0;stroke-opacity:1;-inkscape-stroke:none;stop-color:#000000;stop-opacity:1"
       d="m 235.67135,89.152703 c 16.31766,12.419417 20.89243,18.082827 20.89243,18.082827 l 1.60322,-0.45961 c 0,0 0.76942,-7.498182 -1.83838,-9.476524 -2.60783,-1.978342 -19.70479,-9.391807 -19.70479,-9.391807 z"
       id="path52499"
       sodipodi:nodetypes="cccscc" />
    <path
       style="font-variation-settings:normal;opacity:1;vector-effect:none;fill:#ffd42a;fill-opacity:0.609231;stroke:none;stroke-width:2.12744;stroke-linecap:butt;stroke-linejoin:miter;stroke-miterlimit:4;stroke-dasharray:2.12744, 4.25489;stroke-dashoffset:0;stroke-opacity:1;-inkscape-stroke:none;stop-color:#000000;stop-opacity:1"
       d="m 262.98716,63.89263 c 0,0 6.48862,5.111966 9.92847,4.623241 2.35098,-0.334022 27.22672,-4.648763 46.31084,-7.138032 22.0621,-2.877704 27.17888,-2.315737 27.509,-3.666056 0.33013,-1.350318 -5.94483,-10.217507 -8.34893,-9.540494 -2.40409,0.677012 -1.29566,4.077 -19.55258,7.261522 -38.86491,6.779139 -49.35344,6.242241 -55.37721,7.285723 z"
       id="path56598"
       sodipodi:nodetypes="cssssscc" />
    <path
       style="font-variation-settings:normal;opacity:1;vector-effect:none;fill:#ffd42a;fill-opacity:0.609231;stroke:none;stroke-width:2.12744;stroke-linecap:butt;stroke-linejoin:miter;stroke-miterlimit:4;stroke-dasharray:2.12744, 4.25489;stroke-dashoffset:0;stroke-opacity:1;-inkscape-stroke:none;stop-color:#000000;stop-opacity:1"
       d="m 276.24002,11.377553 c 5.44306,5.479376 9.5467,11.748695 9.5467,11.748695 0,0 2.97039,13.305442 1.93022,31.325418 -0.27151,4.068884 -0.73807,8.336538 -2.26031,8.605169 -1.52225,0.26863 -5.28307,-5.193519 -5.82033,-8.417082 -0.53726,-3.223563 1.11877,-1.735144 1.86709,-8.193465 0.78152,-6.744923 0.33814,-16.658788 -1.72136,-22.837284 -1.84055,-5.521639 -4.90371,-11.147657 -4.90371,-11.147657 z"
       id="path60696"
       sodipodi:nodetypes="cccsssscc" />
    <path
       style="font-variation-settings:normal;opacity:1;vector-effect:none;fill:#ffd42a;fill-opacity:0.609231;stroke:none;stroke-width:2.12744;stroke-linecap:butt;stroke-linejoin:miter;stroke-miterlimit:4;stroke-dasharray:2.12744, 4.25489;stroke-dashoffset:0;stroke-opacity:1;-inkscape-stroke:none;stop-color:#000000;stop-opacity:1"
       d="m 281.97453,23.836816 c 6.08895,0.710569 14.66449,-1.913587 22.00704,-3.531148 7.34256,-1.61756 10.59313,-3.025385 11.12402,-1.751914 0.88046,2.112005 -0.71634,23.28129 -1.43269,30.982024 -0.71634,7.700734 -2.41767,5.455723 -2.64815,10.02186 -0.23048,4.566139 2.91229,9.120583 3.9913,8.978586 1.53254,-0.201679 3.19453,-5.003888 3.83956,-11.17366 0.62359,-5.964605 1.96299,-21.20976 2.65311,-31.998503 0.42567,-6.654592 5.70937,-6.480036 5.64605,-8.252906 -0.0633,-1.772869 -9.22703,-9.4866503 -10.87326,-9.2333832 -1.64624,0.253267 -0.93703,4.2707942 -11.35463,7.0326602 -8.27829,2.194699 -20.13102,4.60676 -23.42349,4.733394 z"
       id="path66892"
       sodipodi:nodetypes="csssssssssscc" />
    <path
       style="font-variation-settings:normal;opacity:1;vector-effect:none;fill:#ffd42a;fill-opacity:0.609231;stroke:none;stroke-width:2.12744;stroke-linecap:butt;stroke-linejoin:miter;stroke-miterlimit:4;stroke-dasharray:2.12744, 4.25489;stroke-dashoffset:0;stroke-opacity:1;-inkscape-stroke:none;stop-color:#000000;stop-opacity:1"
       d="m 284.01721,35.051741 c 0,0 6.56684,-1.254137 16.08116,-4.227511 4.55147,-1.422405 4.16324,-2.888991 5.54764,-3.133707 1.38439,-0.244716 6.59138,4.314005 6.46941,5.237624 -0.12198,0.923619 -2.30681,0.744165 -13.78863,3.046959 -9.95663,1.996901 -13.7366,2.75976 -13.7366,2.75976 z"
       id="path89445"
       sodipodi:nodetypes="csssscc" />
    <path
       style="font-variation-settings:normal;opacity:1;vector-effect:none;fill:#ffd42a;fill-opacity:0.609231;stroke:none;stroke-width:2.12744;stroke-linecap:butt;stroke-linejoin:miter;stroke-miterlimit:4;stroke-dasharray:2.12744, 4.25489;stroke-dashoffset:0;stroke-opacity:1;-inkscape-stroke:none;stop-color:#000000;stop-opacity:1"
       d="m 285.22423,47.561733 c 0,0 8.84423,-1.323786 13.87606,-2.554409 5.07317,-1.240736 6.59807,-2.633883 7.53627,-2.828462 0.9382,-0.194578 5.09366,3.829305 5.03107,4.722549 -0.0626,0.893246 -1.67169,0.644638 -13.86857,2.639238 -9.73274,1.591632 -12.03817,2.046271 -12.03817,2.046271 z"
       id="path96585"
       sodipodi:nodetypes="csssscc" />
    <path
       style="font-variation-settings:normal;opacity:1;vector-effect:none;fill:#ffd42a;fill-opacity:0.609231;stroke:none;stroke-width:2.12744;stroke-linecap:butt;stroke-linejoin:miter;stroke-miterlimit:4;stroke-dasharray:2.12744, 4.25489;stroke-dashoffset:0;stroke-opacity:1;-inkscape-stroke:none;stop-color:#000000;stop-opacity:1"
       d="m 262.6678,93.661118 c 14.63013,-8.075683 23.5844,-17.438219 30.67876,-24.694419 3.50021,-3.580061 4.56033,-2.733424 4.4276,-3.860012 -0.13829,-1.173889 -3.21878,-2.040303 -3.21878,-2.040303 l -7.7967,1.279074 c 0,0 -0.0158,1.444466 -1.47166,4.190766 -1.39297,2.627646 -9.16658,12.732955 -23.42653,23.803383 z"
       id="path113193"
       sodipodi:nodetypes="cssccscc" />
    <path
       style="font-variation-settings:normal;opacity:1;vector-effect:none;fill:#ffd42a;fill-opacity:0.609231;stroke:none;stroke-width:2.12744;stroke-linecap:butt;stroke-linejoin:miter;stroke-miterlimit:4;stroke-dasharray:2.12744, 4.25489;stroke-dashoffset:0;stroke-opacity:1;-inkscape-stroke:none;stop-color:#000000;stop-opacity:1"
       d="m 303.7996,100.61861 c 3.5119,2.24407 7.56149,5.42561 9.18387,7.57116 2.09395,2.76918 1.73196,4.76296 2.69057,5.0803 1.70132,0.56321 6.35456,-4.13455 8.8893,-8.44881 5.04478,-8.586472 7.40082,-16.58937 9.25683,-24.130264 1.38681,-5.634543 4.16377,-4.543238 4.61149,-6.350838 0.44771,-1.807602 -5.82037,-8.468977 -7.79027,-8.260256 -2.54577,0.269736 -0.0448,3.001378 -19.4757,6.14523 -13.88721,2.2469 -26.19146,3.024543 -26.19146,3.024543 l -1.31701,2.355506 c 4.3837,2.58408 15.76481,1.622165 27.03519,0.06126 11.27038,-1.560903 14.94644,-2.597605 15.95895,-1.938961 1.0125,0.658646 0.0248,8.916764 -2.97124,16.023911 -3.31932,7.874141 -5.85863,11.256299 -7.8913,11.603409 -2.51224,0.429 -6.25113,-2.11112 -11.06057,-4.244687 z"
       id="path119881"
       sodipodi:nodetypes="csssssssccsssscc" />
    <path
       style="font-variation-settings:normal;opacity:1;vector-effect:none;fill:#ffd42a;fill-opacity:0.609231;stroke:none;stroke-width:2.12744;stroke-linecap:butt;stroke-linejoin:miter;stroke-miterlimit:4;stroke-dasharray:2.12744, 4.25489;stroke-dashoffset:0;stroke-opacity:1;-inkscape-stroke:none;stop-color:#000000;stop-opacity:1"
       d="m 274.30069,100.94511 c 19.36444,-12.664856 27.29674,-23.521399 27.29674,-23.521399 l -7.72969,0.864674 c 0,0 -2.27022,5.782867 -20.45257,21.46118 z"
       id="path133220"
       sodipodi:nodetypes="ccccc" />
    <path
       style="font-variation-settings:normal;opacity:1;vector-effect:none;fill:#ffd42a;fill-opacity:0.609231;stroke:none;stroke-width:2.12744;stroke-linecap:butt;stroke-linejoin:miter;stroke-miterlimit:4;stroke-dasharray:2.12744, 4.25489;stroke-dashoffset:0;stroke-opacity:1;-inkscape-stroke:none;stop-color:#000000;stop-opacity:1"
       d="m 281.9799,109.88733 c 14.70415,-8.27351 25.71249,-19.266117 32.59363,-29.215908 2.57654,-3.725545 3.6602,-2.981591 3.78177,-4.14579 0.12156,-1.164195 -1.18838,-2.114685 -1.18838,-2.114685 l -8.35065,1.587634 c 0,0 0.22533,0.587268 -0.27868,2.745833 -0.35832,1.53453 -5.70256,12.175794 -27.50862,29.605296 z"
       id="path149053"
       sodipodi:nodetypes="cscccscc" />
    <path
       style="font-variation-settings:normal;opacity:1;vector-effect:none;fill:#ffd42a;fill-opacity:0.609231;stroke:none;stroke-width:2.1;stroke-linecap:butt;stroke-linejoin:miter;stroke-miterlimit:4;stroke-dasharray:2.1, 4.2;stroke-dashoffset:0;stroke-opacity:1;-inkscape-stroke:none;stop-color:#000000;stop-opacity:1"
       d="m 244.32679,162.98811 c 0,0 9.7814,3.41132 15.37958,6.54074 7.11526,3.97748 7.17952,6.41599 9.36916,6.76171 1.67938,0.26516 6.54074,-4.552 6.54074,-10.03208 0,-5.48008 -2.6485,-34.10745 -2.12132,-51.70205 0.20123,-6.71605 3.31457,-7.38556 3.22617,-8.31364 -0.0884,-0.92807 -2.87262,-1.72357 -5.12652,-2.60745 -2.2539,-0.88389 -7.91076,-3.49134 -7.91076,-3.49134 l -1.19324,1.10485 c 0,0 3.17912,3.56312 3.83922,16.18865 1.14891,21.97503 1.83147,46.50628 0.35923,47.84871 -1.11703,1.01854 -7.24784,-1.19325 -21.87611,-3.93328 z"
       id="path177278"
       sodipodi:nodetypes="cssssssccsscc" />
    <path
       style="font-variation-settings:normal;opacity:1;vector-effect:none;fill:#ffd42a;fill-opacity:0.609231;stroke:none;stroke-width:2.1;stroke-linecap:butt;stroke-linejoin:miter;stroke-miterlimit:4;stroke-dasharray:2.1, 4.2;stroke-dashoffset:0;stroke-opacity:1;-inkscape-stroke:none;stop-color:#000000;stop-opacity:1"
       d="m 253.69596,122.85352 c 0,0 -37.00104,11.90751 -42.33802,11.54097 -3.26622,-0.22433 -10.16466,-6.05461 -10.16466,-6.05461 l 0.3817,-1.35282 C 218.24686,124.95581 217.25,126.3125 253.5,121.0625 Z"
       id="path179772"
       sodipodi:nodetypes="cscccc" />
    <path
       style="font-variation-settings:normal;opacity:1;vector-effect:none;fill:#ffd42a;fill-opacity:0.609231;stroke:none;stroke-width:2.1;stroke-linecap:butt;stroke-linejoin:miter;stroke-miterlimit:4;stroke-dasharray:2.1, 4.2;stroke-dashoffset:0;stroke-opacity:1;-inkscape-stroke:none;stop-color:#000000;stop-opacity:1"
       d="m 183.49014,172.88761 c 43.8758,-11.49049 68.87999,-40.39348 73.52038,-45.74097 4.64039,-5.3475 9.55455,-5.03642 9.94369,-6.23138 0.38914,-1.19497 -3.62392,-3.53554 -5.74524,-5.03814 -1.68648,-1.19459 -5.2042,-3.19283 -6.67216,-3.9231 l -0.89954,0.53567 c -1.97387,5.04063 -1.29948,6.83402 -6.43785,13.97193 -3.33107,4.62731 -24.41728,29.63219 -64.19204,44.74661 z"
       id="path187710"
       sodipodi:nodetypes="csssccscc" />
    <path
       style="font-variation-settings:normal;opacity:1;vector-effect:none;fill:#ffd42a;fill-opacity:0.609231;stroke:none;stroke-width:2.1;stroke-linecap:butt;stroke-linejoin:miter;stroke-miterlimit:4;stroke-dasharray:2.1, 4.2;stroke-dashoffset:0;stroke-opacity:1;-inkscape-stroke:none;stop-color:#000000;stop-opacity:1"
       d="m 289.34835,136.40273 c 0,0 5.89941,-5.42483 11.75173,-10.07192 8.9368,-7.09635 10.08742,-4.95581 10.58742,-6.76831 0.5,-1.8125 -2.1875,-3.25 -3.8125,-4.9375 -1.625,-1.6875 -4.625,-4.3125 -4.625,-4.3125 l -1.21875,0.1875 c -1.90625,3.625 -4.08806,8.15563 -7.77497,13.80492 -3.875,5.9375 -7.05178,10.14205 -7.05178,10.14205 z"
       id="path190402"
       sodipodi:nodetypes="csssccscc" />
    <path
       style="font-variation-settings:normal;opacity:1;vector-effect:none;fill:#ffd42a;fill-opacity:0.609231;stroke:none;stroke-width:2.1;stroke-linecap:butt;stroke-linejoin:miter;stroke-miterlimit:4;stroke-dasharray:2.1, 4.2;stroke-dashoffset:0;stroke-opacity:1;-inkscape-stroke:none;stop-color:#000000;stop-opacity:1"
       d="m 269.875,124.375 c 29.30285,19.18046 47.5,40.25 51.625,41 4.125,0.75 26.125,-6.875 26.125,-6.875 l -0.85056,-2.98472 c 0,0 -11.08197,1.62184 -19.90312,-1.44834 -21.16763,-7.36734 -22.97151,-13.53806 -55.68382,-32.39682 z"
       id="path194960"
       sodipodi:nodetypes="csccscc" />
  </g>
</svg>
